<?xml version="1.0" standalone="no"?>
<!DOCTYPE svg PUBLIC "-//W3C//DTD SVG 20010904//EN"
 "http://www.w3.org/TR/2001/REC-SVG-20010904/DTD/svg10.dtd">
<svg version="1.0" xmlns="http://www.w3.org/2000/svg"
 width="920.000000pt" height="1302.000000pt" viewBox="0 0 920.000000 1302.000000"
 preserveAspectRatio="xMidYMid meet">

<g transform="translate(0.000000,1302.000000) scale(0.100000,-0.100000)"
fill="#000000" stroke="none">
<path d="M4770 10764 c-13 -33 -13 -110 0 -135 9 -15 22 -19 65 -19 43 0 56 4
65 19 13 25 13 102 0 135 -9 24 -15 26 -65 26 -50 0 -56 -2 -65 -26z"/>
<path d="M4947 10770 c-24 -28 -24 -128 1 -146 21 -17 104 -18 120 -2 15 15
16 122 2 149 -15 28 -99 27 -123 -1z"/>
<path d="M5122 10781 c-18 -11 -28 -122 -13 -149 10 -18 21 -22 66 -22 75 0
88 15 83 97 -3 42 -9 68 -19 74 -18 11 -100 12 -117 0z"/>
<path d="M4475 10559 c-506 -7 -821 -19 -1035 -40 -119 -12 -272 -38 -280 -48
-3 -3 -22 -14 -42 -23 -21 -10 -38 -24 -38 -31 0 -8 -7 -28 -16 -46 -33 -66
-190 -61 1935 -61 1059 0 1936 3 1949 6 19 6 22 11 17 33 -4 14 -10 28 -15 31
-5 3 -13 17 -19 32 -5 14 -23 32 -40 39 -17 8 -31 17 -31 20 0 6 -9 8 -125 28
-287 50 -1165 73 -2260 60z"/>
<path d="M3070 9890 l0 -350 70 0 70 0 0 350 0 350 -70 0 -70 0 0 -350z"/>
<path d="M3360 9890 l0 -350 70 0 70 0 0 350 0 350 -70 0 -70 0 0 -350z"/>
<path d="M3633 9890 l1 -350 78 0 78 0 0 350 0 350 -79 0 -79 0 1 -350z"/>
<path d="M3920 9890 l0 -350 80 0 80 0 0 350 0 350 -80 0 -80 0 0 -350z"/>
<path d="M4210 9890 l0 -350 80 0 80 0 0 350 0 350 -80 0 -80 0 0 -350z"/>
<path d="M4500 9890 l0 -350 80 0 80 0 0 350 0 350 -80 0 -80 0 0 -350z"/>
<path d="M4790 9890 l0 -350 78 0 78 0 1 350 1 350 -79 0 -79 0 0 -350z"/>
<path d="M5080 9890 l0 -350 70 0 70 0 0 350 0 350 -70 0 -70 0 0 -350z"/>
<path d="M5365 9890 l0 -350 73 0 72 0 0 350 0 350 -72 0 -73 0 0 -350z"/>
<path d="M5650 9890 l0 -350 75 0 75 0 0 350 0 350 -75 0 -75 0 0 -350z"/>
<path d="M5930 9890 l0 -350 80 0 80 0 0 350 0 350 -80 0 -80 0 0 -350z"/>
<path d="M6220 9890 l0 -350 80 0 80 0 0 350 0 350 -80 0 -80 0 0 -350z"/>
<path d="M6510 9890 l0 -350 80 0 80 0 0 350 0 350 -80 0 -80 0 0 -350z"/>
<path d="M6800 9890 l0 -350 73 0 72 0 -1 323 c0 177 -1 334 -2 350 -2 27 -3
27 -72 27 l-70 0 0 -350z"/>
<path d="M3057 9461 c-2 -10 1 -32 8 -47 7 -16 15 -37 18 -46 10 -28 48 -46
137 -63 47 -9 94 -20 105 -25 27 -12 191 -27 475 -42 322 -18 2110 -18 2415 0
280 16 454 31 480 41 11 5 56 17 100 26 96 21 135 39 135 64 0 10 9 28 20 41
22 25 23 30 14 54 -6 15 -187 16 -1954 16 -1903 0 -1948 0 -1953 -19z"/>
<path d="M3975 9125 c-27 -19 -65 -48 -84 -65 -19 -16 -39 -30 -45 -30 -7 0
-27 -15 -46 -32 -19 -18 -61 -49 -92 -70 -32 -21 -58 -42 -58 -48 0 -5 -4 -10
-9 -10 -5 0 -36 -18 -69 -40 -33 -22 -66 -40 -74 -40 -8 0 -18 -4 -24 -9 -5
-5 -70 -19 -144 -31 -74 -12 -136 -23 -137 -24 -2 -1 -13 -36 -25 -77 -12 -41
-25 -76 -29 -79 -4 -3 -16 -35 -27 -72 l-20 -68 404 0 404 0 0 138 0 137 50
33 c28 17 50 36 50 41 0 5 19 20 43 34 23 14 53 36 68 48 14 13 46 40 73 59
26 19 62 47 79 63 30 26 36 27 138 27 l107 0 11 -30 c5 -17 17 -38 26 -46 8
-8 18 -27 21 -42 4 -15 24 -64 46 -108 27 -58 38 -95 38 -128 l0 -46 -275 0
-275 0 0 -90 0 -90 905 0 905 0 0 90 0 90 -270 0 -270 0 0 49 c0 47 48 187 68
200 5 3 22 39 38 79 l28 74 116 -4 115 -3 44 -42 c24 -24 47 -43 52 -43 5 0
30 -20 57 -45 26 -25 52 -45 58 -45 6 0 26 -15 45 -32 19 -18 53 -46 77 -62
l42 -29 0 -138 0 -139 404 0 404 0 -29 98 c-16 53 -36 109 -44 124 -8 14 -15
35 -15 46 0 12 -4 23 -9 26 -4 3 -68 15 -142 27 -74 13 -135 26 -137 31 -2 4
-14 8 -27 8 -12 0 -28 7 -35 15 -7 8 -17 15 -22 15 -9 0 -78 48 -88 62 -10 13
-110 78 -120 78 -6 0 -13 7 -16 15 -3 8 -31 31 -62 51 -32 21 -70 50 -86 66
-17 15 -34 28 -39 28 -5 0 -20 9 -34 20 -25 20 -40 20 -1007 19 l-981 0 -50
-34z"/>
<path d="M1398 8298 c-21 -6 -38 -14 -38 -19 0 -5 -6 -9 -12 -9 -28 0 -141
-80 -171 -121 -17 -24 -37 -48 -43 -54 -6 -5 -22 -35 -35 -65 -23 -53 -24 -62
-24 -315 0 -259 0 -260 26 -321 15 -34 34 -70 43 -80 9 -11 32 -38 52 -61 20
-24 42 -43 49 -43 7 0 24 -11 37 -25 14 -14 54 -35 89 -47 l64 -23 3525 -3
c2349 -2 3547 1 3590 8 97 15 137 28 166 55 15 14 33 25 39 25 19 0 121 116
144 164 11 22 25 66 31 96 7 30 16 71 22 90 14 50 4 312 -15 392 -34 143 -110
249 -218 303 -30 15 -56 31 -59 35 -21 29 -129 30 -3662 29 -2331 -1 -3576 -5
-3600 -11z m7092 -71 c8 -3 33 -11 56 -16 22 -6 54 -22 70 -36 16 -14 34 -25
39 -25 6 0 36 -27 68 -60 59 -61 117 -172 117 -224 0 -15 5 -26 10 -26 6 0 10
-48 10 -125 0 -77 -4 -125 -10 -125 -5 0 -10 -10 -10 -22 0 -35 -27 -116 -51
-157 -26 -43 -123 -140 -159 -160 -14 -7 -50 -23 -80 -35 l-55 -21 -3445 -3
c-2422 -2 -3464 1 -3508 8 -73 12 -162 50 -199 82 -80 72 -110 109 -139 172
-54 120 -59 359 -10 491 15 39 32 75 39 80 7 6 29 31 50 57 21 26 55 57 77 69
22 13 40 26 40 30 0 11 100 41 160 48 72 9 6910 7 6930 -2z"/>
<path d="M1546 8139 c-91 -21 -196 -111 -243 -208 -27 -54 -28 -61 -28 -216 1
-144 3 -166 23 -214 13 -30 33 -65 45 -77 12 -12 34 -36 49 -52 29 -32 127
-82 159 -82 11 0 19 -4 19 -10 0 -6 48 -10 125 -10 l125 0 0 50 0 50 -115 0
-115 0 0 35 0 35 115 0 115 0 0 50 0 50 -160 0 -160 0 0 35 0 35 160 0 160 0
0 30 0 30 -211 0 -210 0 3 38 3 37 110 1 c61 1 154 2 208 3 l97 1 0 35 0 35
-160 0 -160 0 0 35 0 35 160 0 160 0 0 40 0 40 -115 0 -115 0 0 40 0 40 115 0
115 0 0 50 0 50 -117 -1 c-65 -1 -135 -5 -157 -10z"/>
<path d="M2000 8100 l0 -50 3005 0 3005 0 0 50 0 50 -3005 0 -3005 0 0 -50z"/>
<path d="M8190 8101 l0 -51 115 0 115 0 0 -40 0 -40 -115 0 -115 0 0 -40 0
-40 155 0 155 0 0 -35 0 -34 -152 -3 -153 -3 0 -34 0 -35 205 0 205 -1 3 -37
3 -38 -210 0 -211 0 0 -30 0 -30 155 0 155 0 0 -35 0 -35 -155 0 -155 0 0 -50
0 -50 115 0 115 0 0 -35 0 -35 -115 0 -115 0 0 -50 0 -50 135 0 c74 0 135 3
135 8 0 4 27 18 61 31 76 29 149 99 186 178 27 56 28 64 28 223 0 153 -2 169
-24 220 -32 71 -125 164 -194 192 -42 17 -80 22 -189 26 l-138 4 0 -51z"/>
<path d="M2000 7705 l0 -265 3005 0 3005 0 0 265 0 265 -3005 0 -3005 0 0
-265z m629 206 c17 -16 31 -32 31 -36 0 -7 35 -51 81 -102 14 -15 18 -29 13
-47 -3 -14 -9 -26 -13 -26 -4 0 -20 -38 -36 -85 -15 -47 -31 -88 -35 -90 -4
-2 -60 -12 -125 -21 l-118 -17 -38 44 c-21 24 -39 48 -39 52 0 5 -13 19 -29
33 -17 14 -33 34 -36 44 -7 21 42 180 55 180 4 0 11 15 16 33 10 32 10 32 114
48 58 9 110 17 116 18 7 0 26 -12 43 -28z m1658 3 c10 -14 38 -48 62 -74 71
-79 71 -80 32 -195 -19 -55 -40 -105 -46 -112 -7 -6 -63 -19 -126 -28 l-114
-17 -35 33 c-19 19 -48 54 -65 78 -16 24 -38 49 -47 55 -19 12 -24 32 -9 38 5
2 25 50 45 108 l35 105 108 16 c145 22 140 22 160 -7z m1662 -1 c17 -15 31
-32 31 -38 0 -5 17 -28 38 -51 67 -73 65 -69 50 -111 -7 -21 -16 -40 -19 -43
-4 -3 -18 -36 -32 -75 l-25 -70 -108 -18 c-60 -10 -119 -16 -130 -13 -12 3
-37 26 -55 52 -19 25 -49 61 -66 79 -18 19 -33 40 -33 48 0 18 31 111 40 117
3 3 15 30 27 60 l20 55 104 16 c57 9 109 17 115 18 7 0 26 -11 43 -26z m1663
-5 c12 -18 37 -49 56 -68 18 -19 40 -49 48 -67 15 -31 14 -37 -21 -141 l-36
-109 -124 -18 -124 -18 -35 39 c-20 21 -54 62 -76 91 l-41 52 40 118 39 118
104 16 c147 23 144 23 170 -13z"/>
<path d="M2450 7863 c-96 -36 -127 -176 -59 -261 41 -51 112 -72 173 -52 44
14 103 70 112 105 9 36 -1 128 -17 153 -29 46 -149 78 -209 55z m115 -55 c29
-13 55 -65 55 -110 0 -45 -48 -88 -97 -88 -64 0 -113 42 -113 96 0 48 18 81
54 98 38 19 66 20 101 4z"/>
<path d="M4095 7851 c-72 -45 -93 -89 -82 -172 6 -48 68 -115 119 -130 57 -16
117 -1 155 40 18 20 36 46 39 59 4 12 10 22 15 22 5 0 9 18 9 40 0 22 -4 40
-10 40 -5 0 -10 7 -10 16 0 27 -41 75 -76 90 -48 20 -123 18 -159 -5z m134
-45 c33 -18 51 -54 51 -104 -1 -58 -40 -92 -108 -92 -49 0 -79 22 -93 70 -10
33 -9 44 8 77 31 60 85 78 142 49z"/>
<path d="M5759 7857 c-43 -20 -57 -36 -74 -88 -59 -176 143 -304 271 -172 41
42 48 67 41 141 -5 49 -11 61 -39 85 -18 16 -43 33 -56 38 -32 12 -111 10
-143 -4z m126 -49 c29 -13 55 -65 55 -110 0 -46 -48 -88 -100 -88 -77 0 -140
94 -97 146 53 67 84 78 142 52z"/>
<path d="M7425 7861 c-11 -5 -36 -26 -55 -47 -32 -36 -35 -44 -35 -104 0 -51
4 -69 20 -86 11 -12 28 -30 37 -42 35 -43 160 -51 197 -12 69 72 76 84 76 138
0 29 -5 56 -10 60 -6 4 -16 19 -22 35 -19 42 -69 67 -133 66 -30 0 -64 -4 -75
-8z m105 -47 c66 -14 96 -126 46 -173 -30 -28 -100 -38 -136 -19 -13 7 -31 30
-39 51 -20 53 0 114 44 133 35 16 42 16 85 8z"/>
<path d="M2000 7320 l0 -50 3005 0 3005 0 0 50 0 50 -3005 0 -3005 0 0 -50z"/>
<path d="M2170 6961 c0 -87 0 -89 -25 -94 -18 -3 -29 1 -36 14 -5 11 -18 19
-28 19 -19 0 -61 -39 -61 -57 0 -6 -13 -25 -30 -41 -26 -27 -30 -38 -30 -87 0
-51 2 -57 29 -73 26 -14 29 -22 27 -55 -2 -41 18 -62 35 -36 6 10 9 10 9 2 0
-7 7 -13 15 -13 8 0 15 6 15 13 0 9 3 8 9 -2 16 -25 34 -1 28 40 l-5 39 414 0
c269 0 414 -3 414 -10 0 -5 -4 -10 -10 -10 -5 0 -10 -13 -10 -29 0 -31 28 -51
42 -29 6 10 8 10 8 1 0 -7 6 -13 14 -13 8 0 17 6 19 13 4 10 6 10 6 0 1 -7 8
-13 16 -13 11 0 15 11 15 43 0 36 4 44 30 59 28 16 30 21 30 73 0 49 -4 60
-30 87 -16 16 -30 33 -30 38 0 13 -46 60 -58 60 -6 0 -20 -9 -31 -21 -13 -14
-26 -19 -40 -14 -19 6 -21 14 -21 96 l0 89 -365 0 -365 0 0 -89z"/>
<path d="M3820 6971 c0 -59 -4 -84 -16 -95 -21 -21 -31 -20 -44 5 -18 33 -62
22 -76 -20 -6 -20 -22 -40 -38 -48 -31 -16 -46 -49 -46 -99 0 -48 14 -71 47
-78 26 -6 28 -9 25 -51 -3 -36 -1 -45 12 -45 9 0 16 6 16 13 0 8 4 7 11 -3 8
-11 12 -12 16 -2 6 14 33 16 33 2 0 -5 5 -10 10 -10 6 0 10 20 10 45 l0 45
405 0 405 0 0 -45 c0 -43 12 -60 23 -32 4 10 6 10 6 0 1 -7 10 -13 21 -13 11
0 20 6 20 13 0 9 3 8 9 -2 16 -25 34 -1 28 39 -4 35 -3 38 26 47 25 7 33 16
39 43 12 55 -8 116 -43 130 -20 9 -29 19 -29 35 0 26 -24 55 -45 55 -25 0 -45
-12 -45 -27 0 -10 -6 -13 -16 -9 -9 3 -20 6 -25 6 -5 0 -9 41 -9 90 l0 90
-365 0 -365 0 0 -79z"/>
<path d="M5470 6960 c0 -71 -3 -90 -14 -90 -8 0 -21 -3 -30 -6 -10 -4 -16 -1
-16 9 0 19 -25 29 -56 21 -17 -4 -25 -15 -30 -40 -4 -21 -13 -36 -26 -40 -25
-8 -38 -43 -38 -103 0 -47 20 -81 47 -81 7 0 9 -15 6 -40 -4 -32 -2 -41 12
-46 10 -4 21 -1 26 7 6 10 9 10 9 2 0 -7 7 -13 15 -13 8 0 15 6 15 13 0 9 3 8
9 -2 16 -25 34 -1 28 40 l-5 39 404 0 404 0 0 -39 c0 -43 13 -59 34 -41 11 8
15 8 19 -2 4 -10 8 -10 17 2 9 11 13 12 17 3 12 -30 25 -10 21 32 -3 38 0 45
14 45 72 0 79 152 9 187 -14 6 -29 26 -35 45 -13 40 -41 48 -67 19 -24 -25
-33 -26 -54 -5 -13 14 -16 33 -13 95 l3 79 -362 0 -363 0 0 -90z"/>
<path d="M7110 6961 c0 -73 -3 -90 -17 -95 -10 -4 -23 1 -35 14 -27 29 -55 25
-73 -10 -8 -16 -15 -33 -15 -36 1 -4 -9 -12 -22 -18 -31 -15 -48 -52 -48 -103
0 -46 25 -83 58 -83 14 0 17 -7 14 -45 -4 -42 9 -62 21 -32 4 9 8 8 16 -3 10
-13 12 -13 21 0 6 10 10 11 10 3 0 -7 9 -13 20 -13 17 0 20 7 20 45 l0 45 404
0 404 0 -5 -39 c-6 -41 12 -65 28 -40 6 10 9 11 9 2 0 -7 9 -13 20 -13 11 0
20 6 20 13 0 9 3 8 9 -2 16 -25 34 -1 28 40 -3 26 -1 39 6 39 7 1 22 9 35 19
17 15 22 30 22 70 0 28 -4 51 -9 51 -5 0 -12 9 -16 19 -3 11 -14 23 -24 26
-12 3 -21 19 -25 40 -4 21 -14 36 -26 40 -27 9 -60 -3 -60 -22 0 -10 -6 -13
-16 -9 -9 3 -22 6 -30 6 -11 0 -14 19 -14 90 l0 90 -365 0 -365 0 0 -89z"/>
<path d="M1695 6929 c-19 -17 -35 -37 -35 -45 0 -7 -6 -17 -14 -21 -15 -8 -63
-108 -86 -178 -7 -22 -17 -43 -22 -46 -5 -3 -27 -66 -49 -140 -22 -74 -46
-147 -53 -164 -8 -16 -16 -42 -20 -57 l-6 -28 340 0 340 0 0 120 0 120 -62 1
c-35 0 -79 2 -98 2 l-35 2 0 215 0 215 95 0 c82 0 95 2 98 18 3 16 -10 17
-177 17 l-180 0 -36 -31z"/>
<path d="M2930 6946 c0 -17 45 -23 156 -20 l84 2 0 -219 0 -219 -120 0 -120 0
0 -120 0 -120 440 0 440 0 0 120 0 120 -140 0 -140 0 0 220 0 221 127 -3 c115
-3 128 -1 131 15 3 16 -22 17 -427 17 -361 0 -431 -2 -431 -14z"/>
<path d="M4600 6945 c0 -16 5 -17 135 -19 l70 -1 3 -218 2 -218 -117 2 c-82 1
-118 -2 -117 -10 1 -6 2 -60 3 -121 l1 -110 450 0 450 0 0 120 0 119 -152 3
-153 3 0 215 0 215 125 0 c111 0 125 2 128 18 3 16 -22 17 -412 17 -363 0
-416 -2 -416 -15z"/>
<path d="M6240 6943 c0 -16 11 -18 100 -17 l100 0 0 -218 0 -218 -100 0 -100
0 0 -120 0 -120 425 0 425 0 0 120 0 120 -140 0 -140 0 0 221 0 221 127 -4
c114 -3 126 -1 129 15 2 16 -23 17 -412 17 -388 0 -414 -1 -414 -17z"/>
<path d="M7930 6943 c0 -16 10 -18 78 -18 l77 0 0 -215 0 -215 -77 -3 -78 -3
0 -119 0 -120 349 0 349 0 -5 23 c-3 12 -16 58 -28 102 -13 44 -26 95 -30 113
-4 17 -10 32 -15 32 -4 0 -25 52 -46 116 -20 64 -42 121 -48 128 -6 6 -26 42
-44 79 -23 45 -46 76 -70 92 -36 24 -41 25 -224 25 -172 0 -188 -1 -188 -17z"/>
<path d="M2210 6058 c0 -510 7 -658 31 -658 5 0 9 -6 9 -12 0 -24 60 -163 83
-191 12 -15 38 -50 57 -78 45 -66 135 -153 214 -206 22 -15 44 -31 47 -36 8
-11 182 -87 201 -87 9 0 19 -4 23 -9 12 -20 113 -23 910 -24 l819 -2 16 -30
c8 -16 18 -32 21 -35 4 -3 9 -15 13 -27 5 -16 2 -25 -12 -32 -26 -14 -62 -93
-62 -137 0 -36 42 -122 67 -137 10 -6 13 -47 13 -162 l0 -155 315 0 315 0 0
154 c0 124 3 156 15 166 8 7 15 18 15 24 0 6 9 19 19 28 11 9 25 35 31 57 12
46 -2 93 -40 133 -38 40 -40 51 -19 98 11 25 25 47 31 51 6 4 389 7 852 7 785
0 966 4 966 21 0 4 26 15 58 26 65 22 152 64 167 81 6 7 28 23 50 37 48 30
175 148 175 163 0 6 13 23 30 37 16 14 46 61 67 104 20 43 41 81 46 84 4 3 18
35 29 70 21 62 22 81 25 637 l4 572 -316 0 -315 0 0 -332 c0 -316 -9 -459 -31
-466 -5 -2 -9 -12 -9 -22 0 -20 -23 -80 -47 -125 -21 -39 -123 -145 -140 -145
-6 0 -16 -6 -20 -14 -11 -18 -45 -35 -122 -59 -59 -18 -99 -21 -366 -24 -165
-3 -320 -3 -345 -1 l-45 3 43 28 c23 15 42 34 42 41 0 8 6 16 13 18 9 4 13
125 15 551 l2 547 -319 0 -319 0 -5 -362 c-3 -285 -8 -376 -20 -423 -18 -68
-54 -155 -65 -155 -4 0 -21 -21 -38 -47 -24 -37 -47 -56 -100 -83 -37 -19 -74
-40 -81 -47 -15 -14 -97 -33 -174 -40 -68 -7 -199 24 -258 61 -22 14 -45 26
-51 26 -6 0 -38 28 -72 63 -62 63 -89 112 -110 196 -6 25 -16 52 -22 60 -7 10
-12 133 -14 383 l-3 368 -315 0 -314 0 0 -539 c0 -356 4 -548 11 -569 7 -21
22 -35 49 -46 21 -8 41 -20 45 -26 9 -14 -621 -14 -701 1 -76 13 -176 47 -189
63 -5 7 -29 25 -52 39 -23 14 -54 43 -69 64 -15 21 -34 43 -41 49 -17 15 -51
96 -70 169 -13 48 -17 136 -20 428 l-5 367 -319 0 -319 0 0 -532z"/>
<path d="M480 5630 l0 -822 30 32 c17 18 30 34 30 37 0 2 16 24 35 47 19 24
35 47 35 52 0 5 14 20 30 34 22 18 30 33 30 57 l0 33 155 0 155 0 0 -35 c0
-21 5 -35 13 -35 12 -1 117 -131 117 -147 0 -4 16 -23 35 -42 l35 -34 0 352 0
351 60 0 60 0 1 -1062 c0 -585 4 -1098 7 -1140 l8 -78 -63 0 -63 0 0 487 0
488 -21 -40 c-12 -22 -25 -42 -29 -45 -4 -3 -26 -42 -50 -88 -23 -46 -53 -95
-67 -110 -25 -27 -26 -27 -178 -30 -199 -4 -207 -1 -261 110 -21 45 -44 86
-50 93 -6 6 -23 33 -38 60 l-26 50 1 -1145 1 -1145 23 49 c13 27 28 52 33 55
5 3 29 44 53 91 67 130 46 120 252 120 l179 0 11 -30 c6 -16 15 -30 19 -30 4
0 26 -37 49 -82 22 -46 44 -85 49 -88 4 -3 17 -23 28 -45 l21 -40 1 493 0 492
93 0 94 0 17 -72 c27 -112 118 -316 161 -362 11 -11 31 -35 45 -51 14 -17 45
-41 69 -54 l44 -24 1424 -1 1423 -1 0 616 0 616 -42 6 c-24 3 -44 11 -46 17
-2 6 -15 15 -29 21 -15 5 -32 26 -45 55 -17 39 -20 62 -16 138 3 65 9 99 22
118 21 32 99 78 132 78 24 0 24 0 24 125 0 109 -2 126 -19 142 -22 21 -71 116
-71 138 0 23 61 179 73 187 6 4 4 12 -6 22 -9 9 -19 25 -22 36 -6 19 -19 20
-798 23 -485 2 -815 8 -852 14 -107 19 -275 76 -275 94 0 5 -19 18 -42 29 -72
33 -224 174 -277 255 -14 22 -34 47 -43 57 -19 19 -78 143 -78 164 0 7 -5 14
-11 16 -6 2 -18 28 -27 58 -12 42 -16 119 -20 333 l-4 277 -384 0 -384 0 -5
-22 c-3 -13 -6 -63 -8 -113 l-2 -89 -62 -1 -63 -1 0 354 0 354 -30 -30 c-16
-17 -30 -34 -30 -38 0 -4 -16 -26 -35 -50 -19 -23 -35 -45 -35 -48 0 -3 -11
-17 -25 -31 -26 -25 -27 -25 -198 -25 l-173 0 -22 28 c-35 43 -92 120 -92 125
0 3 -13 19 -30 37 l-30 32 0 -822z m500 535 l0 -35 -155 0 -155 0 0 35 0 35
155 0 155 0 0 -35z m0 -110 l0 -35 -155 0 -155 0 0 35 0 35 155 0 155 0 0 -35z
m0 -115 l0 -30 -155 0 -155 0 0 30 0 30 155 0 155 0 0 -30z m0 -110 l0 -30
-155 0 -155 0 0 30 0 30 155 0 155 0 0 -30z m0 -110 l0 -30 -155 0 -155 0 0
30 0 30 155 0 155 0 0 -30z m734 -20 c9 -22 20 -40 24 -40 5 0 14 -11 20 -25
13 -29 3 -64 -28 -98 -12 -12 -23 -32 -26 -44 -6 -22 -11 -23 -88 -23 l-81 1
-33 68 -33 68 31 61 c17 33 36 63 43 65 6 3 44 6 83 6 l72 1 16 -40z m-736
-92 l3 -38 -155 0 -156 0 0 33 c0 19 2 36 4 38 3 2 71 4 153 4 l148 0 3 -37z
m2 -108 l0 -41 -152 3 c-152 3 -153 3 -156 26 -7 51 -3 52 158 52 l150 0 0
-40z m0 -110 l0 -41 -152 3 -153 3 -3 38 -3 37 155 0 156 0 0 -40z m-2 -107
l-3 -38 -80 1 c-44 1 -113 2 -152 3 l-73 1 0 35 0 35 156 0 155 0 -3 -37z m2
-108 l0 -35 -155 0 -155 0 0 35 0 35 155 0 155 0 0 -35z m733 -297 c9 -21 21
-38 25 -38 10 0 32 -44 32 -63 0 -7 -11 -24 -24 -40 -13 -15 -29 -41 -36 -57
-12 -30 -13 -30 -94 -30 l-81 0 -33 68 -34 67 32 60 c17 33 37 63 43 67 7 5
43 7 82 6 l70 -3 18 -37z m2392 -465 c16 -32 33 -61 39 -65 8 -5 8 -8 0 -8 -6
0 -23 -27 -39 -60 l-29 -61 -85 3 -86 3 -28 58 c-31 63 -30 75 16 155 19 32
19 32 101 32 l82 0 29 -57z m-2389 -365 c10 -18 23 -37 30 -43 23 -18 26 -58
7 -80 -10 -11 -27 -37 -37 -58 l-19 -37 -82 0 -83 0 -31 63 c-34 68 -34 71 8
145 l25 42 83 0 82 0 17 -32z m-736 -198 l0 -30 -155 0 -155 0 0 30 0 30 155
0 155 0 0 -30z m0 -110 l0 -30 -155 0 -155 0 0 30 0 30 155 0 155 0 0 -30z m0
-111 l0 -29 -155 0 -155 0 0 30 0 29 148 3 c81 2 150 2 155 0 4 -2 7 -16 7
-33z m0 -109 l0 -40 -150 0 -150 0 -6 25 c-13 53 -7 55 156 55 l150 0 0 -40z
m0 -110 l0 -41 -152 3 c-152 3 -153 3 -156 26 -7 51 -3 52 158 52 l150 0 0
-40z m1825 -45 c14 -30 30 -55 35 -55 17 0 18 -41 0 -58 -9 -9 -27 -36 -39
-59 l-21 -43 -80 0 -80 0 -30 60 c-36 71 -36 78 -8 127 50 88 41 83 122 83
l74 0 27 -55z m-1825 -66 l0 -41 -152 6 c-146 5 -153 6 -156 26 -8 48 -2 50
158 50 l150 0 0 -41z m0 -104 l0 -35 -155 0 -155 0 0 35 0 35 155 0 155 0 0
-35z m0 -110 l0 -35 -155 0 -155 0 0 35 0 35 155 0 155 0 0 -35z m0 -110 l0
-35 -155 0 -155 0 0 35 0 35 155 0 155 0 0 -35z m0 -110 l0 -35 -155 0 -155 0
0 35 0 35 155 0 155 0 0 -35z m0 -115 l0 -30 -155 0 -155 0 0 30 0 30 155 0
155 0 0 -30z m0 -110 l0 -30 -155 0 -155 0 0 30 0 30 155 0 155 0 0 -30z m0
-105 l0 -35 -155 0 -155 0 0 28 c0 16 3 32 7 35 3 4 73 7 155 7 l148 0 0 -35z
m0 -115 l0 -40 -150 0 -150 0 -6 25 c-13 53 -7 55 156 55 l150 0 0 -40z m-2
-107 l-3 -38 -150 2 c-145 1 -150 2 -153 23 -8 48 -2 50 158 50 l151 0 -3 -37z"/>
<path d="M2980 5955 c0 -25 40 -122 60 -145 11 -13 20 -27 20 -32 0 -13 59
-100 78 -115 8 -6 33 -29 56 -50 107 -100 158 -114 420 -120 l209 -5 -6 23
c-4 13 -7 122 -7 242 l0 217 -415 0 c-357 0 -415 -2 -415 -15z"/>
<path d="M4610 5958 c0 -6 13 -38 29 -72 16 -34 39 -82 51 -108 12 -26 32 -57
44 -70 12 -13 29 -35 38 -49 10 -15 34 -37 55 -50 20 -13 45 -31 54 -40 17
-17 112 -49 145 -49 38 0 135 34 156 54 13 12 40 34 61 50 21 15 50 46 64 69
14 23 30 44 35 46 11 4 55 100 74 164 8 26 19 47 24 47 6 0 10 5 10 10 0 7
-147 10 -420 10 -311 0 -420 -3 -420 -12z"/>
<path d="M6240 5756 c0 -118 -4 -226 -10 -240 l-10 -26 176 0 c183 0 244 9
335 49 42 19 142 108 200 178 31 37 89 146 89 165 0 8 9 30 19 51 l19 37 -409
0 -409 0 0 -214z"/>
<path d="M7930 5720 c0 -137 -5 -273 -11 -302 -16 -79 -59 -208 -70 -208 -5 0
-14 -12 -20 -27 -15 -40 -65 -117 -105 -161 -74 -81 -168 -172 -179 -172 -4 0
-26 -13 -50 -30 -24 -16 -48 -30 -54 -30 -6 0 -11 -4 -11 -9 0 -19 -162 -75
-275 -94 -35 -6 -403 -13 -893 -16 l-834 -6 -13 -32 c-12 -29 -11 -36 10 -80
46 -92 56 -132 44 -175 -5 -21 -19 -47 -30 -56 -10 -9 -19 -22 -19 -28 0 -6
-7 -17 -15 -24 -12 -10 -15 -39 -15 -141 l0 -129 70 0 c40 0 70 -4 70 -10 0
-5 6 -10 14 -10 24 0 66 -40 86 -83 15 -30 20 -61 20 -119 0 -45 -4 -78 -10
-78 -5 0 -10 -9 -10 -21 0 -11 -18 -39 -40 -62 -40 -40 -41 -41 -125 -45 l-85
-5 2 -615 3 -616 1465 1 c1115 0 1474 3 1502 12 47 15 130 97 160 157 12 26
28 49 35 51 7 3 17 19 22 36 5 18 23 70 40 117 17 47 31 92 31 102 0 9 4 18 9
20 12 4 46 170 68 333 17 119 18 235 18 1420 0 710 -4 1311 -8 1338 l-8 47
-395 0 -394 0 0 -250z m479 37 l35 -67 -23 -38 c-12 -20 -28 -49 -34 -64 -11
-27 -13 -28 -92 -28 l-80 0 -25 51 c-14 28 -31 54 -37 56 -15 6 -18 43 -4 43
5 0 19 21 32 48 35 74 34 73 118 70 l76 -3 34 -68z m111 -1634 c14 -26 31 -54
38 -61 6 -7 12 -20 12 -27 0 -8 -6 -18 -12 -22 -7 -4 -24 -30 -37 -56 l-24
-48 -81 3 -81 3 -33 63 c-36 70 -38 57 21 160 18 32 19 32 96 32 l76 0 25 -47z
m-2097 -447 c10 -21 27 -47 38 -59 25 -27 24 -36 -7 -72 -14 -16 -32 -45 -39
-62 l-14 -33 -79 0 -79 0 -31 63 c-18 35 -32 68 -32 74 0 5 14 38 32 72 l32
62 80 -3 81 -3 18 -39z m1101 -852 c9 -8 16 -22 16 -30 0 -8 4 -14 8 -14 5 0
18 -17 30 -38 l21 -39 -21 -39 c-11 -21 -25 -41 -30 -43 -5 -2 -13 -14 -18
-27 -9 -22 -15 -24 -86 -24 -67 0 -76 2 -81 20 -3 11 -9 20 -14 20 -11 0 -49
74 -49 95 0 18 37 88 60 116 21 24 141 26 164 3z"/>
<path d="M248 5812 c-32 -19 -36 -51 -10 -75 23 -21 151 -24 170 -5 20 20 14
65 -10 82 -30 21 -115 20 -150 -2z"/>
<path d="M243 5665 c-29 -31 -29 -40 2 -70 20 -21 34 -25 86 -25 47 0 65 4 75
18 19 24 17 55 -5 80 -15 18 -29 22 -77 21 -49 0 -63 -4 -81 -24z"/>
<path d="M242 5521 c-52 -45 -10 -91 84 -91 69 0 94 15 94 55 0 40 -25 55 -94
55 -47 0 -68 -5 -84 -19z"/>
<path d="M670 4955 l0 -35 155 0 155 0 0 35 0 35 -155 0 -155 0 0 -35z"/>
<path d="M674 4843 l3 -28 152 -3 151 -3 0 31 0 30 -154 0 -155 0 3 -27z"/>
<path d="M676 4733 l1 -28 151 -3 152 -3 0 31 0 30 -153 0 -153 0 2 -27z"/>
<path d="M672 4623 l3 -28 153 -3 152 -3 0 31 0 30 -156 0 -155 0 3 -27z"/>
<path d="M675 4513 c2 -16 4 -31 4 -35 1 -5 69 -8 151 -8 l150 0 0 35 0 35
-154 0 -155 0 4 -27z"/>
<path d="M679 4435 c0 -3 -1 -19 -2 -36 l-1 -30 150 0 149 0 3 35 3 36 -150 0
c-83 0 -151 -2 -152 -5z"/>
<path d="M677 4323 c-4 -3 -7 -19 -7 -35 l0 -28 155 0 155 0 0 35 0 35 -148 0
c-82 0 -152 -3 -155 -7z"/>
<path d="M678 4213 c0 -5 -2 -20 -2 -35 l-2 -28 153 0 153 0 0 35 0 35 -150 0
c-82 0 -151 -3 -152 -7z"/>
<path d="M678 4075 l-4 -35 153 0 153 0 0 35 0 35 -149 0 -149 0 -4 -35z"/>
<path d="M670 3965 l0 -35 155 0 155 0 0 35 0 35 -155 0 -155 0 0 -35z"/>
<path d="M4540 3959 c-62 -25 -90 -80 -90 -178 0 -75 19 -123 63 -155 28 -21
39 -21 496 -21 l468 0 41 29 c49 33 65 73 64 160 -1 83 -12 108 -68 145 l-47
31 -451 -1 c-273 0 -461 -4 -476 -10z"/>
<path d="M4660 2540 c0 -875 2 -1011 16 -1078 15 -72 50 -170 64 -182 4 -3 21
-32 39 -65 18 -33 45 -73 59 -89 69 -76 196 -196 207 -196 6 0 24 -11 39 -25
29 -26 79 -51 201 -98 l80 -31 1748 -3 1747 -3 0 320 0 320 -1499 0 c-1463 0
-1592 2 -1691 31 -55 16 -110 41 -110 51 0 4 -6 8 -13 8 -16 0 -120 76 -127
93 -3 7 -17 31 -32 54 -16 24 -28 49 -28 57 0 8 -7 21 -15 30 -8 8 -23 43 -32
78 -15 56 -17 151 -20 896 l-4 832 -314 0 -315 0 0 -1000z"/>
<path d="M253 3244 c-38 -19 -45 -58 -15 -80 22 -17 144 -18 160 -2 7 7 12 27
12 45 0 27 -5 35 -26 43 -37 15 -95 12 -131 -6z"/>
<path d="M253 3113 c-7 -2 -13 -11 -13 -19 0 -8 -4 -14 -10 -14 -17 0 -11 -36
8 -53 22 -20 141 -24 160 -5 20 20 15 76 -7 88 -20 10 -115 13 -138 3z"/>
<path d="M242 2951 c-27 -23 -28 -41 -2 -69 17 -18 32 -22 83 -22 72 0 87 10
87 57 0 41 -21 53 -93 53 -38 0 -60 -5 -75 -19z"/>
<path d="M2495 2183 c13 -37 31 -73 40 -79 8 -6 15 -15 15 -20 0 -15 84 -128
114 -154 17 -14 39 -34 50 -46 22 -22 118 -84 130 -84 4 0 14 -7 22 -15 30
-29 147 -55 294 -65 214 -15 1399 -58 1413 -52 4 2 7 133 7 293 l0 289 -1055
0 -1055 0 25 -67z"/>
<path d="M5395 2178 c12 -142 37 -323 44 -328 4 -3 15 -36 24 -75 10 -38 25
-81 35 -95 19 -26 115 -79 144 -80 9 0 18 -4 20 -10 2 -5 50 -17 108 -26 96
-15 153 -16 660 -5 526 12 598 15 610 30 3 4 79 27 170 51 91 24 170 46 175
51 6 4 46 17 90 29 124 33 205 62 205 71 0 5 5 9 11 9 25 0 176 79 209 108 19
18 39 32 45 32 6 0 39 31 74 69 63 70 120 161 121 194 0 9 4 17 9 17 5 0 11 7
15 15 5 13 -153 15 -1385 15 l-1391 0 7 -72z"/>
</g>
</svg>
