<?xml version="1.0" standalone="no"?>
<!DOCTYPE svg PUBLIC "-//W3C//DTD SVG 20010904//EN"
 "http://www.w3.org/TR/2001/REC-SVG-20010904/DTD/svg10.dtd">
<svg version="1.0" xmlns="http://www.w3.org/2000/svg"
 width="920.000000pt" height="1302.000000pt" viewBox="0 0 920.000000 1302.000000"
 preserveAspectRatio="xMidYMid meet">

<g transform="translate(0.000000,1302.000000) scale(0.100000,-0.100000)"
fill="#000000" stroke="none">
<path d="M2640 9211 c0 -6 -6 -11 -13 -11 -21 0 -77 -30 -77 -41 0 -5 -8 -9
-18 -9 -10 0 -24 -9 -32 -20 -8 -11 -20 -20 -27 -20 -7 0 -27 -13 -45 -30 -17
-16 -37 -30 -44 -30 -7 0 -15 -9 -19 -19 -3 -11 -22 -27 -42 -36 -20 -10 -46
-26 -57 -36 -11 -11 -24 -19 -29 -19 -11 0 -47 -39 -47 -52 0 -4 -7 -8 -15 -8
-9 0 -31 -16 -51 -35 -19 -19 -42 -35 -50 -35 -16 0 -74 -55 -74 -69 0 -4 -12
-14 -27 -22 -15 -8 -47 -33 -71 -56 -23 -24 -47 -43 -52 -43 -6 0 -42 -31 -81
-70 -39 -38 -75 -70 -80 -70 -5 0 -59 -49 -120 -110 -62 -60 -116 -110 -120
-110 -12 0 -399 -388 -399 -399 0 -5 -52 -61 -115 -125 -63 -64 -115 -120
-115 -125 0 -7 -31 -40 -72 -78 -22 -20 -38 -42 -38 -51 0 -5 -24 -34 -52 -64
-29 -30 -62 -67 -73 -83 -11 -15 -26 -33 -33 -40 -6 -8 -12 -18 -12 -23 0 -5
-19 -30 -43 -55 -85 -92 -97 -108 -97 -121 0 -8 -5 -16 -10 -18 -17 -5 -17
-102 0 -134 8 -16 38 -50 65 -76 28 -26 63 -61 79 -77 92 -92 145 -145 173
-173 17 -18 38 -43 45 -58 7 -14 30 -41 51 -60 21 -19 57 -54 80 -78 23 -23
61 -61 85 -85 62 -62 120 -120 182 -183 30 -30 74 -74 97 -97 24 -23 43 -50
43 -59 0 -10 7 -18 16 -18 9 0 18 -9 21 -20 3 -10 13 -22 22 -25 9 -3 36 -28
61 -56 25 -27 64 -69 88 -92 59 -59 173 -173 279 -279 35 -35 63 -70 63 -78 0
-9 10 -22 22 -30 11 -8 49 -43 82 -77 166 -170 190 -192 218 -194 50 -4 58 0
58 31 0 17 4 30 9 30 5 0 12 26 15 58 9 95 18 142 27 142 5 0 9 18 9 40 0 22
5 40 10 40 6 0 10 14 10 30 0 17 5 30 10 30 6 0 10 11 10 25 0 14 5 25 10 25
6 0 10 9 10 20 0 11 4 20 9 20 5 0 11 23 15 50 4 28 11 50 16 50 6 0 10 7 10
15 0 8 5 15 10 15 6 0 10 9 10 19 0 11 3 21 8 23 4 2 18 24 31 51 13 26 28 47
33 47 4 0 8 9 8 19 0 11 9 23 20 26 11 3 20 15 20 26 0 10 5 19 10 19 6 0 10
9 10 20 0 10 11 30 25 44 14 14 25 32 25 41 0 8 4 15 8 15 13 0 52 36 52 47 0
5 14 25 32 44 l32 36 63 -61 c34 -34 76 -74 93 -91 16 -16 55 -55 85 -85 30
-30 74 -74 97 -97 24 -24 67 -67 95 -95 66 -67 104 -105 171 -171 28 -28 71
-71 95 -95 54 -55 138 -138 179 -180 48 -48 98 -108 98 -119 0 -5 10 -15 21
-23 12 -8 40 -34 63 -57 42 -44 99 -101 174 -175 30 -29 42 -50 42 -70 0 -15
-5 -28 -10 -28 -6 0 -21 -9 -33 -20 -70 -64 -102 -90 -114 -90 -7 0 -13 -4
-13 -10 0 -12 -59 -70 -72 -70 -5 0 -14 -5 -21 -10 -55 -47 -74 -60 -84 -60
-6 0 -14 -8 -17 -18 -4 -11 -19 -25 -33 -33 -15 -8 -41 -26 -57 -41 -16 -16
-35 -28 -42 -28 -8 0 -14 -4 -14 -9 0 -5 -10 -13 -22 -17 -12 -3 -31 -15 -42
-25 -11 -11 -26 -19 -33 -19 -7 0 -13 -4 -13 -10 0 -5 -7 -10 -15 -10 -9 0
-25 -9 -37 -20 -12 -11 -28 -20 -35 -20 -7 0 -13 -4 -13 -10 0 -5 -7 -10 -15
-10 -8 0 -15 -4 -15 -10 0 -5 -9 -10 -20 -10 -11 0 -20 -4 -20 -10 0 -5 -22
-12 -50 -16 -27 -4 -50 -10 -50 -14 0 -4 -20 -14 -45 -21 -25 -7 -45 -17 -45
-21 0 -4 -18 -8 -40 -8 -22 0 -40 -4 -40 -10 0 -6 -32 -10 -75 -10 -43 0 -75
4 -75 10 0 6 -7 10 -16 10 -8 0 -22 6 -30 14 -15 16 -19 56 -5 56 18 0 21 33
6 56 -14 22 -82 91 -119 122 -21 17 -63 15 -70 -3 -4 -11 -13 -14 -33 -9 -16
4 -29 11 -31 16 -2 4 -12 8 -22 8 -10 0 -20 6 -23 13 -3 9 -12 9 -42 -2 -47
-16 -47 -17 -141 -111 -41 -41 -79 -79 -83 -84 -89 -88 -181 -180 -187 -187
-5 -5 -28 -27 -51 -48 -24 -22 -43 -44 -43 -50 0 -5 -114 -124 -252 -263 -139
-140 -259 -266 -267 -281 -8 -15 -18 -27 -23 -27 -4 0 -8 -25 -8 -55 0 -30 5
-55 10 -55 6 0 10 -9 10 -20 0 -11 5 -20 10 -20 6 0 10 -9 10 -20 0 -11 -3
-20 -8 -20 -4 0 -12 -10 -17 -23 -9 -19 -3 -29 40 -74 28 -28 61 -65 75 -82
29 -36 50 -39 75 -11 22 25 53 26 62 3 4 -10 11 -21 16 -24 5 -4 13 -38 19
-75 5 -38 13 -98 19 -134 5 -36 12 -89 15 -117 3 -29 10 -53 15 -53 5 0 9 -16
9 -35 0 -19 5 -35 10 -35 6 0 10 -13 10 -30 0 -16 5 -30 10 -30 6 0 10 -9 10
-20 0 -11 4 -20 8 -20 5 0 15 -19 23 -42 7 -24 21 -52 31 -62 10 -11 21 -34
24 -53 3 -18 10 -33 14 -33 12 0 50 -37 50 -49 0 -13 175 -191 188 -191 5 0
23 -13 40 -30 18 -16 36 -30 42 -30 5 0 15 -9 22 -20 7 -11 21 -20 30 -20 10
0 18 -4 18 -9 0 -5 18 -12 40 -16 22 -4 40 -11 40 -16 0 -5 9 -9 20 -9 11 0
20 -4 20 -10 0 -5 7 -10 15 -10 8 0 15 -4 15 -10 0 -5 14 -10 30 -10 17 0 30
-4 30 -9 0 -5 15 -11 33 -14 17 -3 55 -11 82 -18 28 -6 117 -14 198 -16 141
-4 150 -5 173 -28 24 -24 31 -45 17 -45 -5 0 -13 -12 -20 -26 -11 -25 -9 -29
50 -85 86 -82 105 -99 112 -99 3 0 15 9 27 20 23 21 48 27 48 10 0 -5 9 -10
19 -10 11 0 21 -5 23 -10 5 -15 101 -15 106 -1 2 6 10 11 18 11 8 0 22 6 30
12 31 26 184 185 184 191 0 7 98 110 222 234 29 29 72 72 95 95 24 24 62 62
85 85 56 55 108 112 108 116 0 2 29 34 66 73 92 98 118 124 161 164 21 20 44
46 51 58 14 26 16 102 2 102 -5 0 -10 7 -10 16 0 8 -7 22 -15 30 -18 19 -19
29 -2 46 23 23 27 47 11 60 -8 7 -44 41 -79 75 -36 35 -72 63 -81 63 -9 0 -25
-9 -35 -21 l-18 -21 -24 24 c-14 14 -30 35 -37 48 -15 28 -15 189 0 204 5 5
10 23 10 38 0 15 4 28 8 28 5 0 15 23 22 50 7 28 17 50 22 50 4 0 8 7 8 15 0
8 5 15 10 15 6 0 10 9 10 20 0 11 5 20 10 20 6 0 10 9 10 20 0 11 4 20 9 20 5
0 12 18 16 40 4 22 11 40 16 40 5 0 9 6 9 13 0 7 9 19 20 27 11 8 20 22 20 32
0 10 5 18 10 18 6 0 10 6 10 13 0 7 9 23 20 35 11 12 20 24 20 28 0 4 8 14 18
23 9 9 26 33 37 53 11 21 23 38 27 38 5 0 8 7 8 16 0 9 14 29 30 44 17 15 30
31 30 35 0 4 14 20 30 35 17 15 30 33 30 40 0 6 6 18 13 25 26 30 37 44 37 50
0 3 16 21 35 40 l34 35 46 -43 c25 -24 45 -48 45 -54 0 -5 11 -23 25 -39 14
-16 25 -33 25 -37 0 -5 13 -22 30 -37 16 -15 30 -32 30 -37 0 -5 9 -15 20 -23
11 -8 20 -22 20 -32 0 -10 4 -18 10 -18 5 0 13 -12 16 -27 4 -16 20 -40 36
-55 15 -14 28 -31 28 -37 0 -6 5 -11 10 -11 6 0 10 -8 10 -18 0 -10 9 -24 20
-32 11 -8 20 -22 20 -32 0 -10 5 -18 10 -18 6 0 10 -8 10 -18 0 -9 9 -23 20
-29 10 -7 22 -28 26 -48 3 -19 10 -38 15 -41 5 -3 9 -16 9 -30 0 -13 5 -24 10
-24 6 0 10 -9 10 -20 0 -11 4 -20 9 -20 5 0 15 -20 22 -45 7 -25 16 -45 20
-45 4 0 9 -15 12 -32 3 -18 11 -51 17 -73 18 -58 24 -155 11 -168 -6 -6 -11
-17 -11 -24 0 -8 -12 -26 -26 -40 l-26 -26 -28 22 c-36 26 -42 26 -65 1 -10
-11 -22 -20 -27 -20 -5 0 -29 -20 -54 -45 -24 -25 -49 -45 -54 -45 -21 0 -2
-63 25 -82 10 -7 -13 -58 -27 -58 -4 0 -8 -9 -8 -19 0 -11 -4 -23 -10 -26 -5
-3 -10 -15 -10 -26 0 -10 5 -19 10 -19 6 0 10 -7 10 -15 0 -22 21 -56 53 -85
16 -14 47 -44 70 -68 23 -23 66 -66 95 -95 28 -28 71 -71 95 -95 23 -23 79
-79 125 -124 45 -45 82 -88 82 -95 0 -7 20 -32 45 -55 25 -24 69 -67 98 -95
148 -149 217 -218 264 -265 83 -83 90 -88 136 -88 43 0 97 18 97 33 0 15 36 6
50 -13 18 -25 45 -25 73 0 104 94 127 120 127 144 0 14 -4 26 -9 26 -19 0 -21
33 -4 50 32 29 76 41 228 60 130 17 200 28 240 39 22 5 52 13 68 17 15 3 27
10 27 15 0 5 11 9 25 9 14 0 25 4 25 9 0 5 18 12 40 16 22 4 40 11 40 16 0 5
8 9 18 9 10 0 24 9 32 20 8 11 20 20 27 20 7 0 13 4 13 8 0 5 12 15 27 23 15
8 47 33 72 56 24 24 50 43 57 43 6 0 14 9 17 20 3 11 12 20 21 20 9 0 16 6 16
14 0 8 23 37 50 65 28 28 50 54 50 57 0 3 7 12 15 20 8 9 15 24 15 35 0 10 3
19 8 19 4 0 18 25 32 55 14 30 28 55 33 55 4 0 7 9 7 19 0 11 4 21 8 23 7 3
32 70 54 148 16 55 28 146 36 261 5 78 11 110 24 122 22 22 40 21 58 -3 21
-30 44 -25 84 20 20 22 38 40 41 40 13 0 75 71 75 86 0 9 -9 25 -20 34 -18 15
-19 21 -9 44 7 14 16 26 21 26 4 0 8 9 8 20 0 11 5 20 10 20 6 0 10 16 10 35
0 19 -4 35 -10 35 -5 0 -10 7 -10 15 0 13 -40 60 -100 119 -76 74 -170 172
-170 178 0 4 -124 131 -275 284 -151 152 -275 280 -275 285 0 8 -128 138 -162
164 -36 29 -76 37 -115 23 -21 -7 -44 -19 -51 -25 -18 -17 -37 -16 -56 2 -35
36 -68 17 -174 -99 -21 -24 -31 -76 -14 -76 4 0 13 -4 21 -9 11 -7 9 -14 -12
-35 -14 -14 -33 -26 -42 -26 -8 0 -15 -5 -15 -11 0 -7 -26 -9 -77 -6 -92 6
-153 16 -153 26 0 4 -20 13 -45 20 -25 7 -45 17 -45 21 0 5 -18 11 -40 15 -22
4 -40 11 -40 16 0 5 -9 9 -20 9 -11 0 -20 5 -20 10 0 6 -7 10 -15 10 -8 0 -15
5 -15 10 0 6 -8 10 -18 10 -10 0 -24 9 -32 20 -8 11 -22 20 -32 20 -10 0 -18
5 -18 10 0 6 -6 10 -13 10 -7 0 -23 9 -35 20 -12 11 -26 20 -31 20 -6 0 -21
11 -35 25 -14 14 -30 25 -37 25 -6 0 -24 14 -39 30 -15 17 -35 30 -44 30 -9 0
-16 4 -16 8 0 14 -36 52 -49 52 -12 0 -23 8 -64 45 -12 11 -34 26 -49 34 -16
8 -28 18 -28 22 0 13 -55 64 -90 83 -36 20 -90 72 -90 86 0 5 29 38 64 74 35
36 74 80 87 97 13 17 43 50 67 73 45 44 120 118 189 188 23 24 60 59 82 78 22
19 43 44 47 55 3 11 47 61 97 112 51 50 107 107 125 125 33 33 102 103 180
181 86 85 150 150 178 178 103 103 158 151 163 138 2 -7 26 -35 53 -61 26 -25
48 -51 48 -55 0 -5 9 -15 20 -23 11 -8 20 -22 20 -32 0 -10 4 -18 10 -18 5 0
13 -12 16 -27 4 -16 15 -35 26 -44 10 -9 18 -21 18 -28 0 -6 5 -11 10 -11 6 0
10 -7 10 -15 0 -9 9 -25 20 -37 11 -12 20 -28 20 -35 0 -7 5 -13 10 -13 6 0
10 -9 10 -20 0 -11 5 -20 10 -20 6 0 10 -7 10 -15 0 -8 5 -15 10 -15 6 0 10
-9 10 -20 0 -11 4 -20 9 -20 6 0 13 -21 17 -47 4 -27 10 -50 14 -53 8 -5 53
-132 72 -200 14 -50 28 -127 35 -182 3 -27 9 -48 14 -48 5 0 9 -9 9 -19 0 -43
63 -31 127 24 55 47 153 151 153 162 0 4 24 31 52 59 29 29 81 80 115 115 35
35 77 78 94 95 17 18 56 56 85 85 30 30 73 73 96 96 60 60 88 91 88 99 0 4 28
36 63 70 34 34 81 82 104 106 24 23 67 67 95 95 29 29 72 72 95 95 24 24 62
62 85 85 56 56 88 91 88 98 0 2 33 38 73 79 39 41 86 89 103 106 18 18 56 57
85 86 30 30 68 68 86 86 18 18 50 49 72 68 22 19 40 40 41 46 0 5 9 20 20 32
14 15 20 35 20 67 0 37 -6 51 -30 77 -16 17 -30 35 -30 40 0 6 -14 23 -30 38
-16 15 -30 31 -30 35 0 4 -14 20 -30 35 -16 15 -30 35 -30 44 0 8 -16 31 -35
50 -19 20 -35 38 -35 41 0 3 -22 28 -50 56 -27 28 -50 57 -50 65 0 7 -11 24
-25 36 -55 49 -85 81 -85 90 0 7 -48 61 -101 113 -60 59 -89 91 -89 98 0 9
-577 587 -587 587 -4 0 -16 9 -28 20 -11 10 -55 53 -97 95 -43 41 -80 75 -83
75 -8 0 -27 16 -78 65 -23 22 -55 46 -70 54 -15 8 -27 18 -27 22 0 14 -58 69
-74 69 -8 0 -31 16 -50 35 -20 19 -39 35 -43 35 -4 0 -23 17 -43 38 -19 20
-52 46 -72 57 -21 11 -38 23 -38 27 0 5 -6 8 -14 8 -8 0 -24 13 -37 30 -13 16
-29 30 -35 30 -6 0 -25 14 -42 30 -18 17 -38 30 -45 30 -7 0 -19 9 -27 20 -8
11 -19 20 -25 20 -5 0 -23 8 -40 17 -37 20 -126 21 -150 2 -13 -11 -150 -147
-191 -190 -5 -5 -28 -27 -51 -48 -24 -22 -43 -44 -43 -49 0 -5 -115 -125 -255
-266 -140 -141 -255 -260 -255 -264 0 -5 -180 -191 -282 -290 -90 -88 -248
-253 -248 -259 0 -4 -27 -35 -60 -68 -55 -56 -186 -186 -232 -233 -55 -54
-108 -112 -108 -117 0 -3 -10 -19 -21 -35 l-22 -28 25 -25 c20 -20 39 -26 89
-31 139 -12 179 -18 179 -27 0 -5 16 -9 35 -9 19 0 35 -4 35 -10 0 -5 10 -10
23 -10 12 0 53 -11 91 -25 38 -14 80 -25 92 -25 13 0 24 -4 24 -10 0 -5 9 -10
20 -10 11 0 20 -4 20 -10 0 -5 6 -10 14 -10 19 0 136 -62 136 -72 0 -4 9 -8
20 -8 11 0 20 -4 20 -10 0 -5 9 -10 20 -10 11 0 20 -4 20 -9 0 -5 11 -12 25
-15 14 -4 25 -11 25 -16 0 -6 8 -10 18 -10 10 0 24 -9 32 -20 8 -11 20 -20 28
-20 7 0 24 -10 37 -22 13 -13 43 -41 67 -62 l45 -40 -51 -53 c-83 -87 -113
-116 -165 -163 -28 -25 -50 -52 -51 -60 0 -8 -15 -29 -33 -47 -50 -50 -160
-160 -184 -185 -12 -13 -35 -34 -52 -48 -17 -14 -31 -29 -31 -35 0 -10 -52
-73 -89 -109 -18 -17 -164 -163 -179 -178 -4 -4 -44 -43 -89 -87 -46 -44 -83
-87 -83 -96 0 -8 -4 -15 -10 -15 -5 0 -29 -21 -52 -46 -71 -77 -192 -194 -200
-194 -7 0 -47 35 -92 79 -6 7 -45 46 -86 87 -41 41 -79 79 -84 83 -99 100
-180 181 -187 187 -36 35 -139 150 -139 156 0 4 -7 8 -15 8 -9 0 -19 8 -22 18
-11 27 -6 21 -174 188 -49 49 -149 156 -149 160 0 8 -93 104 -202 211 -18 17
-51 53 -73 79 -22 26 -46 53 -53 60 -11 12 -11 17 2 29 8 8 20 15 26 15 7 0
25 14 40 30 15 17 32 30 37 30 5 0 15 9 23 20 8 11 21 20 29 20 7 0 21 8 30
18 9 11 28 22 44 26 15 3 27 11 27 16 0 6 7 10 15 10 8 0 15 5 15 10 0 6 9 10
20 10 11 0 20 5 20 10 0 6 9 10 20 10 11 0 20 5 20 10 0 6 9 10 20 10 11 0 20
5 20 10 0 6 9 10 20 10 11 0 20 5 20 10 0 6 7 10 15 10 8 0 15 5 15 10 0 6 9
10 19 10 11 0 22 4 25 9 3 4 24 11 47 15 23 4 47 10 53 14 21 13 81 32 104 32
12 0 22 5 22 10 0 6 16 10 35 10 19 0 35 4 35 9 0 5 21 12 48 15 26 4 79 10
117 15 118 15 125 18 125 57 0 19 -4 34 -8 34 -5 0 -15 12 -23 27 -13 26 -44
63 -97 115 -24 25 -157 158 -190 190 -11 11 -39 39 -63 63 -59 56 -129 132
-129 140 0 4 -101 111 -160 169 -168 165 -350 350 -350 357 0 5 -124 133 -275
285 -151 152 -275 280 -275 285 0 16 -159 169 -175 169 -8 0 -15 4 -15 9 0 5
-10 11 -22 14 -13 2 -31 8 -40 12 -11 4 -18 3 -18 -4z m80 -237 c0 -10 -28
-34 -40 -34 -7 0 -25 -13 -40 -30 -15 -16 -34 -30 -40 -30 -14 0 -50 -38 -50
-52 0 -4 -9 -8 -20 -8 -10 0 -35 -16 -54 -35 -20 -19 -40 -35 -47 -35 -13 0
-69 -58 -69 -71 0 -5 -7 -9 -15 -9 -9 0 -27 -10 -40 -22 -42 -39 -54 -48 -67
-48 -8 0 -20 -10 -28 -21 -26 -37 -88 -99 -100 -99 -17 0 -78 -56 -130 -119
-14 -17 -31 -31 -38 -31 -11 0 -38 -23 -93 -76 -5 -5 -31 -33 -58 -61 -27 -29
-55 -53 -61 -53 -9 0 -33 -18 -71 -56 -5 -5 -31 -33 -58 -61 -27 -29 -55 -53
-61 -53 -16 0 -400 -388 -400 -404 0 -8 -9 -17 -19 -21 -11 -3 -23 -15 -26
-26 -4 -10 -11 -19 -16 -19 -5 0 -9 -7 -9 -16 0 -8 -18 -33 -40 -54 -22 -21
-40 -41 -40 -45 0 -4 -13 -19 -28 -33 -16 -15 -32 -39 -36 -54 -3 -16 -11 -28
-16 -28 -6 0 -10 -8 -10 -18 0 -10 -9 -24 -20 -32 -11 -8 -20 -18 -20 -23 0
-5 -13 -22 -30 -37 -16 -15 -30 -34 -30 -42 0 -7 -9 -20 -20 -28 -11 -8 -20
-22 -20 -32 0 -10 -4 -18 -9 -18 -5 0 -12 -11 -15 -25 -4 -14 -11 -25 -16 -25
-6 0 -10 -8 -10 -18 0 -10 -9 -24 -20 -32 -11 -8 -20 -22 -20 -32 0 -11 -7
-18 -20 -18 -17 0 -20 7 -20 50 0 28 5 50 10 50 6 0 10 16 10 35 0 19 5 35 10
35 6 0 10 14 10 30 0 17 5 30 10 30 6 0 10 9 10 20 0 11 5 20 10 20 6 0 10 7
10 15 0 8 5 15 10 15 6 0 10 9 10 19 0 11 7 26 15 35 8 8 15 21 15 28 0 8 9
20 20 28 11 8 20 21 20 30 0 9 9 22 20 30 11 8 20 18 20 23 0 5 18 26 40 47
22 21 40 45 40 54 0 16 31 50 69 76 11 8 21 20 21 27 0 12 38 55 108 125 11
11 53 54 95 95 41 41 79 80 85 85 5 6 44 43 86 84 42 41 76 79 76 84 0 6 7 10
15 10 19 0 28 7 110 88 36 34 67 62 70 62 6 0 31 22 100 88 24 23 51 42 60 42
8 0 15 4 15 9 0 16 78 91 94 91 8 0 31 16 50 35 20 19 38 35 42 35 3 0 19 14
34 30 15 17 33 30 39 30 7 0 23 11 37 25 14 14 34 25 44 25 11 0 20 4 20 8 0
14 36 52 50 52 6 0 25 14 40 30 15 17 34 30 42 30 7 0 20 9 28 20 8 11 20 20
27 20 7 0 13 4 13 10 0 5 12 13 28 16 15 4 34 15 43 26 9 10 24 18 33 18 9 0
16 5 16 10 0 6 9 10 20 10 11 0 20 5 20 10 0 6 6 10 13 10 7 0 19 9 27 20 8
11 22 20 32 20 10 0 18 5 18 10 0 6 14 10 30 10 17 0 30 5 30 10 0 6 5 10 10
10 6 0 10 -3 10 -6z m3860 -24 c0 -5 23 -10 50 -10 28 0 50 -4 50 -10 0 -5 11
-10 25 -10 14 0 25 -4 25 -10 0 -5 9 -10 20 -10 11 0 20 -4 20 -10 0 -5 9 -10
20 -10 11 0 20 -4 20 -10 0 -5 9 -10 20 -10 11 0 20 -4 20 -10 0 -5 9 -10 20
-10 11 0 20 -4 20 -9 0 -5 11 -12 25 -15 14 -4 25 -11 25 -16 0 -6 8 -10 18
-10 10 0 24 -9 32 -20 8 -11 21 -20 30 -20 9 0 22 -9 30 -20 8 -11 18 -20 23
-20 5 0 26 -18 47 -40 21 -22 45 -40 54 -40 8 0 31 -16 50 -35 20 -19 38 -35
41 -35 3 0 30 -24 60 -52 76 -74 103 -98 110 -98 4 0 98 -88 176 -166 121
-121 153 -154 181 -181 46 -44 58 -60 58 -75 1 -7 19 -29 41 -48 61 -53 189
-185 189 -195 0 -3 25 -30 55 -60 30 -31 55 -63 55 -71 0 -16 36 -54 79 -84
12 -8 21 -20 21 -28 0 -7 16 -28 35 -48 19 -19 35 -44 35 -54 0 -11 4 -20 8
-20 14 0 52 -36 52 -50 0 -6 14 -25 30 -40 17 -15 30 -34 30 -42 0 -7 9 -20
20 -28 11 -8 20 -20 20 -27 0 -7 4 -13 10 -13 5 0 13 -12 16 -27 4 -16 15 -35
26 -44 10 -9 18 -24 18 -33 0 -9 5 -16 10 -16 6 0 10 -9 10 -20 0 -11 5 -20
10 -20 6 0 10 -6 10 -14 0 -8 6 -16 13 -19 6 -2 9 -8 5 -12 -4 -4 -18 3 -31
16 -13 13 -34 31 -46 39 -11 8 -21 22 -21 32 0 9 -16 33 -35 52 -19 20 -35 42
-35 51 0 8 -4 15 -9 15 -16 0 -111 98 -111 114 0 15 -29 46 -109 116 -22 19
-40 41 -41 48 0 14 -13 31 -48 65 -20 20 -139 139 -188 188 -11 11 -46 45 -80
77 -33 32 -64 70 -68 85 -3 15 -11 27 -16 27 -5 0 -48 39 -94 86 -101 103 -77
79 -246 247 -77 75 -145 137 -153 137 -7 0 -19 9 -27 21 -30 43 -48 59 -63 59
-9 0 -27 11 -41 25 -14 14 -30 25 -37 25 -6 0 -24 14 -39 30 -15 17 -31 30
-35 30 -4 0 -19 13 -33 28 -15 16 -39 32 -54 36 -16 3 -28 11 -28 16 0 6 -9
10 -19 10 -11 0 -23 9 -26 20 -3 11 -14 20 -23 20 -10 0 -24 9 -32 20 -8 11
-21 20 -30 20 -9 0 -22 9 -30 20 -8 11 -22 20 -32 20 -10 0 -18 5 -18 10 0 6
-5 10 -11 10 -6 0 -17 7 -25 15 -9 8 -24 15 -35 15 -10 0 -19 5 -19 10 0 6 -8
10 -18 10 -10 0 -24 9 -32 20 -8 11 -22 20 -32 20 -10 0 -18 5 -18 10 0 6 -7
10 -15 10 -8 0 -15 5 -15 10 0 6 -9 10 -20 10 -11 0 -20 5 -20 10 0 6 16 10
35 10 19 0 35 5 35 10 0 6 5 10 10 10 6 0 10 -4 10 -10z m-130 -170 c0 -5 18
-10 40 -10 22 0 40 -4 40 -10 0 -5 7 -10 15 -10 8 0 15 -4 15 -10 0 -5 14 -10
30 -10 17 0 30 -4 30 -10 0 -5 8 -10 18 -10 10 0 24 -9 32 -20 8 -11 22 -20
32 -20 10 0 18 -4 18 -10 0 -5 7 -10 15 -10 8 0 15 -4 15 -10 0 -5 12 -13 28
-16 15 -4 34 -15 43 -26 9 -10 22 -18 29 -18 6 0 25 -13 40 -30 15 -16 31 -30
35 -30 4 0 20 -13 35 -30 15 -16 35 -30 44 -30 17 0 86 -65 86 -80 0 -6 7 -10
15 -10 9 0 40 -24 70 -52 76 -74 103 -98 110 -98 4 0 84 -75 149 -139 84 -85
176 -182 176 -186 0 -12 122 -138 179 -185 17 -14 31 -33 31 -42 0 -10 25 -42
55 -73 30 -30 55 -57 55 -60 0 -3 15 -21 33 -40 47 -50 57 -63 57 -76 0 -12
19 -31 59 -59 12 -8 21 -21 21 -28 0 -8 14 -27 30 -42 17 -15 30 -33 30 -40 0
-6 6 -18 13 -25 27 -31 37 -44 37 -51 0 -3 14 -19 30 -34 17 -15 30 -34 30
-42 0 -7 9 -20 20 -28 11 -8 20 -22 20 -32 0 -9 9 -20 20 -23 11 -3 20 -15 20
-25 0 -10 7 -25 15 -34 8 -8 15 -21 15 -29 0 -9 6 -17 13 -20 6 -2 9 -8 5 -12
-10 -10 -48 33 -48 53 0 15 -56 72 -71 72 -5 0 -9 7 -9 15 0 9 -20 36 -45 61
-25 24 -45 53 -45 64 0 11 -4 20 -10 20 -13 0 -170 157 -170 170 0 14 -456
470 -470 470 -6 0 -53 43 -105 95 -52 52 -100 95 -107 95 -8 0 -20 10 -28 21
-8 12 -25 31 -38 43 -26 24 -161 159 -179 178 -22 24 -42 38 -54 38 -6 0 -24
14 -39 30 -15 17 -35 30 -44 30 -9 0 -16 4 -16 8 0 14 -36 52 -50 52 -7 0 -20
8 -29 18 -9 11 -28 22 -43 26 -16 3 -28 11 -28 16 0 6 -9 10 -19 10 -11 0 -23
9 -26 20 -3 11 -14 20 -23 20 -10 0 -24 9 -32 20 -8 11 -22 20 -32 20 -10 0
-18 5 -18 10 0 6 -7 10 -16 10 -9 0 -24 8 -33 19 -9 10 -26 21 -38 25 -13 4
-23 12 -23 17 0 5 -9 9 -20 9 -11 0 -20 5 -20 10 0 6 -8 10 -18 10 -10 0 -24
9 -32 20 -8 11 -22 20 -32 20 -9 0 -20 9 -23 20 -3 11 -15 20 -26 20 -22 0
-24 5 -6 25 14 16 117 21 117 5z m-3700 -76 c0 -9 -28 -34 -37 -34 -5 0 -15
-9 -23 -20 -8 -11 -22 -20 -32 -20 -9 0 -33 -16 -52 -35 -20 -19 -38 -35 -42
-35 -3 0 -19 -13 -34 -30 -15 -16 -33 -30 -39 -30 -11 0 -21 -8 -86 -67 -13
-13 -27 -23 -30 -23 -3 0 -33 -27 -65 -60 -32 -33 -64 -60 -70 -60 -6 0 -54
-43 -105 -95 -52 -52 -99 -95 -105 -95 -14 0 -750 -736 -750 -751 0 -6 -18
-28 -40 -49 -22 -21 -40 -44 -40 -50 0 -7 -13 -25 -30 -40 -16 -15 -30 -31
-30 -35 0 -4 -8 -15 -18 -24 -11 -9 -22 -28 -26 -43 -3 -16 -11 -28 -16 -28
-6 0 -10 -7 -10 -16 0 -17 -36 -54 -52 -54 -4 0 -8 -8 -8 -18 0 -10 -9 -24
-20 -32 -11 -8 -20 -21 -20 -29 0 -7 -8 -21 -18 -30 -11 -9 -22 -28 -26 -43
-3 -16 -11 -28 -16 -28 -6 0 -10 -6 -10 -13 0 -7 -9 -19 -20 -27 -11 -8 -20
-20 -20 -28 0 -12 -43 -62 -55 -62 -3 0 -5 34 -5 75 0 43 4 75 10 75 6 0 10
14 10 30 0 17 5 30 10 30 6 0 10 14 10 30 0 17 5 30 10 30 6 0 10 9 10 19 0
11 9 23 20 26 11 3 20 15 20 26 0 10 5 19 10 19 6 0 10 9 10 19 0 11 7 26 15
35 8 8 15 20 15 27 0 13 38 49 52 49 4 0 8 7 8 16 0 8 18 33 40 54 22 21 40
45 40 54 0 15 22 39 79 86 17 14 31 31 31 38 0 10 86 101 266 283 73 73 126
119 137 119 7 0 19 10 27 21 8 12 21 27 28 33 7 6 38 35 67 64 30 28 60 52 68
52 7 0 19 10 27 21 27 39 83 89 100 89 7 0 29 18 50 40 21 22 41 40 45 40 3 0
21 16 41 35 19 19 42 35 50 35 9 0 29 14 44 30 15 17 31 30 35 30 4 0 20 14
35 30 15 17 33 30 40 30 7 0 25 14 40 30 15 17 35 30 43 30 8 0 23 11 33 25
10 14 26 25 34 25 9 0 22 9 30 20 8 11 21 20 30 20 9 0 22 9 30 20 8 11 22 20
32 20 9 0 19 9 23 19 4 13 19 22 44 26 20 3 44 15 51 26 8 10 22 19 32 19 10
0 18 5 18 10 0 6 7 10 15 10 8 0 15 5 15 10 0 6 5 10 10 10 6 0 10 -3 10 -6z
m3588 -93 c2 -6 9 -11 16 -11 6 0 18 -9 26 -20 8 -11 21 -20 30 -20 9 0 22 -9
30 -20 8 -11 21 -20 28 -20 8 0 26 -13 41 -29 14 -15 36 -31 49 -35 12 -4 22
-12 22 -17 0 -5 8 -9 18 -9 10 0 24 -9 32 -20 8 -11 21 -20 28 -20 8 0 27 -13
42 -30 15 -16 31 -30 35 -30 4 0 20 -13 35 -30 15 -16 35 -30 44 -30 8 0 26
-11 40 -25 14 -14 32 -25 41 -25 8 0 15 -4 15 -9 0 -13 56 -71 69 -71 7 0 23
-10 36 -22 36 -34 53 -48 60 -48 3 0 33 -27 65 -60 32 -33 64 -60 70 -60 6 0
49 -38 95 -85 46 -47 89 -85 94 -85 11 0 401 -385 401 -395 0 -8 18 -29 88
-100 34 -36 62 -71 62 -79 0 -8 9 -18 20 -21 11 -3 20 -10 20 -15 0 -5 11 -20
25 -34 14 -14 25 -30 25 -36 0 -7 18 -29 40 -50 22 -21 40 -41 40 -45 0 -4 13
-19 29 -34 17 -16 32 -43 36 -64 4 -20 11 -37 16 -37 5 0 9 -11 9 -25 0 -14 5
-25 10 -25 6 0 10 -22 10 -50 0 -27 -4 -50 -10 -50 -5 0 -10 -13 -10 -30 0
-16 -4 -30 -9 -30 -5 0 -13 -15 -17 -32 -3 -18 -15 -40 -25 -49 -11 -9 -19
-23 -19 -30 -1 -8 -19 -30 -41 -49 -22 -19 -54 -50 -72 -68 -44 -44 -130 -130
-169 -169 -45 -44 -58 -60 -58 -74 0 -6 -13 -24 -30 -39 -16 -15 -30 -32 -30
-37 0 -5 -9 -15 -20 -23 -11 -8 -20 -22 -20 -32 0 -10 -4 -18 -10 -18 -5 0
-10 -7 -10 -16 0 -9 -8 -24 -19 -33 -10 -9 -21 -30 -25 -47 -4 -16 -16 -36
-26 -44 -11 -8 -20 -21 -20 -30 0 -9 -9 -22 -20 -30 -11 -8 -20 -21 -20 -28 0
-12 -23 -37 -76 -81 -7 -6 -18 -11 -24 -11 -5 0 -10 -4 -10 -10 0 -5 -9 -10
-20 -10 -11 0 -20 -4 -20 -10 0 -6 -32 -10 -75 -10 -43 0 -75 4 -75 10 0 6 -9
10 -20 10 -11 0 -20 5 -20 10 0 6 -7 10 -15 10 -18 0 -31 10 -78 57 -46 46
-57 60 -57 75 0 8 -9 20 -20 28 -11 8 -20 22 -20 32 0 9 -9 20 -20 23 -11 3
-20 15 -20 26 0 10 -4 19 -10 19 -5 0 -10 9 -10 20 0 11 -4 20 -10 20 -5 0
-10 9 -10 20 0 11 -4 20 -9 20 -5 0 -12 16 -15 35 -4 19 -11 35 -16 35 -6 0
-10 9 -10 20 0 11 -4 20 -10 20 -5 0 -10 9 -10 20 0 11 -4 20 -10 20 -5 0 -10
9 -10 20 0 11 -4 20 -10 20 -5 0 -10 9 -10 19 0 11 -9 23 -20 26 -11 3 -20 14
-20 23 0 10 -9 24 -20 32 -11 8 -20 20 -20 28 0 7 -7 20 -15 28 -8 9 -15 24
-15 35 0 10 -4 19 -9 19 -14 0 -91 76 -91 90 0 9 -31 45 -79 94 -85 83 -162
156 -166 156 -7 0 -26 16 -70 58 -19 17 -39 32 -46 32 -6 0 -24 14 -39 30 -15
17 -32 30 -37 30 -5 0 -15 9 -23 20 -8 11 -22 20 -31 20 -10 0 -19 4 -21 8 -1
5 -16 12 -31 16 l-29 7 26 -26 c14 -14 31 -25 38 -25 7 0 24 -14 38 -31 54
-64 78 -89 89 -89 18 0 84 -62 161 -149 19 -22 43 -43 53 -46 9 -4 17 -13 17
-21 0 -8 19 -34 43 -59 59 -62 67 -72 67 -90 0 -8 4 -15 8 -15 14 0 52 -36 52
-50 0 -7 10 -21 22 -31 11 -11 19 -22 15 -25 -3 -3 -87 75 -186 175 -100 100
-186 181 -192 181 -6 0 -28 18 -49 40 -21 22 -43 40 -50 40 -6 0 -21 11 -34
25 -13 14 -29 25 -36 25 -6 0 -25 14 -40 30 -15 17 -34 30 -42 30 -7 0 -20 9
-28 20 -8 11 -19 20 -25 20 -6 0 -17 9 -25 20 -8 11 -22 20 -32 20 -10 0 -18
5 -18 10 0 6 -9 10 -19 10 -11 0 -26 7 -35 15 -8 8 -21 15 -30 15 -8 0 -18 9
-21 20 -3 11 -15 20 -26 20 -10 0 -19 5 -19 10 0 6 -9 10 -20 10 -11 0 -20 5
-20 10 0 6 -9 10 -20 10 -11 0 -20 5 -20 10 0 6 -9 10 -20 10 -11 0 -20 5 -20
10 0 6 -7 10 -15 10 -8 0 -15 4 -15 9 0 5 -17 12 -38 16 -21 3 -45 15 -52 26
-8 11 -26 19 -42 19 -15 0 -28 5 -28 10 0 6 -7 10 -15 10 -8 0 -15 5 -15 10 0
6 -9 10 -20 10 -11 0 -20 5 -20 10 0 6 -9 10 -20 10 -11 0 -20 5 -20 10 0 6
-13 10 -30 10 -16 0 -30 5 -30 10 0 6 -7 10 -15 10 -8 0 -15 5 -15 10 0 6 -9
10 -20 10 -11 0 -20 4 -20 9 0 5 -16 12 -36 16 -20 3 -43 13 -50 20 -16 16
-19 85 -4 85 6 0 10 7 10 16 0 17 36 54 52 54 4 0 8 7 8 16 0 8 18 33 40 54
22 21 40 45 40 54 0 8 10 24 23 36 87 79 107 100 107 110 0 6 11 23 25 38 33
35 30 32 103 101 34 33 62 65 62 71 0 12 570 584 591 594 22 9 143 -1 147 -13z
m-3428 -81 c0 -5 11 -10 25 -10 14 0 25 -4 25 -10 0 -5 9 -10 20 -10 11 0 20
-4 20 -10 0 -5 7 -10 16 -10 8 0 22 -7 30 -15 9 -8 24 -15 35 -15 10 0 19 -4
19 -10 0 -5 59 -68 130 -140 72 -71 130 -135 130 -141 0 -13 81 -89 96 -89 3
0 19 -13 34 -30 15 -16 34 -30 42 -30 7 0 20 -9 28 -20 8 -11 21 -20 30 -20 9
0 22 -9 30 -20 8 -11 20 -20 27 -20 7 0 13 -4 13 -10 0 -5 12 -13 28 -16 15
-4 34 -15 43 -26 9 -10 23 -18 30 -18 8 0 25 -14 39 -31 43 -53 90 -99 100
-99 6 0 10 -9 10 -20 0 -11 5 -20 10 -20 6 0 10 -35 10 -85 0 -50 -4 -85 -10
-85 -5 0 -10 -8 -10 -18 0 -10 -9 -24 -20 -32 -11 -8 -20 -20 -20 -27 0 -18
-54 -73 -71 -73 -8 0 -21 -9 -29 -20 -8 -11 -21 -20 -30 -20 -9 0 -22 -9 -30
-20 -8 -11 -22 -20 -32 -20 -10 0 -18 -4 -18 -10 0 -5 -7 -10 -15 -10 -8 0
-15 -4 -15 -10 0 -5 -9 -10 -20 -10 -11 0 -20 -4 -20 -10 0 -5 -9 -10 -20 -10
-11 0 -20 -4 -20 -10 0 -5 -9 -10 -20 -10 -11 0 -20 -4 -20 -9 0 -6 -20 -13
-45 -17 -25 -3 -45 -10 -45 -15 0 -5 -9 -9 -20 -9 -11 0 -20 -4 -20 -10 0 -5
-9 -10 -20 -10 -11 0 -20 -4 -20 -10 0 -5 -9 -10 -20 -10 -11 0 -20 -4 -20
-10 0 -5 -6 -10 -13 -10 -7 0 -19 -9 -27 -20 -8 -11 -21 -20 -29 -20 -7 0 -21
-8 -30 -18 -9 -11 -28 -22 -43 -26 -16 -3 -28 -11 -28 -16 0 -6 -5 -10 -11
-10 -6 0 -28 -18 -49 -40 -21 -22 -43 -40 -49 -40 -7 0 -70 -57 -141 -127 -71
-71 -134 -133 -141 -139 -37 -38 -59 -64 -59 -74 0 -7 -18 -29 -40 -50 -22
-21 -40 -42 -40 -46 0 -3 -8 -14 -18 -23 -11 -9 -22 -29 -26 -44 -6 -27 -5
-27 38 15 24 24 58 54 75 68 17 14 31 31 31 38 0 15 9 27 68 88 23 24 50 44
58 44 15 0 57 41 114 109 14 17 31 31 38 31 13 0 26 9 67 48 13 12 31 22 39
22 8 0 18 9 21 20 3 11 14 20 23 20 10 0 24 9 32 20 8 11 22 20 31 20 10 0 19
6 22 13 2 6 8 9 12 5 8 -8 -39 -58 -56 -58 -6 0 -24 -15 -40 -32 -16 -18 -33
-37 -38 -42 -5 -4 -29 -28 -55 -52 -25 -24 -50 -44 -56 -44 -14 0 -60 -46 -60
-60 0 -7 -38 -49 -85 -95 -47 -46 -85 -89 -85 -95 0 -6 -11 -21 -25 -34 -14
-13 -25 -29 -25 -35 0 -7 -18 -30 -40 -51 -22 -21 -40 -45 -40 -54 0 -8 -9
-18 -20 -21 -11 -3 -20 -15 -20 -26 0 -10 -4 -19 -10 -19 -5 0 -13 -12 -16
-27 -4 -16 -15 -35 -26 -44 -10 -9 -18 -23 -18 -30 0 -8 -9 -21 -20 -29 -11
-8 -20 -20 -20 -27 0 -7 -4 -13 -10 -13 -5 0 -10 -8 -10 -18 0 -10 -9 -24 -20
-32 -11 -8 -20 -22 -20 -32 0 -10 -4 -18 -10 -18 -5 0 -10 -9 -10 -20 0 -11
-4 -20 -9 -20 -5 0 -12 -11 -15 -25 -4 -14 -11 -25 -16 -25 -6 0 -10 -9 -10
-20 0 -11 -4 -20 -10 -20 -5 0 -10 -9 -10 -20 0 -11 -4 -20 -10 -20 -5 0 -10
-9 -10 -20 0 -11 -4 -20 -10 -20 -5 0 -10 -7 -10 -15 0 -8 -4 -15 -10 -15 -5
0 -10 -9 -10 -20 0 -11 -4 -20 -10 -20 -5 0 -10 -9 -10 -20 0 -11 -4 -20 -10
-20 -5 0 -10 -9 -10 -20 0 -11 -4 -20 -9 -20 -5 0 -12 -19 -15 -43 -4 -26 -15
-49 -26 -57 -11 -8 -20 -22 -20 -32 0 -11 -7 -18 -20 -18 -11 0 -20 -4 -20
-10 0 -5 -9 -10 -20 -10 -11 0 -20 5 -20 10 0 6 -8 10 -18 10 -10 0 -24 9 -32
20 -8 11 -18 20 -22 20 -5 0 -24 15 -43 33 -19 17 -51 47 -70 65 -19 17 -37
32 -40 32 -3 0 -30 24 -60 53 -53 50 -79 76 -192 189 -29 29 -72 72 -95 95
-24 24 -62 62 -85 85 -24 24 -62 62 -85 85 -72 72 -128 132 -128 138 0 3 -24
30 -52 59 -29 30 -64 68 -78 85 -14 17 -33 33 -42 36 -10 4 -18 13 -18 21 0 9
-18 33 -40 54 -34 33 -40 45 -40 79 0 23 5 41 10 41 6 0 10 8 10 18 0 10 9 24
20 32 11 8 20 21 20 30 0 9 9 22 20 30 11 8 20 22 20 32 0 10 4 18 8 18 16 0
52 37 52 53 0 9 11 27 25 41 14 14 25 30 25 37 0 6 14 24 30 39 17 15 30 31
30 35 0 4 18 24 40 45 22 21 40 45 40 54 0 17 45 66 60 66 6 0 10 7 10 16 0 8
22 36 48 62 27 26 52 60 56 75 3 15 11 27 16 27 12 0 130 117 130 129 0 14
497 511 511 511 5 0 39 29 74 65 35 36 69 65 75 65 6 0 33 23 60 50 27 28 51
50 55 50 7 0 24 14 60 48 13 12 29 22 36 22 6 0 24 14 39 30 15 17 31 30 35
30 4 0 20 14 35 30 15 17 33 30 40 30 6 0 18 6 25 13 35 31 45 37 60 37 8 0
15 5 15 10 0 6 7 10 15 10 8 0 15 5 15 10 0 6 14 10 30 10 17 0 30 5 30 10 0
6 23 10 50 10 28 0 50 -4 50 -10z m5760 -1590 c0 -5 -4 -10 -10 -10 -5 0 -10
5 -10 10 0 6 5 10 10 10 6 0 10 -4 10 -10z m-2580 -240 c0 -11 5 -20 10 -20 6
0 10 -5 10 -10 0 -15 -47 -60 -62 -60 -8 0 -20 -10 -28 -22 -8 -11 -39 -44
-67 -72 -59 -57 -118 -115 -180 -178 -55 -57 -70 -68 -85 -68 -8 0 -20 -9 -28
-20 -8 -11 -20 -20 -27 -20 -7 0 -13 -4 -13 -10 0 -5 -7 -10 -16 -10 -9 0 -29
-13 -44 -30 -15 -16 -33 -30 -40 -30 -6 0 -27 -16 -46 -35 -18 -19 -38 -35
-44 -35 -13 0 -120 -106 -120 -120 0 -5 -87 -96 -192 -200 -106 -105 -196
-194 -200 -198 -4 -4 -167 -168 -363 -364 -195 -197 -359 -358 -365 -358 -5 0
-39 -29 -75 -65 -35 -36 -69 -65 -75 -65 -15 0 -73 -61 -65 -68 3 -4 9 -1 13
5 4 6 21 15 37 19 17 4 37 15 46 26 9 10 22 18 29 18 6 0 25 14 40 30 15 17
31 30 34 30 4 0 22 15 41 33 50 48 63 57 77 57 7 1 29 19 48 41 80 91 143 149
162 149 8 0 20 10 28 22 8 11 39 44 68 72 28 28 71 70 95 94 123 123 150 150
179 179 46 44 58 60 58 75 1 7 19 29 41 48 22 19 59 54 82 78 136 137 173 172
182 172 15 0 2 -40 -15 -45 -11 -3 -20 -13 -20 -21 0 -9 -22 -37 -50 -64 -27
-27 -50 -54 -50 -60 0 -6 -45 -56 -100 -110 -55 -55 -100 -104 -100 -110 0
-13 -527 -540 -540 -540 -5 0 -43 -34 -85 -75 -41 -41 -77 -75 -80 -75 -7 0
-25 -14 -60 -47 -13 -13 -29 -23 -35 -23 -7 0 -29 -18 -50 -40 -21 -22 -42
-40 -47 -40 -5 0 -15 -9 -23 -20 -8 -11 -22 -20 -32 -20 -10 0 -18 -4 -18 -10
0 -5 -12 -13 -27 -16 -16 -4 -35 -15 -44 -26 -9 -10 -20 -18 -25 -18 -5 0 -16
-9 -24 -20 -8 -11 -22 -20 -32 -20 -10 0 -18 -4 -18 -10 0 -5 -9 -10 -20 -10
-11 0 -20 -4 -20 -10 0 -5 -9 -10 -20 -10 -11 0 -20 -4 -20 -10 0 -5 -9 -10
-20 -10 -11 0 -20 -4 -20 -10 0 -5 -16 -12 -35 -16 -19 -3 -35 -10 -35 -15 0
-5 -9 -9 -20 -9 -11 0 -20 -4 -20 -10 0 -5 -9 -10 -20 -10 -11 0 -20 -4 -20
-10 0 -5 -7 -10 -15 -10 -8 0 -15 -4 -15 -10 0 -5 -9 -10 -20 -10 -11 0 -20
-4 -20 -10 0 -5 -13 -10 -30 -10 -16 0 -30 -4 -30 -10 0 -5 -13 -10 -30 -10
-16 0 -30 -4 -30 -10 0 -6 -27 -10 -60 -10 -51 0 -65 4 -85 25 -32 31 -31 35
5 35 17 0 30 5 30 10 0 6 14 10 30 10 17 0 30 5 30 10 0 6 7 10 15 10 8 0 15
5 15 10 0 6 14 10 30 10 17 0 30 4 30 9 0 5 18 12 40 16 22 4 40 11 40 16 0 5
9 9 20 9 11 0 20 5 20 10 0 6 7 10 15 10 8 0 15 5 15 10 0 6 8 10 18 10 10 0
24 9 32 20 8 11 21 20 30 20 9 0 22 9 30 20 8 11 20 20 27 20 7 0 13 5 13 10
0 6 9 10 20 10 10 0 30 11 44 25 14 14 31 25 38 25 8 0 20 9 28 20 8 11 22 20
32 20 10 0 18 4 18 8 0 14 36 52 49 52 7 0 23 10 36 23 42 39 54 47 70 47 8 0
15 4 15 9 0 14 97 111 110 111 17 0 26 9 139 128 33 34 65 62 71 62 11 0 31
15 53 38 7 7 45 46 86 87 40 40 78 77 83 83 6 5 48 49 94 96 46 47 89 86 94
86 5 0 13 12 16 27 4 15 39 58 78 95 39 38 75 72 80 77 4 5 41 43 82 85 41 42
79 76 84 76 6 0 10 7 10 15 0 19 9 30 87 108 102 101 123 122 179 181 30 31
59 56 64 56 6 0 10 9 10 20 0 13 7 20 20 20 13 0 20 7 20 20 0 18 57 79 149
160 22 19 43 43 46 53 4 9 13 17 21 17 18 0 81 57 193 178 28 28 55 52 61 52
6 0 18 6 26 13 38 31 64 59 64 67 0 6 18 10 40 10 33 0 40 -3 40 -20z m158
-147 c12 -12 13 -18 4 -21 -6 -2 -12 -17 -12 -33 0 -16 -4 -29 -10 -29 -5 0
-10 -5 -10 -10 0 -6 -11 -22 -25 -36 -14 -14 -25 -32 -25 -40 0 -9 -18 -33
-40 -54 -22 -21 -40 -41 -40 -44 0 -7 -54 -65 -128 -139 -40 -39 -111 -111
-180 -179 -70 -71 -142 -138 -147 -138 -6 0 -66 -56 -138 -128 -23 -23 -61
-61 -85 -85 -23 -23 -61 -61 -85 -84 -80 -81 -107 -113 -107 -127 0 -8 -8 -17
-17 -21 -10 -3 -38 -28 -63 -56 -43 -47 -62 -67 -183 -186 -28 -28 -63 -65
-77 -82 -14 -17 -33 -33 -42 -36 -10 -4 -18 -13 -18 -21 0 -13 -36 -56 -118
-137 -174 -173 -202 -202 -202 -212 0 -3 -28 -34 -62 -70 -84 -86 -108 -113
-108 -120 0 -3 -27 -33 -60 -65 -33 -32 -60 -64 -60 -70 0 -6 -16 -26 -35 -44
-19 -19 -35 -40 -35 -46 0 -6 -18 -29 -40 -50 -22 -21 -40 -45 -40 -54 0 -8
-9 -18 -20 -21 -11 -3 -20 -13 -20 -21 0 -14 -7 -24 -37 -59 -7 -7 -13 -20
-13 -27 0 -8 -9 -20 -20 -28 -11 -8 -20 -20 -20 -27 0 -7 -4 -13 -10 -13 -5 0
-10 -8 -10 -18 0 -10 -9 -24 -20 -32 -11 -8 -20 -22 -20 -32 0 -10 -4 -18 -10
-18 -5 0 -10 -9 -10 -20 0 -11 -4 -20 -9 -20 -5 0 -12 -16 -15 -35 -4 -19 -11
-35 -16 -35 -6 0 -10 -13 -10 -30 0 -16 -4 -30 -10 -30 -5 0 -10 -13 -10 -30
0 -16 -2 -30 -5 -30 -11 0 -55 49 -55 60 0 14 -77 90 -91 90 -16 0 -99 88 -99
105 0 8 -4 15 -10 15 -5 0 -10 9 -10 20 0 11 -4 20 -10 20 -5 0 -10 11 -10 25
0 14 -4 25 -10 25 -5 0 -10 14 -10 30 0 17 5 30 10 30 6 0 10 8 10 18 0 9 14
28 31 42 17 14 41 35 54 48 13 12 31 22 40 22 8 0 15 5 15 10 0 6 6 10 13 10
7 0 19 9 27 20 8 11 22 20 32 20 10 0 18 5 18 10 0 6 9 10 20 10 11 0 20 5 20
10 0 6 9 10 20 10 11 0 20 5 20 10 0 6 7 10 15 10 8 0 15 5 15 10 0 6 9 10 20
10 10 0 30 11 44 25 14 14 30 25 37 25 6 0 24 14 39 30 15 17 31 30 34 30 6 0
30 21 121 108 24 23 47 42 50 42 7 0 83 72 242 232 24 24 62 62 85 85 82 81
108 113 108 128 0 8 4 15 10 15 5 0 34 25 64 56 29 31 67 70 84 86 16 17 54
55 83 84 75 75 119 122 119 129 0 3 28 34 63 70 63 66 71 74 187 190 36 35 75
76 88 90 12 14 30 25 38 25 9 0 33 18 54 40 21 22 43 40 49 40 6 0 11 5 11 10
0 6 14 10 30 10 17 0 30 5 30 10 0 6 8 10 18 10 10 0 24 9 32 20 8 11 20 20
28 20 18 0 172 156 172 174 0 8 9 18 20 21 11 3 23 18 27 33 3 15 14 34 25 43
10 9 18 23 18 30 0 8 9 21 20 29 11 8 20 22 20 32 0 9 9 20 20 23 11 3 20 14
20 23 0 10 9 24 20 32 11 8 20 22 20 32 0 10 4 18 9 18 5 0 13 9 16 20 3 11
15 20 26 20 10 0 19 4 19 9 0 5 18 12 40 16 22 4 40 11 40 16 0 5 9 9 20 9 11
0 20 5 20 10 0 6 5 10 11 10 16 0 39 26 39 44 0 20 7 20 28 -1z m-3168 -13 c0
-5 6 -10 13 -10 7 0 19 -9 27 -20 8 -11 20 -20 28 -20 7 0 20 -6 28 -12 32
-27 100 -96 114 -117 8 -11 22 -21 32 -21 11 0 18 -7 18 -20 0 -11 4 -20 10
-20 5 0 33 -25 62 -55 99 -103 137 -140 167 -165 17 -14 31 -31 31 -38 0 -19
54 -78 119 -132 17 -14 31 -31 31 -38 0 -7 15 -28 33 -47 17 -19 41 -45 53
-57 12 -13 31 -30 43 -38 11 -8 21 -20 21 -27 0 -11 37 -55 98 -115 21 -21
180 -180 188 -189 5 -5 47 -45 93 -89 l83 -81 -22 -17 c-12 -9 -37 -32 -56
-50 l-34 -33 -195 196 c-107 107 -195 199 -195 205 0 6 -25 35 -55 65 -30 29
-55 59 -55 65 0 7 -13 25 -30 40 -16 15 -30 37 -30 49 0 12 -4 21 -10 21 -5 0
-10 14 -10 30 0 17 -4 30 -10 30 -5 0 -10 7 -10 15 0 15 -6 25 -37 60 -7 7
-13 16 -13 19 0 8 -128 136 -135 136 -3 0 -17 10 -30 23 -42 38 -54 47 -67 47
-8 0 -20 9 -28 20 -8 11 -21 20 -29 20 -14 0 -51 37 -51 52 0 4 -7 8 -16 8 -9
0 -28 13 -42 28 -15 16 -39 32 -54 36 -19 4 -28 13 -28 26 0 11 -4 20 -9 20
-5 0 -12 18 -16 40 -4 22 -11 40 -16 40 -5 0 -9 9 -9 20 0 11 -4 20 -10 20 -5
0 -10 5 -10 11 0 6 -13 24 -30 39 -16 15 -30 31 -30 34 0 3 18 6 40 6 22 0 40
-4 40 -10z m-160 -136 c0 -8 23 -37 50 -64 28 -27 50 -51 50 -55 0 -3 19 -25
43 -50 23 -24 58 -62 77 -84 19 -22 43 -43 53 -46 9 -4 17 -13 17 -21 0 -20
24 -44 43 -44 10 0 18 -14 22 -38 3 -21 15 -45 26 -52 10 -8 19 -20 19 -27 0
-7 5 -13 10 -13 6 0 10 -8 10 -18 0 -10 9 -24 20 -32 11 -8 20 -21 20 -28 0
-8 14 -27 30 -42 17 -15 30 -31 30 -34 0 -9 15 -27 68 -81 23 -25 42 -50 42
-58 0 -7 10 -19 21 -27 12 -8 31 -25 43 -38 12 -12 54 -56 95 -96 40 -41 82
-83 93 -94 79 -79 168 -173 168 -177 0 -8 18 -29 88 -100 34 -36 62 -69 62
-75 0 -13 -28 -13 -44 1 -54 45 -76 69 -76 83 0 8 -20 35 -45 58 -25 24 -64
62 -88 86 -23 23 -66 66 -95 95 -28 28 -71 71 -95 95 -149 149 -304 305 -359
359 -68 68 -88 91 -88 105 0 8 -10 20 -21 28 -21 14 -76 68 -126 124 -13 14
-23 32 -23 41 0 8 -4 15 -9 15 -14 0 -91 76 -91 90 0 6 -10 22 -22 35 -35 37
-48 54 -48 61 0 3 -15 20 -32 37 -21 19 -28 32 -20 34 6 3 12 13 12 24 0 12 7
19 20 19 11 0 20 5 20 10 0 6 7 10 15 10 8 0 15 -7 15 -16z m630 -54 c0 -5 13
-10 29 -10 16 0 32 -6 34 -12 4 -10 8 -9 16 2 7 10 11 11 11 3 0 -7 7 -13 16
-13 8 0 21 -6 28 -12 8 -7 23 -20 35 -28 11 -8 21 -22 21 -32 0 -10 5 -18 10
-18 6 0 10 -12 10 -26 0 -16 12 -37 30 -54 17 -16 33 -42 36 -59 4 -17 10 -31
15 -31 5 0 9 -9 9 -20 0 -11 5 -20 10 -20 6 0 10 -7 10 -16 0 -9 10 -25 22
-36 19 -16 20 -21 8 -28 -20 -13 -30 -12 -30 0 0 11 -13 27 -78 96 l-34 35 23
20 22 19 -29 -6 c-22 -4 -36 0 -54 17 -17 14 -21 23 -12 26 23 9 12 23 -18 23
-20 0 -30 5 -30 15 0 16 -8 28 -50 72 -16 17 -20 28 -12 31 14 4 17 32 3 32
-5 0 -11 -5 -13 -12 -3 -8 -14 -3 -31 14 -29 29 -33 38 -17 38 6 0 10 -4 10
-10z m2520 -340 c0 -30 -14 -41 -23 -17 -2 6 -8 9 -12 5 -5 -5 3 -18 16 -29
16 -15 20 -23 11 -26 -7 -3 -19 -12 -28 -20 -8 -8 -18 -12 -22 -8 -4 4 -1 10
5 12 10 4 9 8 -2 20 -20 20 -19 26 13 61 34 39 42 40 42 2z m-69 -57 c0 -5 2
-24 5 -43 6 -47 -3 -80 -22 -80 -9 0 -29 -13 -44 -30 -15 -16 -35 -30 -43 -30
-9 0 -17 -6 -19 -12 -6 -17 -38 14 -38 36 0 9 -4 16 -10 16 -5 0 -10 -2 -10
-4 0 -2 -3 -11 -6 -20 -4 -11 -1 -16 10 -16 9 0 16 -7 16 -16 0 -10 -6 -14
-14 -11 -10 4 -13 1 -9 -9 3 -8 -1 -14 -11 -14 -9 0 -16 5 -16 10 0 6 -4 10
-10 10 -5 0 -10 -7 -10 -15 0 -24 -46 -65 -72 -65 -13 0 -30 -9 -38 -21 -30
-43 -48 -59 -64 -59 -9 0 -16 -6 -16 -13 0 -7 -9 -19 -20 -27 -11 -8 -20 -20
-20 -28 0 -22 -26 -42 -54 -42 -14 0 -26 -4 -26 -10 0 -5 5 -10 10 -10 6 0 10
-4 10 -10 0 -15 -17 -12 -24 5 -8 21 3 45 20 45 14 0 84 63 84 75 0 13 50 55
65 55 8 0 15 9 15 20 0 11 7 20 15 20 8 0 15 5 15 10 0 6 9 10 20 10 13 0 20
7 20 18 0 10 10 24 21 32 30 20 85 76 93 92 5 10 7 10 12 1 7 -15 44 -17 44
-3 0 6 -4 10 -10 10 -5 0 -10 5 -10 10 0 6 9 10 20 10 22 0 27 16 8 22 -15 5
13 38 32 38 11 0 29 13 53 37 14 14 27 16 28 6z m-2051 -53 c15 -16 33 -30 39
-30 13 0 13 -3 5 -24 -9 -23 -24 -20 -24 4 0 11 -7 20 -15 20 -15 0 -65 42
-65 55 0 16 36 1 60 -25z m70 -68 c0 -10 9 -24 20 -32 11 -8 20 -25 20 -38 0
-18 4 -22 19 -17 21 6 81 -44 81 -69 0 -9 5 -16 10 -16 6 0 10 -9 10 -20 0
-11 -3 -20 -6 -20 -10 0 -34 28 -34 40 0 15 -25 40 -40 40 -10 0 -20 8 -85 68
-26 23 -30 38 -19 66 8 22 24 20 24 -2z m190 -211 c0 -11 6 -22 13 -24 9 -4 8
-8 -3 -17 -12 -9 -11 -10 8 -5 16 5 22 2 22 -9 0 -9 7 -16 15 -16 22 0 101
-82 109 -113 4 -18 13 -27 26 -27 11 0 20 -4 20 -9 0 -5 9 -13 20 -16 14 -4
20 -15 20 -36 0 -16 -4 -29 -10 -29 -5 0 -10 5 -10 10 0 6 -7 10 -16 10 -20 0
-49 29 -39 38 4 4 10 1 12 -5 6 -18 23 -16 23 2 0 8 -9 15 -20 15 -11 0 -20 6
-20 13 0 8 -3 7 -10 -3 -5 -8 -12 -11 -17 -7 -4 5 -1 12 6 17 12 7 12 11 -2
24 -8 9 -23 16 -31 16 -9 0 -16 7 -16 15 0 18 -64 85 -80 85 -6 0 -20 9 -32
19 -15 15 -19 27 -14 45 7 30 26 35 26 7z m-430 -121 c0 -5 9 -10 20 -10 11 0
20 -4 20 -10 0 -9 27 -37 125 -127 19 -18 39 -33 45 -33 5 0 10 -9 10 -20 0
-11 7 -20 15 -20 17 0 105 -84 105 -100 0 -5 8 -10 18 -10 10 0 24 -10 32 -21
8 -12 21 -28 28 -35 11 -12 11 -17 -2 -29 -8 -8 -17 -15 -20 -15 -6 0 -86 76
-160 149 -11 12 -53 54 -93 94 -40 39 -77 77 -84 83 -73 73 -98 114 -69 114 6
0 10 -4 10 -10z m1670 -80 c0 -5 -9 -10 -20 -10 -11 0 -20 5 -20 10 0 6 9 10
20 10 11 0 20 -4 20 -10z m-47 -37 c-7 -2 -13 -11 -13 -20 0 -19 -24 -43 -44
-43 -9 0 -16 -8 -16 -20 0 -11 -4 -20 -10 -20 -5 0 -10 5 -10 10 0 6 -4 10
-10 10 -5 0 -10 -9 -10 -20 0 -11 -7 -20 -15 -20 -10 0 -15 -10 -15 -29 0 -29
-19 -45 -42 -36 -7 3 -20 0 -28 -5 -13 -9 -13 -11 -1 -19 12 -8 12 -12 -2 -25
-19 -19 -44 -21 -50 -3 -2 6 -8 8 -13 4 -5 -4 -2 -12 5 -17 12 -7 12 -11 -2
-24 -8 -9 -21 -16 -27 -16 -7 0 -9 -9 -5 -22 5 -17 4 -19 -3 -9 -9 12 -13 11
-29 -4 -12 -13 -14 -20 -6 -22 8 -3 3 -14 -14 -31 -17 -17 -28 -22 -31 -14 -6
19 -22 14 -22 -8 0 -11 -4 -20 -10 -20 -5 0 -10 -7 -10 -15 0 -9 -12 -28 -26
-42 -21 -21 -28 -23 -36 -12 -7 10 -8 6 -5 -16 4 -24 -2 -36 -35 -68 -31 -30
-42 -36 -49 -26 -4 7 -12 10 -16 5 -4 -5 -2 -11 5 -13 18 -7 15 -43 -4 -43 -8
0 -23 -7 -31 -16 -14 -13 -14 -17 -2 -26 11 -7 11 -11 1 -15 -22 -9 -42 -34
-42 -54 0 -25 -28 -24 -51 2 -17 20 -19 20 -35 5 -9 -9 -13 -20 -10 -24 4 -3
11 0 16 7 7 12 11 12 24 -2 9 -8 16 -23 16 -31 0 -19 -36 -22 -43 -3 -2 7 -8
8 -13 3 -5 -5 -4 -11 4 -13 21 -8 14 -43 -8 -43 -22 0 -27 -15 -7 -24 10 -5
10 -7 0 -12 -7 -3 -13 -10 -13 -16 0 -15 -27 -38 -44 -38 -19 0 -21 -17 -4
-22 10 -4 9 -8 -2 -20 -8 -9 -22 -25 -30 -37 -15 -21 -50 -29 -50 -11 0 6 5
10 10 10 6 0 10 9 10 20 0 11 -4 20 -10 20 -5 0 -10 -4 -10 -10 0 -5 -9 -10
-19 -10 -11 0 -21 -6 -23 -12 -3 -9 -10 -8 -22 5 -17 17 -16 19 13 46 17 16
31 36 31 44 0 9 9 19 20 22 11 3 20 11 20 16 0 5 16 9 35 9 19 0 35 -4 35 -10
0 -5 -4 -10 -10 -10 -5 0 -10 -7 -10 -15 0 -8 5 -15 10 -15 6 0 10 6 10 14 0
8 6 17 13 19 9 4 8 8 -3 16 -13 10 -13 12 0 20 8 6 11 14 6 18 -5 4 -11 2 -13
-4 -5 -15 -33 -18 -33 -4 0 5 7 16 15 25 8 8 15 20 15 26 0 22 81 91 100 85
12 -4 27 3 42 19 62 68 70 78 64 83 -6 6 -42 -30 -49 -50 -2 -7 -8 -9 -12 -5
-4 4 -1 14 6 23 52 60 70 75 89 75 12 0 29 7 38 16 15 15 14 16 -8 9 -22 -7
-23 -6 -8 9 20 19 45 21 51 4 2 -7 8 -10 12 -6 5 5 -2 16 -13 27 -27 23 -28
31 -2 31 13 0 20 7 20 20 0 11 7 20 15 20 18 0 20 -17 3 -23 -7 -2 -10 -8 -6
-12 4 -4 15 1 25 11 13 12 14 19 5 22 -21 7 -12 36 19 62 17 14 46 40 64 58
19 17 41 32 49 32 9 0 19 12 22 27 12 46 55 72 67 41 2 -8 8 -9 13 -4 5 5 4
11 -3 13 -7 3 -13 9 -13 14 0 16 48 59 65 59 8 0 15 9 15 20 0 13 7 20 19 20
11 0 23 9 26 20 3 11 15 20 26 20 11 0 19 7 19 16 0 23 38 54 64 53 12 0 15
-3 9 -6z m-243 -643 c0 -5 7 -10 15 -10 23 0 65 -46 65 -70 0 -13 7 -20 19
-20 11 0 23 -9 26 -20 3 -11 11 -20 16 -20 14 0 11 -38 -3 -43 -8 -2 -9 -8 -4
-13 5 -5 11 -4 13 4 3 6 11 12 19 12 20 0 64 -45 64 -65 0 -8 4 -15 8 -15 17
0 49 -36 56 -62 3 -16 13 -28 21 -28 9 0 36 -20 61 -45 24 -25 51 -45 60 -45
20 0 44 -24 44 -44 0 -9 6 -16 13 -16 7 0 19 -9 27 -20 8 -11 20 -20 28 -20
12 0 62 -43 62 -55 0 -3 -9 -5 -20 -5 -11 0 -20 5 -20 10 0 6 -9 10 -20 10
-13 0 -20 7 -20 20 0 13 -7 20 -19 20 -11 0 -23 9 -26 20 -3 11 -11 20 -16 20
-5 0 -9 9 -9 20 0 13 -7 20 -20 20 -22 0 -27 -16 -7 -23 6 -2 9 -8 5 -12 -9
-10 -38 19 -38 38 0 10 -14 18 -40 22 -39 7 -52 19 -27 28 7 2 8 8 3 13 -5 5
-11 4 -13 -3 -8 -23 -35 -15 -28 7 5 16 2 20 -15 20 -12 0 -42 21 -70 50 -27
28 -54 50 -61 50 -16 0 -89 77 -89 95 0 9 -10 15 -26 15 -27 0 -104 70 -104
95 0 14 50 74 63 75 4 0 7 -4 7 -10z m-470 -60 c0 -5 -4 -10 -10 -10 -5 0 -10
5 -10 10 0 6 5 10 10 10 6 0 10 -4 10 -10z m361 -132 c27 -29 53 -57 58 -62
38 -38 62 -56 71 -56 13 0 110 -97 110 -111 0 -5 9 -9 20 -9 10 0 35 -16 54
-35 20 -19 41 -35 47 -35 13 0 49 -38 49 -52 0 -4 8 -8 18 -8 10 0 24 -9 32
-20 8 -11 22 -20 32 -20 10 0 18 -4 18 -10 0 -5 12 -13 28 -16 15 -4 34 -15
43 -26 9 -10 21 -18 28 -18 6 0 11 -4 11 -10 0 -5 9 -10 20 -10 11 0 20 -4 20
-10 0 -5 9 -10 20 -10 11 0 20 -4 20 -10 0 -5 9 -10 20 -10 11 0 20 -4 20 -10
0 -5 7 -10 15 -10 8 0 15 -4 15 -10 0 -5 14 -10 30 -10 17 0 30 -4 30 -10 0
-5 -9 -10 -19 -10 -11 0 -26 -7 -35 -15 -8 -8 -17 -15 -21 -15 -3 0 -44 -38
-90 -85 -46 -47 -89 -85 -97 -85 -7 0 -20 -9 -28 -20 -10 -14 -26 -20 -52 -20
-21 0 -38 -4 -38 -10 0 -5 -9 -10 -20 -10 -11 0 -20 5 -20 10 0 6 -9 10 -20
10 -12 0 -31 10 -44 23 -13 12 -33 29 -45 37 -11 8 -21 22 -21 32 0 10 -4 18
-10 18 -5 0 -10 9 -10 20 0 11 -4 20 -9 20 -5 0 -12 18 -16 40 -4 22 -11 40
-16 40 -5 0 -9 7 -9 15 0 8 -4 15 -10 15 -5 0 -10 9 -10 20 0 11 -4 20 -10 20
-5 0 -10 9 -10 20 0 11 -4 20 -10 20 -5 0 -10 8 -10 18 0 10 -9 24 -20 32 -11
8 -20 18 -20 23 0 5 -13 21 -28 35 -16 15 -32 39 -36 55 -3 15 -11 27 -16 27
-6 0 -10 8 -10 18 0 10 -9 24 -21 32 -38 27 -79 68 -79 79 0 7 -16 27 -35 47
-48 47 -45 72 13 133 26 27 48 50 50 50 2 1 26 -23 53 -51z m-211 -154 c0 -9
13 -28 29 -43 15 -14 31 -36 35 -49 4 -12 12 -22 17 -22 5 0 9 -7 9 -16 0 -9
14 -29 30 -44 17 -15 30 -35 30 -44 0 -9 5 -16 10 -16 6 0 10 -9 10 -19 0 -11
9 -23 20 -26 11 -3 20 -15 20 -26 0 -10 5 -19 10 -19 6 0 10 -9 10 -20 0 -11
4 -20 9 -20 5 0 12 -18 16 -40 4 -22 11 -40 16 -40 5 0 9 -7 9 -15 0 -8 5 -15
10 -15 6 0 10 -9 10 -20 0 -11 5 -20 10 -20 6 0 10 -9 10 -20 0 -11 5 -20 10
-20 6 0 10 -9 10 -20 0 -11 5 -20 10 -20 6 0 10 -9 10 -20 0 -11 5 -20 10 -20
6 0 10 -7 10 -15 0 -8 5 -15 10 -15 6 0 10 -13 10 -30 0 -16 5 -30 10 -30 6 0
10 -9 10 -19 0 -11 4 -21 10 -23 5 -1 13 -31 16 -65 4 -35 11 -63 15 -63 5 0
9 -20 9 -45 0 -32 -6 -51 -20 -65 -31 -31 -50 -26 -50 15 0 19 -4 35 -10 35
-5 0 -10 14 -10 30 0 17 -4 30 -10 30 -5 0 -10 14 -10 30 0 17 -4 30 -10 30
-5 0 -10 7 -10 15 0 8 -4 15 -10 15 -5 0 -10 9 -10 20 0 11 -4 20 -10 20 -5 0
-10 9 -10 20 0 11 -4 20 -10 20 -5 0 -10 9 -10 20 0 11 -4 20 -9 20 -5 0 -12
16 -15 35 -4 19 -11 35 -16 35 -6 0 -10 9 -10 20 0 11 -4 20 -10 20 -5 0 -10
8 -10 18 0 10 -9 24 -20 32 -11 8 -20 22 -20 32 0 10 -4 18 -10 18 -5 0 -10 6
-10 13 0 7 -9 19 -20 27 -11 8 -20 20 -20 28 0 7 -11 24 -25 38 -14 14 -25 33
-25 42 0 10 -9 24 -20 32 -11 8 -20 18 -20 23 0 5 -13 22 -30 37 -16 15 -30
33 -30 39 0 7 -16 28 -36 47 -34 34 -39 54 -18 61 13 4 54 -31 54 -46 0 -17
50 -65 58 -56 4 4 1 10 -5 12 -7 3 -13 13 -13 24 0 10 -4 19 -10 19 -5 0 -10
9 -10 20 0 11 -4 20 -10 20 -5 0 -10 7 -10 15 0 8 -4 15 -10 15 -18 0 -11 30
13 55 26 28 37 31 37 9z m-2375 -46 c112 -107 135 -133 135 -153 0 -9 -9 -15
-25 -15 -14 0 -25 -4 -25 -10 0 -5 -18 -10 -40 -10 -22 0 -40 -4 -40 -10 0 -5
-9 -10 -20 -10 -11 0 -20 -4 -20 -9 0 -4 -19 -11 -42 -14 -24 -3 -44 -11 -46
-16 -4 -13 -22 -15 -22 -2 0 5 9 13 20 16 11 3 20 15 20 26 0 10 5 19 10 19
11 0 60 45 60 55 0 14 -37 3 -50 -15 -8 -11 -19 -20 -25 -20 -6 0 -17 -9 -25
-20 -8 -11 -20 -20 -28 -20 -7 0 -20 -6 -28 -12 -31 -26 -80 -76 -94 -97 -8
-11 -20 -21 -28 -21 -7 0 -28 -16 -48 -35 -20 -20 -44 -35 -57 -34 -12 0 -16
3 -9 6 6 2 12 18 12 34 0 16 5 29 10 29 6 0 10 7 10 16 0 8 18 33 40 54 22 21
40 41 40 45 0 3 10 16 23 29 12 13 29 33 37 45 8 11 20 21 27 21 8 0 34 20 59
45 24 25 49 45 54 45 5 0 13 12 16 27 17 64 40 67 99 11z m1911 -35 c-4 -21
-3 -33 1 -27 4 6 29 13 55 16 40 5 45 3 33 -8 -7 -8 -25 -14 -39 -14 -27 0
-36 -15 -14 -22 9 -3 8 -10 -5 -23 -16 -15 -20 -16 -28 -4 -6 10 -9 10 -9 2 0
-7 -4 -13 -10 -13 -5 0 -10 9 -10 20 0 11 -4 20 -10 20 -5 0 -10 -7 -10 -16 0
-8 -7 -23 -16 -31 -13 -13 -17 -14 -24 -3 -7 11 -12 10 -25 -4 -10 -9 -14 -20
-11 -24 4 -3 12 0 17 8 8 11 12 12 16 3 8 -21 43 -15 43 7 0 24 6 25 26 6 18
-19 18 -26 -2 -26 -20 0 -44 -24 -44 -44 0 -9 -6 -16 -14 -16 -8 0 -21 -3 -29
-6 -8 -3 -21 2 -30 10 -18 18 -27 20 -27 7 0 -5 9 -13 20 -16 26 -8 27 -45 1
-45 -11 0 -21 6 -24 13 -2 7 -8 8 -13 3 -5 -5 -4 -11 4 -13 6 -3 12 -9 12 -14
0 -14 -28 -11 -33 4 -4 9 -8 8 -16 -3 -5 -8 -13 -11 -17 -8 -3 4 6 19 20 33
14 14 26 31 26 36 0 29 54 52 63 27 2 -7 8 -10 12 -6 5 5 -2 17 -15 28 l-22
19 41 40 c22 22 41 47 41 55 0 9 5 16 10 16 6 0 10 -4 10 -10 0 -5 5 -10 10
-10 6 0 10 9 10 20 0 18 18 48 29 50 2 0 0 -17 -3 -37z m2505 -55 c21 -24 48
-53 60 -66 12 -13 18 -26 14 -30 -3 -3 -10 0 -16 8 -8 13 -10 13 -19 0 -8 -12
-10 -11 -10 8 0 15 -6 22 -20 22 -11 0 -20 7 -20 15 0 19 -48 70 -57 61 -4 -3
4 -15 17 -26 13 -11 20 -23 16 -27 -4 -4 -11 -1 -16 7 -7 12 -12 11 -28 -8
-22 -25 -52 -29 -52 -7 0 19 60 83 78 84 8 1 31 -18 53 -41z m-51 -68 c0 -5
-4 -10 -10 -10 -5 0 -10 5 -10 10 0 6 5 10 10 10 6 0 10 -4 10 -10z m40 -20
c0 -5 -4 -10 -10 -10 -5 0 -10 5 -10 10 0 6 5 10 10 10 6 0 10 -4 10 -10z
m136 -44 c8 -8 14 -19 14 -25 0 -6 9 -11 20 -11 13 0 20 -7 20 -20 0 -11 -2
-20 -5 -20 -10 0 -55 49 -55 60 0 5 -9 10 -20 10 -11 0 -20 5 -20 10 0 15 29
12 46 -4z m-2822 -92 c8 -22 9 -20 -19 -48 -14 -14 -25 -30 -25 -36 0 -5 -4
-10 -10 -10 -15 0 -12 48 3 53 6 2 9 8 5 12 -4 4 -21 -7 -38 -25 -17 -18 -33
-30 -36 -27 -9 9 63 77 81 77 8 0 15 5 15 10 0 16 17 12 24 -6z m2456 6 c0 -5
14 -10 30 -10 17 0 30 -4 30 -10 0 -5 -13 -10 -30 -10 -16 0 -30 5 -30 10 0 6
-13 10 -30 10 -16 0 -30 5 -30 10 0 6 14 10 30 10 17 0 30 -4 30 -10z m-3640
-40 c0 -5 23 -10 50 -10 28 0 50 -4 50 -10 0 -5 11 -10 25 -10 14 0 25 -4 25
-10 0 -5 23 -12 50 -16 28 -4 50 -10 50 -15 0 -5 7 -9 15 -9 8 0 15 -4 15 -10
0 -5 8 -10 18 -10 10 0 24 -9 32 -20 8 -11 21 -20 30 -20 9 0 22 -9 30 -20 8
-11 21 -20 29 -20 14 0 51 -37 51 -52 0 -4 9 -8 20 -8 26 0 150 -124 150 -150
0 -11 4 -20 8 -20 15 0 52 -37 52 -51 0 -8 9 -21 20 -29 11 -8 20 -22 20 -32
0 -10 5 -18 10 -18 6 0 10 -9 10 -20 0 -11 5 -20 10 -20 6 0 10 -7 10 -15 0
-8 5 -15 10 -15 6 0 10 -13 10 -29 0 -16 6 -31 13 -34 9 -3 12 -43 12 -154 0
-127 -3 -152 -17 -166 -25 -25 -28 -22 -28 28 0 25 -4 45 -10 45 -5 0 -10 9
-10 20 0 11 -4 20 -10 20 -5 0 -10 9 -10 20 0 11 -4 20 -10 20 -5 0 -10 9 -10
20 0 11 -4 20 -10 20 -5 0 -10 7 -10 15 0 8 -4 15 -10 15 -5 0 -10 7 -10 16 0
9 -8 24 -18 33 -12 10 -21 37 -26 76 -4 33 -11 62 -16 63 -6 2 -10 12 -10 23
0 10 -4 19 -10 19 -5 0 -10 9 -10 20 0 11 -4 20 -10 20 -5 0 -10 9 -10 20 0
11 -4 20 -10 20 -5 0 -10 9 -10 19 0 11 -9 23 -20 26 -11 3 -20 13 -20 21 0 8
-11 26 -25 40 -14 14 -25 33 -25 42 0 9 -14 28 -31 42 -17 14 -46 40 -64 58
-19 17 -40 32 -46 32 -13 0 -49 38 -49 52 0 4 -9 8 -20 8 -11 0 -20 5 -20 10
0 6 -8 10 -18 10 -10 0 -24 9 -32 20 -13 18 -50 29 -50 15 0 -11 69 -75 81
-75 10 0 32 -22 77 -74 6 -9 12 -19 12 -25 0 -5 6 -11 13 -14 7 -2 8 -8 3 -13
-5 -5 -11 -4 -13 3 -2 7 -20 15 -39 19 -19 3 -34 10 -34 15 0 5 -9 9 -20 9
-11 0 -20 5 -20 10 0 6 -9 10 -20 10 -11 0 -20 5 -20 10 0 6 -11 10 -25 10
-14 0 -25 5 -25 10 0 6 -13 10 -30 10 -16 0 -30 5 -30 10 0 6 -13 10 -30 10
-16 0 -30 5 -30 10 0 6 -25 10 -55 10 -30 0 -55 5 -55 10 0 6 -27 10 -60 10
-33 0 -60 -4 -60 -10 0 -5 -20 -10 -45 -10 -25 0 -45 -4 -45 -10 0 -5 -13 -10
-30 -10 -16 0 -30 5 -30 10 0 6 -9 10 -20 10 -11 0 -20 5 -20 10 0 6 -11 10
-25 10 -21 0 -25 -5 -25 -30 0 -16 -4 -30 -10 -30 -5 0 -10 -13 -10 -30 0 -16
-3 -30 -6 -30 -3 0 -23 18 -44 40 -61 64 -80 53 -80 -46 0 -45 -4 -59 -25 -79
-13 -14 -29 -25 -35 -25 -14 0 -80 66 -80 80 0 5 -4 10 -10 10 -5 0 -10 7 -10
16 0 18 24 44 40 44 7 0 25 14 40 30 15 17 35 30 44 30 9 0 16 5 16 10 0 6 7
10 15 10 8 0 15 5 15 10 0 6 14 10 30 10 17 0 30 5 30 10 0 6 13 10 29 10 16
0 36 7 45 15 8 8 22 15 30 15 9 0 16 5 16 10 0 6 16 10 35 10 19 0 35 -4 35
-10 0 -5 13 -10 29 -10 16 0 32 -6 35 -12 5 -10 7 -10 12 0 3 6 17 12 30 12
13 0 24 5 24 10 0 6 18 10 40 10 22 0 40 5 40 10 0 6 35 10 85 10 50 0 85 -4
85 -10z m3430 0 c0 -5 14 -10 30 -10 65 0 21 -35 -55 -44 -33 -4 -61 -11 -63
-16 -2 -6 -12 -10 -23 -10 -10 0 -19 -4 -19 -10 0 -5 -9 -10 -20 -10 -11 0
-20 -4 -20 -10 0 -5 -8 -10 -18 -10 -10 0 -24 -9 -32 -20 -9 -13 -26 -20 -47
-20 -18 0 -33 -4 -33 -10 0 -5 -18 -10 -40 -10 -22 0 -40 -4 -40 -10 0 -5 -9
-10 -20 -10 -11 0 -20 -4 -20 -10 0 -5 -11 -10 -25 -10 -14 0 -25 -4 -25 -10
0 -5 -9 -10 -19 -10 -11 0 -26 -7 -35 -15 -8 -8 -21 -15 -28 -15 -8 0 -20 -9
-28 -20 -8 -11 -18 -20 -23 -20 -5 0 -26 -18 -47 -40 -21 -22 -43 -40 -50 -40
-21 0 -90 -66 -90 -86 0 -9 -13 -29 -30 -44 -16 -15 -30 -34 -30 -42 0 -7 -9
-20 -20 -28 -11 -8 -20 -20 -20 -26 0 -7 -6 -14 -12 -17 -7 -2 -10 -8 -6 -12
4 -4 18 4 33 16 57 53 91 87 105 108 8 11 22 21 31 21 10 0 19 6 22 13 2 7 8
8 13 3 5 -5 4 -11 -3 -13 -7 -3 -13 -13 -13 -24 0 -10 -4 -19 -10 -19 -5 0
-10 -9 -10 -20 0 -11 -4 -20 -10 -20 -5 0 -10 -7 -10 -15 0 -8 -4 -15 -10 -15
-5 0 -12 -22 -16 -50 -4 -27 -10 -50 -15 -50 -5 0 -9 -9 -9 -20 0 -11 -4 -20
-10 -20 -5 0 -10 -16 -10 -35 0 -19 -4 -35 -10 -35 -5 0 -10 -18 -10 -40 0
-22 -4 -40 -10 -40 -6 0 -10 -38 -10 -95 0 -57 4 -95 10 -95 6 0 10 -24 10
-53 0 -41 -4 -56 -20 -67 -12 -8 -20 -26 -20 -42 0 -21 5 -28 20 -28 11 0 20
-4 20 -10 0 -5 16 -10 35 -10 19 0 35 -3 35 -8 0 -4 -16 -21 -35 -37 -56 -49
-39 -85 40 -85 35 0 51 -6 70 -25 14 -13 25 -31 25 -40 0 -20 -44 -65 -65 -65
-8 0 -15 -4 -15 -10 0 -5 -5 -10 -10 -10 -14 0 -80 66 -80 80 0 5 -4 10 -10
10 -5 0 -10 9 -10 20 0 11 -4 20 -10 20 -5 0 -10 9 -10 20 0 11 -4 20 -10 20
-5 0 -10 14 -10 30 0 17 -4 30 -10 30 -5 0 -10 11 -10 25 0 14 -4 25 -10 25
-5 0 -10 7 -10 16 0 8 -7 23 -16 31 -13 13 -15 28 -9 67 3 28 10 53 16 54 14
5 11 60 -3 64 -10 4 -13 48 -13 178 0 130 3 174 13 177 6 3 12 18 12 34 0 16
5 29 10 29 6 0 10 9 10 20 0 11 5 20 10 20 6 0 10 7 10 15 0 8 5 15 10 15 6 0
10 13 10 28 0 16 8 34 20 42 11 8 20 21 20 30 0 9 9 22 20 30 11 8 20 20 20
27 0 7 4 13 10 13 5 0 13 12 16 27 4 15 35 53 68 85 96 91 100 95 126 127 14
17 32 31 40 31 9 0 22 9 30 20 8 11 21 20 30 20 9 0 22 9 30 20 8 11 29 23 47
26 18 3 33 10 33 15 0 5 14 9 30 9 17 0 30 5 30 10 0 6 14 10 30 10 17 0 30 5
30 10 0 6 50 10 130 10 80 0 130 -4 130 -10z m320 0 c0 -5 12 -10 26 -10 15 0
34 -8 43 -18 9 -11 28 -22 44 -26 31 -7 35 -29 10 -54 -12 -12 -18 -13 -21 -4
-2 6 -10 12 -19 12 -16 0 -43 24 -43 38 0 6 6 12 13 15 7 2 8 8 3 13 -5 5 -11
4 -13 -3 -7 -20 -34 -15 -54 9 -23 26 -24 38 -4 38 8 0 15 -4 15 -10z m-2650
-75 c0 -28 -23 -34 -46 -11 -22 23 -21 24 39 35 4 0 7 -10 7 -24z m-40 -45 c0
-11 -4 -20 -10 -20 -5 0 -10 -7 -10 -15 0 -14 -17 -37 -59 -79 -41 -40 -63
-57 -68 -52 -4 3 4 14 15 25 12 10 22 23 22 30 0 6 9 11 20 11 22 0 27 16 8
23 -7 2 -9 8 -5 13 4 5 13 2 18 -6 8 -11 9 -10 4 8 -5 16 -2 22 9 22 19 0 21
17 4 22 -9 3 -8 9 2 21 21 23 50 22 50 -3z m-2134 -14 c8 -8 14 -22 14 -30 0
-9 5 -16 10 -16 6 0 10 -13 10 -29 0 -21 -6 -32 -20 -36 -11 -3 -20 -14 -20
-23 0 -10 -9 -24 -20 -32 -11 -8 -20 -22 -20 -32 0 -10 -4 -18 -10 -18 -5 0
-10 -9 -10 -20 0 -11 -4 -20 -10 -20 -5 0 -12 -11 -16 -25 -3 -14 -10 -25 -15
-25 -5 0 -9 -9 -9 -20 0 -11 -4 -20 -10 -20 -5 0 -10 -8 -10 -18 0 -10 -9 -24
-20 -32 -11 -8 -20 -21 -20 -30 0 -9 -9 -22 -20 -30 -11 -8 -20 -18 -20 -23 0
-5 -7 -15 -15 -24 -14 -14 -18 -13 -38 11 -13 14 -28 26 -35 26 -17 0 -82 66
-82 84 0 8 -5 16 -12 18 -16 6 35 58 57 58 8 0 15 4 15 9 0 5 9 12 19 16 11 3
23 15 26 26 4 10 13 19 21 19 12 0 54 37 155 136 36 36 59 65 59 74 0 10 21
39 28 40 2 0 10 -6 18 -14z m5040 0 c19 -20 18 -26 -6 -26 -13 0 -20 7 -20 20
0 24 6 25 26 6z m-3 -58 c4 -10 8 -10 15 1 9 12 13 12 26 -2 9 -8 16 -23 16
-31 0 -9 5 -16 12 -16 6 0 9 -2 6 -5 -11 -11 -38 8 -38 26 0 21 -16 26 -22 7
-3 -9 -9 -8 -21 4 -9 9 -17 19 -17 22 0 11 18 6 23 -6z m-410 -53 c37 -4 67
-11 67 -16 0 -5 14 -9 30 -9 17 0 30 -4 30 -10 0 -5 8 -10 18 -10 10 0 28 -9
40 -20 12 -11 28 -20 37 -20 8 0 15 -4 15 -10 0 -5 7 -10 16 -10 9 0 28 -13
43 -29 15 -16 35 -30 45 -32 9 -2 25 -17 34 -34 9 -16 29 -42 45 -56 15 -15
27 -34 27 -43 0 -9 5 -16 10 -16 6 0 10 -9 10 -20 0 -11 5 -20 10 -20 6 0 10
-7 10 -15 0 -8 5 -15 10 -15 6 0 10 -13 10 -29 0 -16 6 -31 13 -33 9 -4 12
-57 12 -223 0 -166 -3 -219 -12 -222 -7 -3 -13 -18 -13 -34 0 -16 -4 -29 -10
-29 -5 0 -10 -9 -10 -20 0 -11 -4 -20 -10 -20 -5 0 -10 -9 -10 -20 0 -11 -4
-20 -10 -20 -5 0 -10 -9 -10 -20 0 -11 -4 -20 -8 -20 -15 0 -47 -34 -67 -72
-10 -20 -30 -43 -44 -50 -14 -7 -36 -23 -49 -35 -13 -13 -32 -23 -42 -23 -11
0 -20 -4 -20 -10 0 -5 -9 -10 -20 -10 -11 0 -20 -4 -20 -10 0 -5 -7 -10 -15
-10 -8 0 -15 -3 -15 -8 0 -9 -72 -32 -100 -32 -11 0 -20 -4 -20 -9 0 -5 -28
-12 -62 -15 -115 -12 -116 -11 -300 20 -21 3 -38 9 -38 13 0 5 -18 14 -40 21
-22 7 -48 21 -58 30 -10 9 -30 20 -45 24 -15 3 -27 11 -27 16 0 6 -5 10 -11
10 -9 0 -84 74 -151 149 -15 17 -30 46 -34 66 -3 19 -10 35 -15 35 -5 0 -9 9
-9 20 0 11 -4 20 -10 20 -5 0 -10 11 -10 25 0 14 -4 25 -9 25 -14 0 -23 65
-28 209 -3 87 0 138 6 144 6 6 11 24 11 39 0 15 5 28 10 28 6 0 10 14 10 30 0
17 5 30 10 30 6 0 10 9 10 20 0 11 4 20 9 20 5 0 13 15 17 32 3 18 15 40 25
49 11 9 19 22 19 28 0 11 21 32 107 111 12 11 26 20 30 20 5 0 15 9 23 20 8
11 20 20 28 20 7 0 21 8 32 18 11 10 36 24 57 31 21 8 41 18 44 23 7 11 179
27 249 22 30 -2 85 -6 123 -9z m-3490 -40 c20 -4 40 -11 43 -16 3 -5 14 -9 25
-9 10 0 19 -4 19 -10 0 -5 9 -10 19 -10 23 0 101 -40 101 -52 0 -4 5 -8 10 -8
10 0 22 -8 55 -37 7 -7 18 -13 22 -13 11 0 63 -53 63 -64 0 -4 11 -18 25 -32
14 -14 25 -33 25 -44 0 -10 9 -22 20 -25 11 -3 20 -15 20 -26 0 -10 5 -19 10
-19 6 0 10 -9 10 -20 0 -11 5 -20 10 -20 6 0 10 -13 10 -30 0 -16 4 -30 9 -30
16 0 24 -64 24 -195 -1 -137 -9 -215 -24 -215 -5 0 -9 -11 -9 -24 0 -14 -4
-28 -10 -31 -5 -3 -10 -15 -10 -26 0 -10 -4 -19 -10 -19 -5 0 -10 -9 -10 -20
0 -11 -4 -20 -10 -20 -5 0 -10 -7 -10 -15 0 -8 -4 -15 -10 -15 -5 0 -10 -9
-10 -20 0 -10 -11 -30 -25 -44 -14 -14 -25 -29 -25 -34 0 -12 -54 -62 -67 -62
-5 0 -19 -8 -31 -17 -11 -10 -30 -26 -41 -35 -12 -10 -28 -18 -36 -18 -8 0
-15 -4 -15 -10 0 -5 -9 -10 -20 -10 -11 0 -20 -4 -20 -10 0 -5 -13 -10 -30
-10 -16 0 -30 -4 -30 -9 0 -11 -39 -19 -145 -31 -87 -10 -265 -3 -265 11 0 5
-9 9 -20 9 -28 0 -100 23 -100 32 0 5 -9 8 -20 8 -11 0 -20 5 -20 10 0 6 -6
10 -13 10 -7 0 -19 9 -27 20 -8 11 -20 20 -28 20 -7 0 -20 6 -28 13 -53 44
-93 87 -110 117 -10 19 -27 42 -36 51 -10 9 -18 21 -18 28 0 6 -4 11 -10 11
-5 0 -10 9 -10 19 0 11 -4 21 -8 23 -9 4 -40 92 -55 158 -18 79 -9 295 13 325
4 6 13 31 21 58 7 26 17 47 21 47 4 0 8 9 8 20 0 11 5 20 10 20 6 0 10 5 10
11 0 7 8 19 18 28 9 9 26 32 36 51 26 46 113 130 134 130 10 0 24 9 32 20 8
11 20 20 27 20 7 0 13 5 13 10 0 6 9 10 20 10 11 0 20 5 20 10 0 6 9 10 20 10
11 0 20 5 20 10 0 6 14 10 30 10 17 0 30 5 30 10 0 6 16 10 35 10 19 0 35 5
35 11 0 11 225 7 293 -6z m4413 -59 c17 -18 18 -43 2 -49 -8 -2 -9 -8 -4 -13
5 -5 11 -4 13 4 6 17 23 15 23 -3 0 -9 9 -15 25 -15 14 0 37 -11 51 -25 l26
-26 -22 -19 c-20 -17 -21 -21 -7 -35 9 -8 22 -15 30 -15 18 0 29 -24 21 -45
-4 -8 -8 -15 -10 -15 -12 0 -74 71 -74 85 0 8 -4 15 -10 15 -5 0 -10 9 -10 20
0 11 -4 20 -10 20 -5 0 -10 9 -10 20 0 12 -7 20 -17 20 -29 0 -41 13 -48 53
-8 40 4 49 31 23z m-5366 -41 c0 -19 -4 -35 -10 -35 -5 0 -10 -9 -10 -20 0
-11 -4 -20 -10 -20 -5 0 -10 -9 -10 -20 0 -11 -4 -20 -10 -20 -5 0 -10 -9 -10
-20 0 -11 -4 -20 -10 -20 -5 0 -10 -7 -10 -16 0 -8 -7 -22 -15 -30 -8 -9 -15
-26 -15 -40 0 -13 -4 -24 -10 -24 -5 0 -10 -9 -10 -20 0 -11 -4 -20 -10 -20
-5 0 -10 -18 -10 -39 0 -31 4 -41 20 -46 11 -3 20 -14 20 -23 0 -10 -9 -24
-20 -32 -12 -8 -20 -26 -20 -42 0 -15 -4 -28 -10 -28 -5 0 -10 -9 -10 -20 0
-11 -4 -20 -10 -20 -6 0 -10 -43 -10 -110 0 -67 4 -110 10 -110 6 0 10 -9 10
-20 0 -11 5 -20 10 -20 6 0 10 -9 10 -20 0 -11 5 -20 10 -20 6 0 10 -9 10 -20
0 -11 4 -20 9 -20 5 0 13 -10 17 -22 3 -12 28 -43 55 -69 27 -26 49 -53 49
-59 0 -13 57 -70 70 -70 4 0 11 -16 15 -36 5 -27 22 -52 65 -93 73 -69 87 -81
97 -81 5 0 15 -9 23 -20 8 -11 21 -20 30 -20 9 0 22 -9 30 -20 8 -11 22 -20
32 -20 10 0 18 -4 18 -10 0 -5 9 -10 20 -10 11 0 20 -4 20 -10 0 -5 7 -10 15
-10 8 0 15 -4 15 -9 0 -5 27 -12 60 -16 33 -4 60 -11 60 -16 0 -5 16 -9 35 -9
19 0 35 -4 35 -10 0 -6 33 -10 80 -10 47 0 80 4 80 10 0 6 -13 10 -30 10 -16
0 -30 4 -30 9 0 5 -27 12 -60 16 -33 4 -60 11 -60 16 0 5 -7 9 -15 9 -8 0 -15
5 -15 10 0 6 -13 10 -30 10 -16 0 -30 5 -30 10 0 6 -8 10 -18 10 -10 0 -24 9
-32 20 -8 11 -19 20 -25 20 -6 0 -17 9 -25 20 -8 11 -20 20 -28 20 -7 0 -21 7
-30 17 -15 15 -14 16 23 9 22 -4 42 -12 43 -17 2 -5 15 -9 28 -9 13 0 24 -4
24 -10 0 -5 14 -10 30 -10 17 0 30 -4 30 -10 0 -5 9 -10 20 -10 11 0 20 -4 20
-10 0 -5 11 -10 25 -10 14 0 25 -4 25 -10 0 -5 14 -10 30 -10 17 0 30 -4 30
-10 0 -5 14 -10 30 -10 17 0 30 -4 30 -10 0 -5 20 -10 45 -10 25 0 45 -4 45
-10 0 -5 18 -10 40 -10 22 0 40 5 40 10 0 6 9 10 20 10 11 0 20 5 20 10 0 6
11 10 25 10 14 0 25 5 25 10 0 6 27 10 60 10 33 0 60 -4 60 -10 0 -5 5 -10 11
-10 6 0 17 -7 25 -14 13 -13 11 -19 -15 -45 -17 -17 -37 -31 -46 -31 -8 0 -15
-4 -15 -10 0 -5 -13 -10 -30 -10 -16 0 -30 -4 -30 -10 0 -5 -9 -10 -20 -10
-11 0 -20 -4 -20 -10 0 -5 -16 -10 -35 -10 -19 0 -35 -4 -35 -10 0 -5 -18 -10
-40 -10 -22 0 -40 -4 -40 -10 0 -6 -28 -10 -65 -10 -37 0 -65 -4 -65 -10 0 -6
-42 -10 -105 -10 -63 0 -105 4 -105 10 0 6 -13 10 -30 10 -16 0 -30 5 -30 10
0 6 -11 10 -25 10 -14 0 -25 5 -25 10 0 6 -9 10 -20 10 -11 0 -20 5 -20 10 0
6 -9 10 -20 10 -11 0 -20 5 -20 10 0 6 -8 10 -18 10 -10 0 -24 9 -32 20 -8 11
-20 20 -27 20 -7 0 -13 4 -13 10 0 5 -12 13 -27 16 -15 4 -44 25 -65 46 -20
21 -39 38 -42 38 -6 0 -33 25 -151 138 -30 29 -55 60 -55 68 0 9 -13 29 -30
44 -16 15 -30 32 -30 37 0 5 -9 15 -20 23 -11 8 -20 22 -20 32 0 10 -4 18 -10
18 -5 0 -10 9 -10 20 0 11 -4 20 -10 20 -5 0 -10 16 -10 35 0 19 -4 35 -9 35
-5 0 -10 98 -13 217 -3 157 -7 218 -16 221 -7 2 -12 17 -12 33 0 16 -4 29 -10
29 -5 0 -10 5 -10 11 0 14 25 39 39 39 6 0 11 8 11 18 0 10 9 24 20 32 11 8
20 22 20 32 0 10 5 18 10 18 6 0 10 9 10 20 0 11 5 20 10 20 6 0 10 7 10 15 0
8 5 15 10 15 6 0 10 14 10 30 0 17 5 30 10 30 6 0 10 9 10 20 0 11 5 20 10 20
6 0 10 7 10 16 0 21 91 112 113 113 13 1 17 -7 17 -34z m5138 -43 c11 -10 23
-35 27 -55 l7 -37 -36 0 c-20 0 -36 -4 -36 -10 0 -5 -4 -10 -10 -10 -5 0 -10
18 -10 40 0 22 -4 40 -10 40 -5 0 -10 11 -10 25 0 21 5 25 28 25 16 0 38 -8
50 -18z m362 -82 c0 -5 -4 -10 -10 -10 -5 0 -10 5 -10 10 0 6 5 10 10 10 6 0
10 -4 10 -10z m51 -10 c23 0 24 -6 3 -27 -13 -14 -17 -14 -25 -2 -5 8 -8 23
-8 34 0 11 3 14 6 8 2 -7 13 -13 24 -13z m-341 -38 c0 -10 9 -24 20 -32 11 -8
20 -20 20 -27 0 -7 5 -13 10 -13 6 0 10 -9 10 -20 0 -11 5 -20 10 -20 6 0 10
-13 10 -30 0 -16 5 -30 10 -30 6 0 10 -15 10 -34 0 -19 6 -36 13 -38 9 -4 12
-64 12 -258 0 -194 -3 -254 -12 -257 -7 -3 -13 -11 -13 -19 0 -8 -4 -14 -10
-14 -5 0 -10 -8 -10 -18 0 -10 -9 -24 -20 -32 -11 -8 -20 -21 -20 -30 0 -9 -9
-22 -20 -30 -11 -8 -20 -19 -20 -25 0 -6 -9 -17 -20 -25 -11 -8 -20 -22 -20
-32 0 -10 -29 -46 -65 -80 -109 -106 -129 -126 -165 -167 -19 -22 -41 -40 -48
-41 -12 0 -23 -7 -57 -37 -7 -7 -17 -13 -22 -13 -5 0 -15 -9 -23 -20 -8 -11
-22 -20 -32 -20 -10 0 -18 -4 -18 -10 0 -5 -9 -10 -20 -10 -11 0 -20 -4 -20
-10 0 -5 -13 -10 -30 -10 -16 0 -30 -4 -30 -10 0 -6 -82 -10 -225 -10 -143 0
-225 -4 -225 -10 0 -5 -13 -10 -30 -10 -16 0 -30 -4 -30 -10 0 -5 -13 -10 -30
-10 -16 0 -30 4 -30 9 0 15 -57 71 -72 71 -7 0 -20 9 -28 20 -8 11 -22 20 -32
20 -10 0 -18 5 -18 10 0 6 -7 10 -15 10 -8 0 -15 4 -15 9 0 5 -18 12 -40 16
-22 4 -40 11 -40 16 0 5 -8 9 -18 9 -10 0 -24 9 -32 20 -8 11 -22 20 -32 20
-9 0 -20 9 -23 20 -3 11 -11 20 -16 20 -5 0 -9 9 -9 20 0 11 -4 20 -10 20 -5
0 -10 7 -10 16 0 14 7 15 43 10 23 -4 44 -11 45 -16 2 -6 12 -10 23 -10 10 0
19 -4 19 -10 0 -5 8 -10 18 -10 10 0 24 -9 32 -20 8 -11 22 -20 32 -20 10 0
18 -4 18 -10 0 -5 6 -10 13 -10 7 0 19 -9 27 -20 8 -12 26 -20 42 -20 15 0 28
-4 28 -10 0 -20 62 -10 83 13 13 15 21 18 24 10 3 -7 11 -13 20 -13 8 0 21 -7
29 -15 9 -8 29 -15 45 -15 16 0 29 -4 29 -10 0 -5 7 -10 15 -10 8 0 15 -4 15
-10 0 -6 42 -10 105 -10 63 0 105 4 105 10 0 6 14 10 30 10 17 0 30 5 30 10 0
6 9 10 19 10 11 0 26 7 35 15 8 8 18 15 23 15 5 0 15 9 23 20 8 11 21 20 28
20 7 0 31 18 52 40 21 22 44 40 51 40 6 0 22 11 35 25 13 14 30 25 39 25 8 0
15 5 15 10 0 6 7 10 16 10 9 0 29 14 44 30 15 17 35 30 44 30 9 0 16 4 16 10
0 5 16 25 35 44 19 20 35 38 35 42 0 3 14 19 30 34 17 15 30 35 30 44 0 9 5
16 10 16 6 0 10 7 10 16 0 9 8 24 19 33 10 9 22 35 26 59 4 23 11 42 16 42 5
0 9 14 9 30 0 17 5 30 10 30 6 0 10 9 10 20 0 11 5 20 10 20 6 0 10 20 10 45
0 25 5 45 10 45 6 0 10 25 10 55 0 30 -4 55 -10 55 -5 0 -10 -11 -10 -25 0
-14 -4 -25 -10 -25 -5 0 -10 -13 -10 -30 0 -16 -4 -30 -10 -30 -5 0 -10 -9
-10 -20 0 -11 -4 -20 -9 -20 -5 0 -12 -19 -16 -42 -4 -24 -16 -50 -26 -59 -11
-9 -19 -24 -19 -33 0 -9 -4 -16 -10 -16 -5 0 -10 -8 -10 -18 0 -10 -9 -24 -20
-32 -11 -8 -20 -18 -20 -23 0 -14 -51 -59 -58 -52 -4 4 -1 10 6 12 6 3 12 16
12 29 0 13 5 24 10 24 6 0 10 9 10 20 0 11 5 20 10 20 6 0 10 14 10 30 0 17 5
30 10 30 6 0 10 9 10 20 0 11 5 20 10 20 6 0 10 11 10 25 0 14 5 25 10 25 6 0
10 9 10 20 0 11 5 20 10 20 6 0 10 13 10 29 0 16 4 31 10 33 5 2 13 31 16 66
4 34 11 62 15 62 13 0 11 78 -2 82 -6 2 -14 27 -17 56 -2 29 -8 52 -13 52 -5
0 -9 14 -9 30 0 17 5 30 10 30 6 0 10 10 10 23 0 23 28 67 43 67 4 0 7 -8 7
-18z m-3450 -587 c0 -8 -4 -15 -10 -15 -5 0 -10 -9 -10 -19 0 -11 -6 -22 -12
-24 -10 -4 -9 -8 2 -16 8 -5 11 -13 7 -18 -5 -4 -12 -1 -17 7 -10 16 -2 63 12
68 4 2 8 10 8 18 0 8 5 14 10 14 6 0 10 -7 10 -15z m1390 -45 c0 -16 4 -30 9
-30 4 0 11 -28 15 -62 3 -35 11 -64 16 -66 6 -2 10 -17 10 -33 0 -16 5 -29 10
-29 6 0 10 -9 10 -19 0 -11 6 -21 13 -24 6 -2 9 -8 5 -12 -7 -7 -19 4 -91 86
-15 18 -31 28 -35 24 -4 -4 -1 -10 6 -12 6 -3 12 -13 12 -24 0 -10 5 -19 10
-19 6 0 10 -9 10 -20 0 -11 4 -20 9 -20 5 0 13 -10 17 -22 4 -12 24 -39 45
-59 22 -21 39 -42 39 -48 0 -7 20 -32 45 -57 25 -24 45 -50 45 -57 0 -7 9 -19
20 -27 11 -8 20 -18 20 -22 0 -4 -9 -8 -20 -8 -11 0 -20 5 -20 10 0 6 -7 10
-15 10 -8 0 -15 5 -15 10 0 6 -9 10 -20 10 -11 0 -20 4 -20 10 0 5 -12 13 -27
16 -16 4 -40 21 -55 38 -15 17 -37 41 -48 53 -11 12 -20 28 -20 35 0 7 -14 24
-31 38 -31 25 -95 88 -136 134 -28 31 -29 53 -3 61 11 3 20 10 20 15 0 14 98
110 112 110 8 0 20 9 28 20 20 28 30 25 30 -10z m-1440 -60 c0 -5 -4 -10 -10
-10 -5 0 -10 -4 -10 -10 0 -5 7 -10 15 -10 8 0 15 -4 15 -10 0 -5 -7 -10 -15
-10 -8 0 -15 -4 -15 -10 0 -5 5 -10 12 -10 6 0 1 -8 -10 -19 -12 -10 -22 -26
-22 -35 0 -11 -9 -16 -30 -16 -23 0 -30 4 -30 20 0 13 7 20 20 20 22 0 27 15
8 24 -7 4 3 4 22 1 25 -4 31 -2 20 5 -13 9 -13 11 0 20 13 8 13 11 1 19 -12 8
-12 11 0 25 16 18 29 20 29 6z m266 -45 c19 -19 39 -35 44 -35 6 0 10 -4 10
-10 0 -5 -9 -10 -20 -10 -13 0 -20 -7 -20 -20 0 -12 -7 -20 -16 -20 -18 0 -44
-23 -44 -40 0 -11 -24 -40 -33 -40 -9 0 -16 30 -11 45 4 8 15 15 25 15 21 0
26 16 7 22 -17 6 14 38 36 38 19 0 22 20 4 21 -10 0 -10 2 0 6 19 8 14 23 -8
23 -11 0 -20 -4 -20 -10 0 -5 -4 -10 -10 -10 -14 0 -12 28 3 45 16 19 13 20
53 -20z m-66 -41 c0 -3 -7 -12 -15 -20 -16 -17 -18 -14 -9 10 6 15 24 23 24
10z m-260 -84 c0 -5 -4 -10 -10 -10 -5 0 -10 5 -10 10 0 6 5 10 10 10 6 0 10
-4 10 -10z m-97 -62 c4 -10 8 -9 16 2 5 8 14 11 18 6 4 -5 2 -11 -5 -13 -7 -3
-24 -16 -37 -29 -13 -13 -28 -24 -34 -24 -5 0 -11 -6 -14 -12 -2 -7 -8 -10
-12 -6 -4 4 5 19 19 33 14 14 26 32 26 40 0 18 16 20 23 3z m327 3 c0 -5 -9
-13 -20 -16 -11 -3 -20 -15 -20 -26 0 -12 -7 -19 -19 -19 -11 0 -21 -6 -24
-12 -2 -7 -8 -10 -12 -6 -4 4 7 21 26 38 19 16 39 34 44 39 13 13 25 13 25 2z
m-550 -236 c0 -26 -59 -95 -80 -95 -17 0 -40 26 -40 44 0 9 -4 16 -10 16 -5 0
-10 9 -10 20 0 17 7 20 50 20 28 0 50 5 50 10 0 6 9 10 20 10 15 0 20 -7 20
-25z m2215 -127 c34 -31 45 -38 57 -38 8 0 20 -9 28 -20 8 -11 21 -20 30 -20
9 0 22 -9 30 -20 8 -11 19 -20 25 -20 6 0 17 -9 25 -20 8 -11 22 -20 32 -20
10 0 18 -4 18 -10 0 -5 7 -10 16 -10 8 0 22 -7 30 -15 9 -8 24 -15 35 -15 10
0 19 -4 19 -10 0 -5 11 -20 25 -34 31 -31 31 -40 1 -73 -95 -102 -118 -112
-162 -68 -14 14 -29 25 -34 25 -6 0 -10 9 -10 19 0 11 -7 26 -15 35 -8 8 -15
20 -15 26 0 6 -18 29 -40 50 -22 21 -40 41 -40 45 0 3 -15 21 -32 39 -18 18
-40 43 -48 55 -8 11 -20 21 -28 21 -12 0 -62 43 -62 55 0 3 9 5 20 5 10 0 25
7 32 15 16 18 45 19 63 3z m-2145 -133 c0 -18 -52 -75 -69 -75 -20 0 -48 -33
-33 -38 19 -6 14 -22 -8 -22 -11 0 -20 -4 -20 -10 0 -5 -7 -10 -16 -10 -18 0
-44 23 -44 40 0 17 30 44 38 35 4 -4 1 -10 -5 -12 -20 -7 -15 -23 7 -23 15 0
20 7 20 25 0 18 5 25 19 25 11 0 22 6 24 13 4 9 8 8 16 -3 10 -13 12 -13 21 0
5 8 7 24 5 35 -3 11 -2 14 1 8 9 -20 24 -15 24 7 0 11 5 20 10 20 6 0 10 -7
10 -15z m-184 -149 c8 -8 14 -21 14 -29 0 -9 6 -17 13 -20 8 -3 4 -11 -12 -26
-27 -24 -24 -23 -45 -15 -9 3 -16 15 -16 25 0 10 -7 19 -15 19 -8 0 -15 9 -15
20 0 11 5 20 10 20 6 0 10 -5 10 -12 0 -7 8 -2 18 10 20 26 20 26 38 8z"/>
<path d="M7300 8110 c0 -11 85 -100 95 -100 3 0 5 12 5 26 0 30 -33 64 -62 64
-10 0 -18 5 -18 10 0 6 -4 10 -10 10 -5 0 -10 -5 -10 -10z"/>
<path d="M1522 7721 c-25 -21 -29 -51 -7 -51 9 0 31 16 51 35 l35 35 -29 0
c-16 0 -39 -8 -50 -19z"/>
<path d="M6260 8280 c0 -5 -9 -10 -20 -10 -10 0 -30 -11 -42 -25 -86 -95 -151
-155 -168 -155 -11 0 -20 -4 -20 -10 0 -5 -38 -48 -85 -95 -47 -47 -90 -85
-95 -85 -6 0 -10 -9 -10 -20 0 -11 -20 -40 -45 -64 -25 -25 -45 -52 -45 -60 0
-8 -9 -18 -20 -21 -11 -3 -20 -15 -20 -26 0 -10 -4 -19 -10 -19 -5 0 -10 -9
-10 -19 0 -11 -5 -21 -11 -23 -6 -2 -11 -35 -11 -80 l-1 -76 46 -46 c26 -25
53 -46 62 -46 8 0 15 -4 15 -9 0 -5 15 -12 33 -15 18 -3 39 -15 47 -26 8 -11
21 -20 30 -20 9 0 22 -9 30 -20 8 -11 21 -20 30 -20 9 0 22 -9 30 -20 8 -11
18 -20 23 -20 5 0 22 -13 37 -30 15 -16 35 -30 44 -30 8 0 31 -16 50 -35 20
-19 38 -35 41 -35 3 0 30 -24 60 -52 93 -90 124 -118 130 -118 5 0 88 -79 167
-158 17 -16 55 -54 84 -83 30 -30 68 -68 86 -86 46 -44 58 -60 58 -75 1 -7 19
-29 41 -48 42 -36 108 -102 147 -144 12 -14 22 -32 22 -41 0 -8 4 -15 10 -15
5 0 33 -25 62 -55 145 -151 204 -205 222 -205 8 0 18 -9 21 -20 3 -11 15 -20
26 -20 10 0 19 -4 19 -10 0 -5 18 -10 40 -10 22 0 40 5 40 10 0 6 9 10 20 10
11 0 20 4 20 9 0 13 56 71 69 71 14 0 30 13 84 68 51 51 132 132 189 189 24
23 59 60 78 82 19 22 43 43 53 46 9 4 17 13 17 22 0 8 13 27 29 42 17 16 32
43 36 64 4 20 11 37 16 37 5 0 9 50 9 110 0 64 -4 110 -10 110 -5 0 -12 23
-16 50 -4 28 -10 50 -15 50 -5 0 -9 8 -9 18 0 10 -9 24 -20 32 -11 8 -20 19
-20 25 0 6 -9 17 -20 25 -11 8 -20 21 -20 30 0 9 -9 22 -20 30 -11 8 -20 21
-20 29 0 7 -16 28 -35 47 -19 18 -35 38 -35 44 0 6 -22 33 -50 60 -27 27 -50
55 -50 64 0 8 -9 18 -20 21 -11 3 -20 10 -20 16 0 5 -34 42 -76 83 -94 91 -99
96 -190 190 -41 42 -79 76 -85 76 -5 0 -45 36 -89 80 -44 44 -84 80 -91 80 -6
0 -35 25 -64 55 -29 30 -59 55 -65 55 -14 0 -70 57 -70 71 0 5 -9 9 -20 9 -10
0 -35 16 -54 35 -20 19 -40 35 -47 35 -6 0 -24 14 -39 30 -15 17 -32 30 -37
30 -5 0 -15 9 -23 20 -8 11 -22 20 -31 20 -10 0 -25 7 -34 16 -9 9 -19 13 -23
9 -4 -4 -1 -10 6 -12 7 -3 19 -11 26 -19 8 -8 21 -14 28 -14 7 0 24 -14 38
-31 57 -68 99 -109 114 -109 15 0 63 -45 136 -129 19 -22 41 -40 48 -41 14 0
31 -13 65 -48 12 -12 50 -51 84 -85 73 -72 101 -100 190 -190 36 -35 74 -74
85 -85 62 -62 128 -132 128 -137 0 -3 19 -25 43 -50 57 -59 67 -72 67 -86 0
-6 14 -24 30 -39 17 -15 30 -31 30 -35 0 -4 14 -20 31 -36 18 -16 29 -32 26
-35 -5 -5 -48 33 -118 102 -19 20 -138 138 -193 193 -11 12 -49 51 -84 86 -35
37 -71 65 -82 65 -11 0 -20 4 -20 10 0 8 -135 147 -182 186 -7 6 -20 21 -28
33 -8 11 -20 21 -28 21 -7 0 -42 29 -77 65 -36 36 -70 65 -76 65 -5 0 -37 27
-69 60 -32 33 -66 60 -74 60 -8 0 -17 9 -21 19 -3 11 -15 23 -26 26 -10 4 -19
11 -19 16 0 5 -7 9 -16 9 -9 0 -29 14 -44 30 -15 17 -35 30 -44 30 -9 0 -16 4
-16 8 0 16 -37 52 -54 52 -9 0 -16 4 -16 9 0 5 -18 12 -40 16 -22 4 -40 11
-40 16 0 5 -34 9 -75 9 -43 0 -75 -4 -75 -10z m120 -120 c8 -11 20 -20 28 -20
7 0 24 -11 38 -25 14 -14 32 -25 40 -25 9 0 29 -13 44 -30 15 -16 31 -30 35
-30 4 0 24 -18 45 -40 21 -22 43 -40 50 -40 14 0 60 -46 60 -60 0 -5 -22 -10
-50 -10 -27 0 -50 -4 -50 -10 0 -5 -13 -10 -30 -10 -16 0 -30 -4 -30 -10 0 -5
-7 -10 -15 -10 -8 0 -15 -4 -15 -10 0 -5 -8 -10 -18 -10 -10 0 -24 -9 -32 -20
-8 -11 -20 -20 -28 -20 -7 0 -24 -11 -38 -25 -14 -14 -29 -25 -35 -25 -13 0
-79 -67 -79 -81 0 -6 -13 -24 -30 -39 -16 -15 -30 -35 -30 -43 0 -9 -9 -19
-20 -22 -11 -3 -20 -15 -20 -26 0 -10 -4 -19 -9 -19 -5 0 -12 -18 -16 -40 -4
-22 -11 -40 -16 -40 -5 0 -9 -11 -9 -25 0 -14 -4 -25 -10 -25 -5 0 -10 -22
-10 -50 0 -54 -7 -61 -30 -30 -8 11 -22 20 -32 20 -10 0 -18 5 -18 10 0 6 -9
10 -19 10 -11 0 -23 9 -26 20 -3 11 -15 20 -25 20 -10 0 -25 7 -34 15 -8 8
-21 15 -28 15 -8 0 -20 9 -28 20 -8 11 -21 20 -30 20 -9 0 -22 10 -30 21 -8
12 -21 27 -27 35 -7 7 -13 20 -13 28 0 9 -6 16 -12 17 -10 0 -10 2 0 6 6 2 12
16 12 30 0 13 7 31 15 39 8 9 15 24 15 35 0 10 5 19 10 19 6 0 10 8 10 18 0
10 9 24 20 32 11 8 20 18 20 23 0 5 14 22 30 37 17 15 30 33 30 40 0 6 34 45
75 85 41 41 75 79 75 85 0 15 137 150 152 150 8 0 20 9 28 20 10 14 26 20 55
20 29 0 45 -6 55 -20z m390 -370 c0 -5 14 -10 30 -10 17 0 30 -4 30 -10 0 -5
7 -10 16 -10 8 0 22 -7 30 -15 14 -13 6 -15 -65 -15 -47 0 -81 -4 -81 -10 0
-5 -11 -10 -25 -10 -14 0 -25 -4 -25 -10 0 -5 -9 -10 -20 -10 -11 0 -20 -4
-20 -10 0 -5 -9 -10 -20 -10 -11 0 -20 -4 -20 -10 0 -5 -9 -10 -20 -10 -11 0
-20 -4 -20 -10 0 -11 -75 -87 -109 -110 -11 -8 -21 -21 -21 -30 0 -9 -9 -22
-20 -30 -11 -8 -20 -22 -20 -31 0 -10 -6 -19 -12 -21 -10 -4 -13 -45 -13 -161
0 -144 -2 -157 -18 -157 -19 0 -107 82 -107 100 0 5 -4 10 -10 10 -6 0 -10 35
-10 85 0 50 4 85 10 85 6 0 10 14 10 30 0 17 5 30 10 30 6 0 10 9 10 20 0 11
5 20 10 20 6 0 10 7 10 16 0 17 36 54 52 54 4 0 8 7 8 15 0 17 5 24 62 85 20
22 42 40 49 40 6 0 19 8 28 19 9 10 31 22 49 25 17 4 32 12 32 17 0 5 9 9 20
9 11 0 20 5 20 10 0 6 18 10 40 10 22 0 40 5 40 10 0 6 20 10 45 10 25 0 45
-4 45 -10z m150 -130 c0 -5 23 -10 50 -10 28 0 50 -4 50 -10 0 -5 9 -10 20
-10 11 0 20 -4 20 -10 0 -5 7 -10 15 -10 8 0 15 -4 15 -10 0 -5 8 -10 18 -10
10 0 24 -9 32 -20 8 -11 22 -20 31 -20 21 0 59 -33 59 -51 0 -8 9 -21 19 -29
11 -7 23 -31 26 -52 4 -21 11 -38 16 -38 5 0 9 -7 9 -15 0 -8 5 -15 10 -15 6
0 10 -22 10 -50 0 -27 5 -50 10 -50 6 0 10 -20 10 -45 0 -25 -4 -45 -10 -45
-5 0 -10 -22 -10 -50 0 -27 -4 -50 -10 -50 -5 0 -10 -9 -10 -20 0 -11 -4 -20
-9 -20 -5 0 -13 -14 -16 -31 -7 -32 -131 -167 -142 -155 -3 3 8 19 26 35 17
16 31 35 31 43 0 7 9 20 20 28 12 8 20 26 20 42 0 15 5 28 10 28 6 0 10 11 10
25 0 14 5 25 10 25 6 0 10 27 10 60 0 33 -4 60 -10 60 -5 0 -10 -18 -10 -40 0
-22 -4 -40 -10 -40 -5 0 -10 -13 -10 -30 0 -16 -4 -30 -10 -30 -5 0 -10 -6
-10 -13 0 -7 -9 -19 -20 -27 -11 -8 -20 -20 -20 -27 0 -8 -19 -34 -42 -58 -24
-25 -53 -56 -66 -70 -12 -14 -32 -25 -42 -25 -11 0 -20 -4 -20 -10 0 -5 -9
-10 -20 -10 -11 0 -20 -4 -20 -10 0 -5 -9 -10 -20 -10 -11 0 -20 -4 -20 -10 0
-6 -38 -10 -95 -10 -57 0 -95 4 -95 10 0 6 -7 10 -15 10 -8 0 -15 5 -15 10 0
6 -9 10 -20 10 -11 0 -20 5 -20 10 0 6 -9 10 -20 10 -11 0 -34 16 -52 35 -18
19 -48 51 -65 70 -18 19 -33 41 -33 50 0 8 -4 15 -10 15 -5 0 -10 7 -10 15 0
8 -4 15 -10 15 -5 0 -10 14 -10 30 0 17 -4 30 -10 30 -5 0 -10 23 -10 50 0 28
-4 50 -10 50 -5 0 -10 7 -10 15 0 8 5 15 10 15 6 0 10 30 10 70 0 40 4 70 10
70 6 0 10 7 10 15 0 8 5 15 10 15 6 0 10 9 10 20 0 11 5 20 10 20 6 0 10 7 10
16 0 9 14 29 30 44 17 15 30 35 30 44 0 9 7 16 15 16 8 0 25 11 39 25 14 14
32 25 41 25 8 0 15 5 15 10 0 6 9 10 20 10 11 0 20 5 20 10 0 6 7 10 15 10 8
0 15 5 15 10 0 6 23 10 50 10 28 0 50 5 50 10 0 6 20 10 45 10 25 0 45 -4 45
-10z m570 -635 c0 -43 -4 -75 -10 -75 -5 0 -10 -9 -10 -20 0 -11 -4 -20 -10
-20 -5 0 -10 -9 -10 -20 0 -10 -11 -30 -25 -44 -14 -14 -25 -28 -25 -31 0 -11
-69 -75 -81 -75 -13 0 -49 -38 -49 -52 0 -4 -7 -8 -16 -8 -8 0 -22 -7 -30 -15
-9 -8 -29 -15 -45 -15 -16 0 -29 -4 -29 -10 0 -5 -9 -10 -20 -10 -11 0 -20 -4
-20 -10 0 -5 -16 -10 -35 -10 -19 0 -35 -4 -35 -10 0 -5 -22 -10 -50 -10 -27
0 -50 5 -50 10 0 6 -11 10 -25 10 -14 0 -25 5 -25 10 0 6 25 10 55 10 30 0 55
4 55 9 0 4 19 11 42 14 24 3 44 11 46 16 2 6 11 11 21 11 9 0 23 9 31 20 8 11
21 20 30 20 9 0 22 9 30 20 8 11 21 20 30 20 9 0 22 10 30 21 8 12 20 27 26
33 6 6 21 18 33 26 11 8 21 21 21 28 0 8 14 27 30 42 17 15 30 35 30 44 0 9 5
16 10 16 6 0 10 9 10 19 0 11 5 21 11 23 5 2 13 22 16 46 4 32 10 42 24 42 17
0 19 -8 19 -75z m156 -149 c8 -8 14 -22 14 -30 0 -9 5 -16 10 -16 6 0 10 -25
10 -55 0 -30 -4 -55 -10 -55 -5 0 -10 -13 -10 -30 0 -16 -4 -30 -10 -30 -5 0
-10 -7 -10 -15 0 -18 25 -20 46 -2 57 47 114 108 114 121 0 9 4 16 9 16 5 0
11 10 13 22 4 25 28 37 28 14 0 -9 5 -16 10 -16 6 0 10 -18 10 -40 0 -22 -4
-40 -10 -40 -5 0 -10 -13 -10 -30 0 -16 -4 -30 -10 -30 -5 0 -12 -16 -16 -35
-3 -19 -10 -35 -15 -35 -5 0 -9 -8 -9 -18 0 -10 -9 -24 -20 -32 -11 -8 -20
-21 -20 -29 0 -14 -37 -51 -52 -51 -4 0 -8 -7 -8 -15 0 -26 -145 -175 -171
-175 -6 0 -24 -13 -39 -30 -15 -16 -32 -30 -37 -30 -5 0 -15 -9 -23 -20 -8
-11 -22 -20 -32 -20 -10 0 -18 -4 -18 -10 0 -5 -17 -10 -38 -10 -27 0 -42 6
-52 21 -8 12 -34 41 -57 65 -24 24 -43 46 -43 50 0 3 -13 19 -30 34 -37 34
-41 87 -10 110 11 8 20 20 20 27 0 7 9 13 20 13 11 0 20 5 20 10 0 6 8 10 18
10 10 0 24 9 32 20 8 11 18 20 23 20 5 0 26 18 47 40 21 22 43 40 50 40 14 0
90 75 90 90 0 6 18 29 40 50 22 21 40 45 40 54 0 8 9 18 20 21 11 3 20 13 20
21 0 16 20 43 33 44 5 0 15 -6 23 -14z"/>
<path d="M6300 8110 c0 -5 -9 -10 -20 -10 -11 0 -20 -7 -20 -15 0 -19 46 -20
66 -1 20 20 17 36 -6 36 -11 0 -20 -4 -20 -10z"/>
<path d="M6830 7510 c0 -5 -18 -10 -40 -10 -22 0 -40 -4 -40 -10 0 -5 -5 -10
-10 -10 -6 0 -35 -25 -65 -55 -31 -30 -60 -55 -65 -55 -6 0 -10 -13 -10 -30 0
-16 -4 -30 -10 -30 -5 0 -10 -18 -10 -40 0 -22 -4 -40 -10 -40 -5 0 -10 -11
-10 -25 0 -14 5 -25 10 -25 6 0 10 -18 10 -40 0 -22 5 -40 10 -40 6 0 10 -9
10 -20 0 -11 5 -20 10 -20 6 0 10 -9 10 -20 0 -11 4 -20 10 -20 5 0 25 -16 44
-35 20 -19 40 -35 46 -35 5 0 10 -4 10 -10 0 -5 9 -10 20 -10 11 0 20 -4 20
-10 0 -5 18 -10 40 -10 22 0 40 -4 40 -10 0 -5 14 -10 30 -10 17 0 30 5 30 10
0 6 16 10 35 10 19 0 35 5 35 10 0 6 9 10 20 10 11 0 20 5 20 10 0 6 8 10 18
10 10 0 24 10 32 21 8 12 20 27 26 33 6 6 21 18 33 26 11 8 21 22 21 32 0 10
5 18 10 18 6 0 10 18 10 40 0 22 5 40 10 40 6 0 10 20 10 45 0 25 -4 45 -10
45 -5 0 -10 18 -10 40 0 22 -4 40 -10 40 -5 0 -10 9 -10 20 0 11 -4 20 -10 20
-10 0 -38 28 -80 79 -14 17 -33 31 -42 31 -10 0 -18 5 -18 10 0 6 -18 10 -40
10 -22 0 -40 5 -40 10 0 6 -20 10 -45 10 -25 0 -45 -4 -45 -10z"/>
<path d="M5663 7355 c-26 -29 -3 -65 41 -65 24 0 26 4 26 40 0 37 -2 40 -27
40 -16 -1 -34 -7 -40 -15z"/>
<path d="M5790 7250 c0 -11 5 -20 10 -20 6 0 10 -9 10 -20 0 -20 1 -19 26 5
22 22 23 27 10 40 -22 22 -56 19 -56 -5z"/>
<path d="M6010 7030 c0 -5 5 -10 10 -10 6 0 10 5 10 10 0 6 -4 10 -10 10 -5 0
-10 -4 -10 -10z"/>
<path d="M7563 5985 c-19 -21 -16 -25 17 -25 23 0 30 4 30 20 0 23 -29 26 -47
5z"/>
<path d="M7288 5908 c-26 -33 -23 -58 7 -58 14 0 25 -4 25 -10 0 -5 9 -10 20
-10 17 0 20 7 20 50 0 48 -1 50 -27 50 -17 0 -35 -9 -45 -22z"/>
<path d="M2770 8320 c0 -5 -11 -10 -25 -10 -14 0 -25 -4 -25 -10 0 -5 -9 -10
-20 -10 -11 0 -20 -4 -20 -9 0 -5 -18 -12 -40 -16 -22 -4 -40 -11 -40 -16 0
-5 -9 -9 -19 -9 -11 0 -23 -9 -26 -20 -3 -11 -14 -20 -23 -20 -10 0 -24 -9
-32 -20 -8 -11 -20 -20 -28 -20 -7 0 -28 -16 -48 -35 -19 -19 -39 -35 -45 -35
-6 0 -24 -13 -39 -30 -15 -16 -33 -30 -40 -30 -6 0 -33 -22 -60 -50 -27 -27
-51 -50 -55 -50 -9 0 -30 -19 -110 -99 -40 -40 -78 -78 -84 -85 -7 -6 -45 -44
-85 -85 -41 -40 -83 -82 -94 -93 -11 -11 -54 -54 -96 -94 -42 -41 -76 -79 -76
-85 0 -5 -31 -41 -70 -79 -38 -38 -70 -74 -70 -80 0 -6 -20 -30 -45 -54 -25
-25 -45 -49 -45 -56 0 -6 -18 -29 -40 -50 -22 -21 -40 -42 -40 -46 0 -3 -10
-15 -22 -25 -11 -11 -19 -22 -15 -25 3 -3 16 3 29 15 89 82 108 101 108 111 0
12 13 30 48 63 12 12 56 55 96 96 104 104 106 105 189 188 41 41 79 80 85 85
73 73 163 158 167 158 7 0 34 24 110 98 30 28 57 52 60 52 3 0 21 15 40 33 50
47 63 57 76 57 6 0 24 14 39 30 15 17 31 30 35 30 4 0 20 14 35 30 15 17 34
30 42 30 7 0 20 9 28 20 15 21 50 28 50 10 0 -5 -7 -10 -15 -10 -9 0 -47 -33
-86 -72 -79 -83 -72 -76 -144 -145 -30 -29 -61 -53 -69 -53 -8 0 -17 -8 -20
-18 -3 -10 -16 -24 -28 -32 -11 -8 -54 -48 -93 -89 -40 -40 -81 -82 -91 -92
-11 -10 -49 -49 -87 -86 -37 -38 -75 -76 -85 -86 -9 -9 -45 -44 -79 -76 -35
-33 -63 -65 -63 -71 0 -11 -14 -31 -38 -53 -84 -79 -132 -128 -132 -137 0 -6
-16 -26 -35 -44 -19 -19 -35 -39 -35 -45 0 -7 -18 -30 -40 -51 -22 -21 -40
-45 -40 -52 0 -7 -9 -20 -20 -28 -11 -8 -20 -20 -20 -26 0 -7 -6 -14 -12 -16
-9 -3 -13 -33 -13 -100 0 -95 0 -96 33 -126 17 -16 32 -36 32 -44 0 -7 14 -24
31 -38 59 -48 139 -136 139 -152 0 -8 10 -20 22 -28 11 -8 39 -34 62 -58 23
-23 65 -67 94 -97 29 -30 60 -55 68 -55 9 0 29 -13 44 -30 15 -16 33 -30 39
-30 6 0 11 -4 11 -10 0 -5 9 -10 20 -10 11 0 20 -4 20 -10 0 -5 9 -10 20 -10
11 0 20 -4 20 -10 0 -5 25 -10 55 -10 30 0 55 5 55 10 0 6 7 10 15 10 20 0 85
65 85 84 0 8 9 17 19 21 13 4 22 19 26 44 3 20 15 44 26 51 10 8 19 21 19 28
0 8 14 27 30 42 17 15 30 31 30 34 0 4 16 22 35 42 19 19 35 42 35 52 0 9 14
28 31 42 31 26 144 137 167 164 6 8 12 22 12 31 0 8 4 15 10 15 5 0 34 25 65
55 30 30 57 55 60 55 11 0 183 168 225 219 14 17 33 31 42 31 10 0 42 25 73
55 30 30 57 55 60 55 3 0 21 15 40 33 72 67 85 77 100 77 8 0 15 4 15 9 0 16
118 131 134 131 8 0 26 11 38 25 67 74 150 155 158 155 6 0 10 9 10 20 0 11 5
20 10 20 6 0 10 23 10 50 0 28 -4 50 -10 50 -5 0 -10 9 -10 20 0 11 -4 20 -8
20 -14 0 -52 36 -52 49 0 6 -20 32 -45 57 -25 24 -45 49 -45 54 0 5 -9 12 -20
15 -11 3 -20 13 -20 21 0 18 -324 344 -342 344 -8 0 -20 9 -28 20 -8 12 -26
20 -42 20 -15 0 -28 5 -28 10 0 6 -42 10 -105 10 -63 0 -105 -4 -105 -10z
m140 -150 c0 -5 11 -10 25 -10 14 0 25 -4 25 -10 0 -5 9 -10 20 -10 11 0 20
-4 20 -10 0 -5 7 -10 16 -10 8 0 22 -7 30 -15 9 -8 24 -15 35 -15 10 0 19 -4
19 -9 0 -13 56 -71 69 -71 15 0 151 -137 151 -151 0 -6 14 -24 30 -39 17 -15
30 -34 30 -42 0 -7 9 -20 20 -28 11 -8 20 -20 20 -27 0 -7 5 -13 10 -13 6 0
10 -9 10 -20 0 -11 5 -20 10 -20 6 0 10 -16 10 -36 0 -35 -7 -44 -74 -101 -9
-7 -20 -13 -26 -13 -7 0 -29 -18 -50 -40 -21 -22 -43 -40 -49 -40 -6 0 -11 -4
-11 -10 0 -5 -9 -10 -20 -10 -11 0 -20 5 -20 10 0 6 -7 10 -15 10 -24 0 -82
63 -89 97 -4 16 -16 35 -26 43 -11 8 -20 21 -20 28 0 8 -13 27 -30 42 -16 15
-30 34 -30 42 0 7 -10 20 -21 28 -28 19 -60 51 -79 79 -8 11 -21 21 -28 21 -7
0 -30 17 -50 38 -21 21 -50 42 -65 46 -22 5 -27 12 -27 36 0 23 4 30 20 30 11
0 20 5 20 10 0 6 30 10 70 10 40 0 70 -4 70 -10 0 -5 7 -10 15 -10 8 0 15 -4
15 -10 0 -5 14 -10 30 -10 17 0 30 5 30 10 0 6 -4 10 -10 10 -5 0 -10 7 -10
15 0 9 -15 31 -32 50 -18 19 -39 41 -46 49 -7 9 -22 16 -32 16 -11 0 -20 5
-20 10 0 6 -7 10 -16 10 -15 0 -44 23 -44 34 0 3 9 6 20 6 11 0 20 5 20 10 0
6 18 10 40 10 22 0 40 -4 40 -10z m-290 -360 c0 -5 14 -10 30 -10 17 0 30 -4
30 -10 0 -5 9 -10 19 -10 11 0 23 -9 26 -20 3 -11 18 -23 32 -27 28 -6 113
-85 113 -103 0 -6 11 -22 25 -36 14 -14 25 -31 25 -39 0 -8 5 -15 10 -15 6 0
10 -9 10 -20 0 -11 5 -20 10 -20 6 0 10 -9 10 -20 0 -11 5 -20 10 -20 6 0 10
-18 10 -40 0 -22 5 -40 10 -40 6 0 10 -35 10 -85 0 -50 -4 -85 -10 -85 -5 0
-10 14 -10 30 0 17 -4 30 -10 30 -5 0 -10 18 -10 40 0 22 -4 40 -10 40 -5 0
-10 7 -10 15 0 8 -4 15 -9 15 -5 0 -12 18 -16 40 -4 22 -11 40 -16 40 -5 0 -9
7 -9 16 0 9 -13 29 -30 44 -16 15 -30 31 -30 34 0 4 -25 31 -55 61 -30 31 -55
60 -55 65 0 6 -7 10 -15 10 -9 0 -27 11 -41 25 -14 14 -34 25 -44 25 -11 0
-20 5 -20 10 0 6 -11 10 -25 10 -14 0 -25 5 -25 10 0 6 -9 10 -20 10 -23 0
-25 5 -7 25 14 16 97 20 97 5z m-110 -170 c0 -5 11 -10 25 -10 14 0 25 -4 25
-10 0 -5 9 -10 20 -10 11 0 20 -4 20 -10 0 -5 7 -10 16 -10 9 0 24 -8 33 -18
9 -11 28 -22 43 -26 19 -4 30 -15 34 -34 4 -15 16 -35 27 -45 11 -9 17 -20 14
-24 -7 -6 -27 14 -57 56 -8 12 -22 21 -32 21 -10 0 -18 4 -18 9 0 5 -18 12
-40 16 -22 4 -40 11 -40 16 0 5 -20 9 -45 9 -25 0 -45 5 -45 10 0 6 -13 10
-30 10 -16 0 -30 -4 -30 -10 0 -5 9 -10 20 -10 11 0 20 -4 20 -9 0 -5 24 -12
53 -15 36 -5 58 -13 67 -26 8 -11 20 -20 28 -20 14 0 112 -96 112 -110 0 -5 9
-12 20 -15 11 -3 20 -15 20 -26 0 -10 5 -19 10 -19 6 0 10 -9 10 -20 0 -11 5
-20 10 -20 6 0 10 -9 10 -20 0 -11 5 -20 10 -20 6 0 10 -42 10 -105 0 -63 -4
-105 -10 -105 -5 0 -10 -7 -10 -15 0 -8 -4 -15 -10 -15 -5 0 -10 -8 -10 -18 0
-10 -9 -24 -20 -32 -11 -8 -20 -20 -20 -28 0 -7 -6 -19 -12 -28 -47 -55 -66
-71 -90 -78 -16 -3 -28 -11 -28 -16 0 -6 -9 -10 -20 -10 -11 0 -20 -4 -20 -10
0 -5 -11 -10 -25 -10 -14 0 -25 -4 -25 -10 0 -5 -18 -10 -40 -10 -22 0 -40 -4
-40 -10 0 -6 -28 -10 -65 -10 -37 0 -65 4 -65 10 0 6 -18 10 -40 10 -22 0 -40
5 -40 10 0 6 -9 10 -20 10 -11 0 -20 5 -20 10 0 6 -7 10 -15 10 -8 0 -15 5
-15 10 0 6 -9 10 -20 10 -26 0 -150 124 -150 150 0 11 -4 20 -10 20 -5 0 -10
7 -10 15 0 8 -4 15 -10 15 -5 0 -10 14 -10 30 0 17 -4 30 -10 30 -6 0 -10 48
-10 125 0 77 4 125 10 125 6 0 10 11 10 25 0 14 5 25 10 25 6 0 10 9 10 20 0
11 4 20 10 20 5 0 13 12 16 27 6 24 39 61 98 111 8 6 21 12 28 12 8 0 20 9 28
20 8 11 20 20 27 20 7 0 13 5 13 10 0 6 14 10 30 10 17 0 30 5 30 10 0 6 48
10 125 10 77 0 125 -4 125 -10z m-650 -485 c0 -43 4 -75 10 -75 6 0 10 -13 10
-30 0 -16 5 -30 10 -30 6 0 10 -11 10 -25 0 -14 5 -25 10 -25 6 0 10 -8 10
-18 0 -10 9 -24 20 -32 11 -8 20 -20 20 -28 0 -17 115 -132 132 -132 8 0 20
-9 28 -20 8 -11 22 -20 32 -20 10 0 18 -4 18 -10 0 -5 11 -10 25 -10 14 0 25
-4 25 -10 0 -6 52 -10 135 -10 83 0 135 -4 135 -10 0 -5 -4 -10 -10 -10 -5 0
-10 -5 -10 -10 0 -16 -68 -80 -85 -80 -8 0 -15 -4 -15 -10 0 -6 -37 -10 -90
-10 -53 0 -90 4 -90 10 0 6 -9 10 -20 10 -11 0 -20 5 -20 10 0 6 -9 10 -20 10
-11 0 -20 5 -20 10 0 6 -8 10 -18 10 -10 0 -24 9 -32 20 -8 11 -21 20 -28 20
-16 0 -112 95 -112 111 0 6 -13 24 -30 39 -16 15 -30 33 -30 39 0 6 -4 11 -9
11 -5 0 -12 18 -16 40 -4 22 -11 40 -16 40 -5 0 -9 18 -9 40 0 22 -4 40 -10
40 -5 0 -10 20 -10 45 0 25 5 45 10 45 6 0 10 14 10 30 0 17 4 30 10 30 5 0
12 16 16 35 11 60 24 38 24 -40z m-150 -140 c0 -25 5 -45 10 -45 6 0 10 -13
10 -30 0 -16 5 -30 10 -30 6 0 10 -13 10 -30 0 -16 5 -30 10 -30 6 0 10 -6 10
-13 0 -7 9 -19 20 -27 11 -8 20 -20 20 -28 0 -7 6 -20 13 -27 30 -34 37 -45
37 -57 0 -8 10 -20 21 -28 12 -8 27 -21 35 -27 7 -7 18 -13 24 -13 14 0 70
-57 70 -71 0 -5 9 -9 20 -9 11 0 20 -4 20 -10 0 -5 8 -10 18 -10 10 0 24 -9
32 -20 8 -11 26 -20 41 -20 15 0 29 -4 31 -10 2 -5 31 -13 66 -16 34 -4 62
-10 62 -13 0 -4 -9 -13 -20 -21 -11 -8 -20 -21 -20 -30 0 -9 -9 -22 -20 -30
-11 -8 -20 -22 -20 -32 0 -10 -4 -18 -9 -18 -5 0 -13 -10 -17 -22 -4 -13 -20
-35 -35 -49 -16 -15 -29 -32 -29 -38 0 -6 -20 -32 -45 -56 -33 -34 -52 -45
-75 -45 -16 0 -30 5 -30 10 0 6 -9 10 -20 10 -11 0 -20 5 -20 10 0 6 -8 10
-18 10 -10 0 -24 9 -32 20 -8 11 -22 20 -32 20 -10 0 -18 4 -18 8 0 14 -36 52
-49 52 -13 0 -38 21 -104 88 -41 41 -73 73 -180 179 -80 80 -97 101 -97 118 0
8 -4 15 -10 15 -19 0 -11 65 10 80 11 8 20 22 20 32 0 10 4 18 9 18 5 0 12 9
16 19 3 11 15 23 26 26 10 4 19 13 19 21 0 9 18 33 40 54 22 21 40 43 40 49 0
18 93 109 113 110 14 1 17 -7 17 -44z"/>
<path d="M2280 7490 c0 -5 -9 -10 -20 -10 -11 0 -20 -4 -20 -10 0 -5 -9 -10
-20 -10 -11 0 -20 -4 -20 -10 0 -5 -16 -25 -35 -44 -19 -20 -35 -40 -35 -46 0
-5 -4 -10 -10 -10 -5 0 -10 -9 -10 -20 0 -11 -4 -20 -10 -20 -6 0 -10 -42 -10
-105 0 -63 4 -105 10 -105 6 0 10 -9 10 -20 0 -11 5 -20 10 -20 6 0 10 -9 10
-20 0 -11 4 -20 10 -20 10 0 48 -36 70 -69 8 -11 22 -21 32 -21 10 0 18 -4 18
-10 0 -5 18 -10 40 -10 22 0 40 -4 40 -10 0 -5 25 -10 55 -10 30 0 55 5 55 10
0 6 14 10 30 10 17 0 30 5 30 10 0 6 9 10 20 10 11 0 20 5 20 10 0 6 5 10 10
10 14 0 80 66 80 80 0 5 5 10 10 10 6 0 10 9 10 20 0 11 5 20 10 20 6 0 10 14
10 30 0 17 5 30 10 30 6 0 10 28 10 65 0 37 -4 65 -10 65 -5 0 -10 14 -10 30
0 17 -4 30 -10 30 -5 0 -10 9 -10 20 0 11 -4 20 -10 20 -12 0 -100 88 -100
100 0 6 -13 10 -30 10 -16 0 -30 5 -30 10 0 6 -42 10 -105 10 -63 0 -105 -4
-105 -10z"/>
<path d="M1454 6669 c5 -28 27 -59 40 -59 12 0 5 62 -8 76 -25 24 -39 17 -32
-17z"/>
<path d="M3610 7880 c0 -11 5 -20 10 -20 6 0 10 -9 10 -20 0 -11 7 -20 15 -20
19 0 20 46 1 66 -20 20 -36 17 -36 -6z"/>
<path d="M3680 7610 c0 -11 5 -20 10 -20 6 0 10 -9 10 -20 0 -11 6 -20 14 -20
8 0 21 -3 30 -6 12 -5 16 0 16 20 0 14 5 26 10 26 6 0 10 9 10 20 0 17 -7 20
-50 20 -43 0 -50 -3 -50 -20z"/>
<path d="M2530 6350 c0 -5 5 -10 10 -10 6 0 10 5 10 10 0 6 -4 10 -10 10 -5 0
-10 -4 -10 -10z"/>
<path d="M2300 6170 c0 -11 -4 -20 -10 -20 -5 0 -10 -9 -10 -20 0 -13 7 -20
20 -20 11 0 20 5 20 10 0 6 9 10 20 10 26 0 25 6 -5 35 -29 30 -35 31 -35 5z"/>
<path d="M2190 6036 c0 -35 10 -56 27 -56 19 0 43 25 43 44 0 9 5 16 10 16 6
0 10 5 10 10 0 6 -20 10 -45 10 -41 0 -45 -2 -45 -24z"/>
<path d="M3630 4080 c0 -5 -13 -10 -30 -10 -23 0 -30 -4 -30 -20 0 -11 5 -20
10 -20 6 0 10 -9 10 -20 0 -13 7 -20 20 -20 11 0 20 4 20 10 0 5 11 20 25 34
14 14 25 32 25 41 0 9 -9 15 -25 15 -14 0 -25 -4 -25 -10z"/>
<path d="M3617 6288 c-7 -4 -5 -11 5 -22 9 -9 18 -21 21 -28 2 -8 8 -9 13 -4
5 5 4 11 -3 13 -20 7 -15 23 7 23 13 0 20 -7 20 -19 0 -11 6 -22 13 -25 10 -5
10 -7 0 -12 -18 -8 -16 -24 3 -24 8 0 23 -7 31 -16 13 -13 14 -17 3 -24 -11
-7 -10 -11 3 -25 16 -15 18 -15 33 -1 14 15 13 19 -15 45 -17 16 -31 36 -31
45 0 9 -4 16 -10 16 -5 0 -10 9 -10 20 0 11 -4 20 -10 20 -5 0 -10 6 -10 14 0
14 -42 17 -63 4z m143 -148 c0 -5 -4 -10 -10 -10 -5 0 -10 5 -10 10 0 6 5 10
10 10 6 0 10 -4 10 -10z"/>
<path d="M3780 6074 c0 -10 31 -36 37 -31 3 3 -2 13 -10 22 -16 15 -27 19 -27
9z"/>
<path d="M6030 5950 c0 -5 5 -10 10 -10 6 0 10 5 10 10 0 6 -4 10 -10 10 -5 0
-10 -4 -10 -10z"/>
<path d="M5931 5894 c-7 -8 -10 -18 -6 -22 4 -4 10 -1 12 6 7 19 23 14 23 -8
0 -13 -7 -20 -20 -20 -11 0 -20 -4 -20 -10 0 -18 31 -10 55 15 30 29 31 35 5
35 -11 0 -20 5 -20 10 0 14 -13 12 -29 -6z"/>
<path d="M5900 5800 c0 -5 5 -10 10 -10 6 0 10 5 10 10 0 6 -4 10 -10 10 -5 0
-10 -4 -10 -10z"/>
<path d="M5860 5780 c0 -5 5 -10 10 -10 6 0 10 5 10 10 0 6 -4 10 -10 10 -5 0
-10 -4 -10 -10z"/>
<path d="M5730 5710 c0 -5 5 -10 10 -10 6 0 10 5 10 10 0 6 -4 10 -10 10 -5 0
-10 -4 -10 -10z"/>
<path d="M4000 5804 c0 -10 31 -36 37 -31 3 3 -2 13 -10 22 -16 15 -27 19 -27
9z"/>
<path d="M4080 5730 c0 -5 5 -10 10 -10 6 0 10 5 10 10 0 6 -4 10 -10 10 -5 0
-10 -4 -10 -10z"/>
<path d="M4190 5590 c0 -5 5 -10 10 -10 6 0 10 5 10 10 0 6 -4 10 -10 10 -5 0
-10 -4 -10 -10z"/>
<path d="M5350 5350 c0 -5 5 -10 10 -10 6 0 10 5 10 10 0 6 -4 10 -10 10 -5 0
-10 -4 -10 -10z"/>
<path d="M5220 5210 c0 -5 5 -10 10 -10 6 0 10 5 10 10 0 6 -4 10 -10 10 -5 0
-10 -4 -10 -10z"/>
<path d="M5010 5015 c0 -8 3 -15 6 -15 3 0 12 7 20 15 14 13 13 15 -5 15 -12
0 -21 -6 -21 -15z"/>
<path d="M4950 4970 c0 -5 5 -10 10 -10 6 0 10 5 10 10 0 6 -4 10 -10 10 -5 0
-10 -4 -10 -10z"/>
<path d="M4727 4668 c-10 -11 -16 -22 -14 -25 5 -5 47 33 47 42 0 10 -16 3
-33 -17z"/>
<path d="M4590 4570 c0 -5 5 -10 10 -10 6 0 10 5 10 10 0 6 -4 10 -10 10 -5 0
-10 -4 -10 -10z"/>
<path d="M4480 4460 c0 -5 5 -10 10 -10 6 0 10 5 10 10 0 6 -4 10 -10 10 -5 0
-10 -4 -10 -10z"/>
<path d="M4460 4410 c0 -22 15 -27 24 -7 5 10 7 10 12 0 7 -15 44 -17 44 -3 0
6 -9 10 -20 10 -11 0 -20 5 -20 10 0 6 -9 10 -20 10 -13 0 -20 -7 -20 -20z"/>
<path d="M4420 4380 c0 -5 5 -10 10 -10 6 0 10 5 10 10 0 6 -4 10 -10 10 -5 0
-10 -4 -10 -10z"/>
<path d="M5140 4686 c0 -13 -5 -26 -12 -28 -19 -7 37 -58 62 -58 26 0 61 31
42 38 -6 2 -12 8 -12 13 0 16 -48 59 -65 59 -9 0 -15 -9 -15 -24z"/>
<path d="M5240 4574 c0 -27 26 -61 38 -49 4 4 1 10 -5 12 -15 5 -17 43 -3 43
6 0 10 5 10 10 0 6 -9 10 -20 10 -15 0 -20 -7 -20 -26z"/>
<path d="M5350 4510 c0 -5 5 -10 10 -10 6 0 10 5 10 10 0 6 -4 10 -10 10 -5 0
-10 -4 -10 -10z"/>
<path d="M5310 4490 c0 -5 4 -10 10 -10 5 0 30 -21 55 -46 26 -25 49 -43 53
-39 3 3 0 10 -8 16 -13 8 -13 10 -1 18 12 8 11 12 -3 27 -14 14 -19 15 -26 4
-7 -11 -11 -11 -24 1 -46 41 -56 47 -56 29z m100 -50 c0 -5 -4 -10 -10 -10 -5
0 -10 5 -10 10 0 6 5 10 10 10 6 0 10 -4 10 -10z"/>
<path d="M5520 4320 c0 -5 5 -10 10 -10 6 0 10 5 10 10 0 6 -4 10 -10 10 -5 0
-10 -4 -10 -10z"/>
<path d="M5410 3840 c0 -53 2 -60 20 -60 11 0 20 5 20 10 0 6 7 10 15 10 18 0
20 27 3 44 -7 8 -20 23 -28 35 -23 34 -30 25 -30 -39z"/>
<path d="M6850 3920 c0 -11 5 -20 10 -20 6 0 10 9 10 20 0 11 -4 20 -10 20 -5
0 -10 -9 -10 -20z"/>
<path d="M4020 3870 c0 -5 5 -10 10 -10 6 0 10 5 10 10 0 6 -4 10 -10 10 -5 0
-10 -4 -10 -10z"/>
<path d="M1646 3484 c-10 -27 -7 -44 9 -44 8 0 15 -4 15 -10 0 -5 5 -10 10
-10 6 0 10 18 10 40 0 33 -4 40 -19 40 -10 0 -22 -7 -25 -16z"/>
<path d="M7550 3540 c0 -11 5 -20 10 -20 6 0 10 9 10 20 0 11 -4 20 -10 20 -5
0 -10 -9 -10 -20z"/>
<path d="M2222 2301 c-27 -22 -28 -31 -4 -31 10 0 24 -9 32 -20 22 -31 30 -24
30 25 0 37 -3 45 -18 45 -11 0 -29 -8 -40 -19z"/>
<path d="M2320 2190 c0 -22 3 -40 6 -40 14 0 44 45 39 58 -3 7 -5 16 -5 18 0
2 -9 4 -20 4 -17 0 -20 -7 -20 -40z"/>
<path d="M7223 2515 c-15 -17 -17 -55 -3 -55 6 0 10 5 10 10 0 6 9 10 20 10
11 0 20 5 20 10 0 6 -4 10 -10 10 -5 0 -10 7 -10 15 0 19 -11 19 -27 0z"/>
<path d="M7110 2414 c0 -14 7 -32 15 -40 13 -13 18 -12 40 10 38 38 33 56 -15
56 -36 0 -40 -2 -40 -26z"/>
<path d="M4040 2620 c0 -5 5 -10 10 -10 6 0 10 5 10 10 0 6 -4 10 -10 10 -5 0
-10 -4 -10 -10z"/>
<path d="M4000 2560 c0 -5 5 -10 10 -10 6 0 10 5 10 10 0 6 -4 10 -10 10 -5 0
-10 -4 -10 -10z"/>
<path d="M5920 1874 c0 -20 24 -44 44 -44 9 0 16 8 16 20 0 11 5 20 10 20 6 0
10 5 10 10 0 6 -18 10 -40 10 -30 0 -40 -4 -40 -16z"/>
<path d="M3300 1820 c0 -16 5 -30 10 -30 6 0 10 14 10 30 0 17 -4 30 -10 30
-5 0 -10 -13 -10 -30z"/>
</g>
</svg>
