<?xml version="1.0" standalone="no"?>
<!DOCTYPE svg PUBLIC "-//W3C//DTD SVG 20010904//EN"
 "http://www.w3.org/TR/2001/REC-SVG-20010904/DTD/svg10.dtd">
<svg version="1.0" xmlns="http://www.w3.org/2000/svg"
 width="920.000000pt" height="1302.000000pt" viewBox="0 0 920.000000 1302.000000"
 preserveAspectRatio="xMidYMid meet">

<g transform="translate(0.000000,1302.000000) scale(0.100000,-0.100000)"
fill="#000000" stroke="none">
<path d="M4760 10991 c-14 -27 -13 -114 2 -129 7 -7 33 -12 58 -12 25 0 51 5
58 12 7 7 12 37 12 68 0 31 -5 61 -12 68 -7 7 -33 12 -60 12 -37 0 -50 -4 -58
-19z"/>
<path d="M4922 10998 c-17 -17 -16 -123 2 -137 8 -7 36 -11 63 -9 l48 3 3 63
c2 38 -2 69 -9 78 -14 17 -90 19 -107 2z"/>
<path d="M5070 10991 c-5 -11 -10 -38 -10 -61 0 -65 13 -80 68 -80 27 0 53 5
60 12 7 7 12 37 12 68 0 31 -5 61 -12 68 -7 7 -33 12 -60 12 -37 0 -50 -4 -58
-19z"/>
<path d="M4480 10809 c-711 -10 -1050 -36 -1183 -92 -39 -16 -51 -27 -67 -65
-12 -25 -18 -52 -16 -59 8 -19 3514 -19 3522 0 2 7 -5 35 -17 61 -16 36 -29
51 -56 63 -183 76 -943 108 -2183 92z"/>
<path d="M3230 10200 l0 -321 68 4 67 3 3 317 2 317 -70 0 -70 0 0 -320z"/>
<path d="M3487 10203 l2 -318 66 -1 65 -2 0 319 0 319 -67 0 -68 0 2 -317z"/>
<path d="M3742 10203 l3 -318 68 -3 67 -3 0 321 0 320 -70 0 -70 0 2 -317z"/>
<path d="M4002 10203 l3 -317 68 -4 67 -3 0 320 0 321 -70 0 -70 0 2 -317z"/>
<path d="M4262 10203 l3 -316 68 -3 67 -3 0 319 0 320 -70 0 -70 0 2 -317z"/>
<path d="M4520 10202 l0 -318 68 1 67 1 3 317 2 317 -70 0 -70 0 0 -318z"/>
<path d="M4780 10202 l0 -318 68 1 67 1 3 317 2 317 -70 0 -70 0 0 -318z"/>
<path d="M5040 10200 l0 -320 65 2 65 3 0 318 0 317 -65 0 -65 0 0 -320z"/>
<path d="M5292 10203 l3 -318 68 -1 67 -2 0 319 0 319 -70 0 -70 0 2 -317z"/>
<path d="M5552 10203 l3 -318 68 -3 67 -3 0 321 0 320 -70 0 -70 0 2 -317z"/>
<path d="M5812 10203 l3 -317 68 -4 67 -4 0 321 0 321 -70 0 -70 0 2 -317z"/>
<path d="M6070 10202 l0 -317 68 0 67 0 3 318 2 317 -70 0 -70 0 0 -318z"/>
<path d="M6330 10202 l0 -318 68 1 67 1 3 317 2 317 -70 0 -70 0 0 -318z"/>
<path d="M6590 10202 l0 -318 67 1 66 0 2 318 2 317 -69 0 -68 0 0 -318z"/>
<path d="M4965 9832 c-1088 -1 -1743 -6 -1749 -12 -6 -6 0 -27 15 -59 27 -58
49 -70 170 -95 242 -49 547 -61 1574 -61 1016 0 1331 12 1571 60 119 24 151
41 174 92 24 55 25 60 3 70 -10 4 -801 7 -1758 5z"/>
<path d="M4150 9550 l-65 -5 -205 -151 c-113 -83 -216 -158 -230 -167 -14 -9
-89 -28 -167 -43 l-142 -26 -45 -134 -45 -134 367 0 367 0 0 122 0 122 175
138 175 138 95 0 95 0 63 -134 c47 -103 62 -146 62 -180 l0 -46 -245 0 -245 0
0 -80 0 -80 818 0 818 0 0 78 -1 77 -245 5 -244 5 -3 43 c-1 35 10 70 60 178
l62 133 95 1 95 0 177 -138 178 -137 0 -122 0 -123 366 0 c343 0 365 1 360 18
-3 9 -23 69 -44 132 l-39 115 -149 30 -149 31 -229 167 c-125 92 -231 167
-234 168 -30 4 -1652 3 -1702 -1z"/>
<path d="M1725 8766 c-116 -37 -207 -116 -258 -224 -30 -63 -32 -76 -39 -227
-9 -194 2 -295 39 -373 31 -66 120 -160 181 -191 105 -54 -90 -51 3323 -51
2079 0 3174 3 3209 10 173 33 312 174 340 345 15 90 12 319 -5 399 -27 127
-104 224 -223 284 l-76 37 -3225 2 c-2586 1 -3234 -1 -3266 -11z m6405 -65
c119 -35 218 -120 271 -234 34 -71 34 -73 34 -217 0 -167 -12 -214 -75 -303
-46 -64 -112 -116 -190 -149 l-55 -23 -3100 -3 c-2284 -2 -3116 0 -3160 8
-166 32 -299 162 -334 328 -14 66 -14 192 -1 262 33 175 178 316 347 338 32 4
1444 7 3138 7 2519 -1 3088 -3 3125 -14z"/>
<path d="M1853 8626 c-88 -28 -175 -106 -216 -194 -19 -41 -21 -65 -22 -187 0
-131 2 -144 26 -196 33 -70 91 -129 161 -166 48 -25 65 -28 181 -31 l127 -4 0
46 0 46 -105 0 -105 0 0 30 0 30 105 0 105 0 0 45 0 45 -145 0 -145 0 0 30 0
30 145 0 145 0 0 30 0 30 -191 0 -190 0 3 33 3 32 100 1 c55 1 139 2 188 3
l87 1 0 30 0 30 -145 0 -145 0 0 30 0 30 145 0 145 0 0 40 0 40 -105 0 -105 0
0 35 0 35 105 0 105 0 0 45 0 45 -107 -1 c-60 0 -127 -6 -150 -13z"/>
<path d="M2270 8595 l0 -45 2705 0 2705 0 0 45 0 45 -2705 0 -2705 0 0 -45z"/>
<path d="M7840 8596 l0 -46 105 0 105 0 0 -35 0 -35 -105 0 -105 0 0 -40 0
-40 140 0 140 0 0 -30 0 -29 -137 -3 -138 -3 0 -29 0 -30 185 0 185 -1 3 -32
3 -33 -190 0 -191 0 0 -30 0 -30 140 0 140 0 0 -30 0 -30 -140 0 -140 0 0 -45
0 -45 105 0 105 0 0 -30 0 -30 -105 0 -105 0 0 -46 0 -46 128 4 c108 3 134 7
173 26 71 35 122 84 160 154 l34 63 0 145 c0 135 -2 149 -26 200 -33 70 -99
136 -169 169 -48 22 -71 26 -177 29 l-123 4 0 -46z"/>
<path d="M2270 8240 l0 -240 2705 0 2705 0 0 240 0 240 -2705 0 -2705 0 0
-240z m614 124 l68 -85 -39 -102 -39 -102 -57 -11 c-31 -7 -81 -15 -110 -18
l-54 -7 -66 82 c-37 45 -67 87 -66 93 0 6 17 54 37 106 l37 95 95 16 c52 9
102 17 110 17 8 0 46 -38 84 -84z m1493 0 l70 -86 -40 -103 -39 -103 -109 -17
c-60 -10 -111 -16 -113 -14 -1 2 -33 41 -69 85 l-67 82 39 103 39 104 98 16
c55 9 104 17 110 18 7 1 43 -38 81 -85z m1496 0 l69 -85 -37 -97 c-21 -53 -40
-100 -44 -104 -6 -6 -176 -38 -205 -38 -8 0 -44 37 -81 82 -75 92 -74 80 -22
211 l32 82 95 16 c52 9 102 17 110 17 8 0 46 -37 83 -84z m1478 19 c91 -110
88 -96 44 -211 l-37 -100 -110 -17 c-63 -10 -112 -14 -117 -9 -4 5 -35 43 -69
85 l-62 76 38 104 39 104 94 16 c52 9 101 17 110 18 8 0 40 -29 70 -66z"/>
<path d="M2649 8366 c-47 -32 -73 -94 -63 -150 9 -54 67 -111 123 -121 54 -9
123 22 151 67 25 42 26 112 2 157 -38 71 -144 94 -213 47z m130 -40 c56 -29
67 -102 22 -147 -80 -80 -210 27 -145 119 28 41 77 52 123 28z"/>
<path d="M4152 8370 c-101 -62 -95 -204 11 -258 58 -30 113 -23 162 20 106 92
43 258 -97 258 -25 0 -56 -8 -76 -20z m139 -59 c59 -60 23 -161 -58 -161 -45
0 -69 14 -89 51 -20 40 -11 82 28 114 40 34 82 33 119 -4z"/>
<path d="M5642 8370 c-20 -12 -41 -39 -53 -66 -28 -63 -19 -117 30 -165 48
-48 102 -58 164 -31 63 28 91 76 85 148 -4 47 -10 61 -41 92 -32 31 -43 36
-94 39 -46 3 -65 0 -91 -17z m127 -44 c30 -16 51 -53 51 -92 0 -39 -51 -84
-95 -84 -27 0 -44 8 -66 29 -21 22 -29 39 -29 66 0 27 8 44 29 66 33 32 67 37
110 15z"/>
<path d="M7154 8380 c-27 -11 -72 -65 -80 -96 -10 -39 2 -100 25 -132 28 -40
93 -65 145 -56 54 9 112 65 122 118 9 53 -20 123 -65 153 -35 24 -105 30 -147
13z m134 -75 c34 -40 30 -96 -9 -129 -78 -66 -187 11 -149 105 26 62 113 75
158 24z"/>
<path d="M2270 7895 l0 -45 2705 0 2705 0 0 45 0 45 -2705 0 -2705 0 0 -45z"/>
<path d="M2424 7651 c-2 -2 -4 -39 -4 -82 0 -66 -3 -78 -17 -82 -10 -2 -26 3
-35 11 -27 23 -67 8 -75 -28 -3 -17 -9 -30 -12 -30 -4 0 -17 -9 -29 -20 -42
-39 -23 -150 26 -150 7 0 9 -12 5 -34 -6 -36 13 -59 28 -35 6 10 9 11 9 2 0
-7 6 -13 14 -13 8 0 17 6 19 13 4 10 6 10 6 0 1 -7 8 -13 16 -13 11 0 15 11
15 40 l0 40 364 0 364 0 -5 -40 c-5 -32 -2 -40 10 -40 8 0 18 6 20 13 4 10 6
10 6 0 1 -7 8 -13 16 -13 8 0 15 6 15 13 0 9 3 8 9 -2 15 -24 34 -1 28 35 -4
24 -2 34 7 34 26 0 46 36 46 82 0 38 -5 50 -28 70 -16 13 -32 36 -36 51 -8 33
-48 46 -74 25 -9 -8 -25 -13 -34 -11 -14 4 -18 19 -20 85 l-3 80 -323 2 c-178
0 -326 -1 -328 -3z"/>
<path d="M3909 7650 c0 -3 0 -37 1 -77 1 -64 -1 -73 -20 -83 -17 -9 -25 -8
-39 4 -29 26 -71 14 -71 -22 0 -7 -16 -28 -35 -46 -29 -28 -35 -40 -35 -75 0
-42 26 -81 53 -81 9 0 11 -12 9 -40 -3 -32 -1 -40 12 -40 9 0 16 6 16 13 0 8
4 7 10 -3 9 -13 11 -13 21 0 8 11 12 12 16 3 10 -27 23 -11 23 27 l0 40 364 0
365 0 -6 -34 c-6 -36 13 -59 28 -35 6 10 9 11 9 2 0 -7 6 -13 14 -13 8 0 17 6
19 13 4 10 6 10 6 0 1 -7 8 -13 17 -13 13 0 15 8 12 39 -3 34 0 40 24 49 52
19 50 115 -2 152 -17 12 -30 29 -30 39 0 38 -45 54 -74 26 -12 -12 -20 -14
-36 -5 -17 9 -20 21 -20 88 l0 77 -325 0 c-179 0 -325 -2 -326 -5z"/>
<path d="M5394 7651 c-2 -2 -4 -39 -4 -82 0 -68 -2 -77 -20 -82 -10 -3 -24 1
-31 9 -26 31 -79 10 -79 -31 0 -13 -10 -26 -24 -33 -56 -25 -56 -144 -1 -158
20 -5 23 -11 18 -39 -6 -35 13 -58 28 -34 6 10 9 11 9 2 0 -7 7 -13 15 -13 8
0 15 6 15 13 0 9 3 8 9 -2 15 -24 34 -1 28 35 l-6 34 365 0 364 0 0 -40 c0
-29 4 -40 15 -40 8 0 15 6 15 13 0 8 4 7 11 -3 8 -11 12 -12 16 -2 2 6 9 12
14 12 6 0 7 -4 4 -10 -3 -5 1 -10 9 -10 12 0 16 10 16 40 0 27 4 40 13 40 26
0 47 36 47 79 0 35 -6 48 -32 74 -18 18 -33 38 -34 45 -7 40 -45 53 -75 26
-12 -11 -23 -13 -34 -6 -14 7 -18 25 -19 87 l-1 77 -323 1 c-178 1 -326 0
-328 -2z"/>
<path d="M6893 7652 c-22 -3 -23 -8 -23 -82 0 -69 -2 -78 -20 -83 -10 -3 -25
2 -31 10 -19 22 -52 11 -69 -21 -8 -17 -27 -41 -42 -54 -23 -20 -28 -32 -28
-71 0 -48 20 -81 48 -81 7 0 12 -16 12 -40 0 -38 13 -54 23 -27 4 9 8 8 16 -3
10 -13 12 -13 21 0 6 10 10 11 10 3 0 -7 7 -13 15 -13 11 0 15 11 15 40 l0 40
364 0 365 0 -6 -34 c-6 -36 13 -59 28 -35 6 10 9 11 9 2 0 -7 7 -13 15 -13 8
0 15 6 15 13 0 9 3 8 9 -2 15 -24 34 -1 28 35 -4 25 -2 34 8 34 46 0 64 111
25 150 -11 11 -24 20 -29 20 -5 0 -11 13 -14 30 -8 36 -48 51 -75 28 -9 -8
-25 -13 -34 -11 -14 4 -18 18 -20 84 l-3 81 -305 1 c-168 1 -315 1 -327 -1z"/>
<path d="M1988 7533 c-52 -54 -108 -172 -176 -373 -32 -96 -62 -187 -66 -202
l-6 -28 305 0 305 0 0 110 0 110 -89 0 -89 0 1 190 1 190 88 0 c81 0 88 2 88
20 0 19 -7 20 -163 20 l-163 0 -36 -37z"/>
<path d="M3110 7550 c0 -19 7 -20 105 -20 l105 0 0 -190 0 -189 -102 -3 -103
-3 -3 -107 -3 -108 396 0 396 0 -3 108 -3 107 -122 3 -123 3 0 189 0 189 112
3 c98 3 113 5 116 21 3 16 -20 17 -382 17 -379 0 -386 0 -386 -20z"/>
<path d="M4610 7550 c0 -19 7 -20 95 -20 l95 0 0 -190 0 -189 -107 -3 -108 -3
-3 -107 -3 -108 411 0 410 0 0 110 0 110 -140 0 -140 0 0 190 0 189 117 3
c103 3 118 5 121 21 3 16 -20 17 -372 17 -369 0 -376 0 -376 -20z"/>
<path d="M6090 7550 c0 -19 7 -20 90 -20 l90 0 0 -192 0 -193 -90 3 -90 3 0
-110 0 -111 380 0 380 0 0 110 0 110 -125 0 -125 0 0 190 0 189 112 3 c98 3
113 5 116 21 3 16 -20 17 -367 17 -364 0 -371 0 -371 -20z"/>
<path d="M7610 7550 c0 -18 7 -20 70 -20 l70 0 -2 -192 -3 -192 -67 3 -68 2 0
-110 0 -111 315 0 c173 0 315 2 315 5 0 3 -27 87 -60 187 -72 219 -144 372
-195 416 l-36 32 -169 0 c-163 0 -170 -1 -170 -20z"/>
<path d="M2460 6742 c0 -543 0 -543 69 -687 95 -199 284 -367 496 -442 l80
-28 758 -5 758 -5 19 -42 c18 -41 18 -42 -1 -67 -11 -13 -28 -43 -38 -67 -23
-50 -16 -83 29 -147 30 -42 30 -44 30 -177 l0 -135 285 0 285 0 0 131 0 130
41 67 c46 77 46 98 -1 172 -35 54 -35 58 -13 104 l16 35 791 3 791 3 70 24
c266 87 493 323 560 579 12 50 15 140 15 551 l0 491 -284 0 -284 0 -4 -332
c-4 -284 -7 -341 -22 -388 -60 -186 -182 -297 -367 -336 -53 -11 -135 -14
-347 -12 l-277 3 41 27 c25 16 46 39 53 59 7 22 11 182 11 505 l0 474 -284 0
-284 0 -5 -322 c-4 -249 -8 -335 -20 -377 -51 -174 -159 -278 -342 -326 -73
-19 -103 -19 -183 0 -139 33 -254 118 -304 225 -49 104 -58 181 -58 505 l0
295 -285 0 -285 0 0 -485 c0 -354 3 -491 12 -510 7 -15 30 -36 52 -48 l41 -22
-287 -3 c-225 -2 -303 1 -359 13 -160 33 -274 115 -334 239 -54 112 -65 203
-65 532 l0 284 -285 0 -285 0 0 -488z"/>
<path d="M900 6370 c0 -407 2 -740 4 -740 2 0 36 44 77 98 40 53 76 99 81 100
4 2 8 17 8 33 l0 29 140 0 140 0 0 -30 c0 -16 4 -30 9 -30 6 0 45 -46 88 -102
l78 -102 3 317 2 317 55 0 55 0 0 -942 c0 -519 3 -980 7 -1025 l6 -83 -56 0
-57 0 -2 437 -3 437 -76 -135 -76 -134 -168 0 -168 0 -73 129 c-40 70 -75 131
-78 134 -3 3 -6 -458 -6 -1024 l0 -1029 81 143 81 142 163 0 163 0 79 -140 78
-140 3 440 2 440 83 0 82 0 28 -92 c58 -193 150 -343 241 -391 l41 -22 1278
-3 1277 -2 0 560 0 560 -21 0 c-12 0 -39 10 -60 22 -54 30 -79 85 -79 172 0
107 43 170 126 183 l34 6 0 113 c0 111 -1 115 -29 155 -48 66 -56 102 -34 152
55 121 53 114 38 151 l-15 35 -747 4 c-808 4 -779 2 -909 58 -88 38 -208 126
-291 212 -94 98 -162 208 -200 322 -26 76 -27 92 -31 328 l-4 247 -346 -2
-347 -3 -2 -65 c-2 -36 -5 -80 -8 -97 -6 -33 -7 -33 -60 -33 l-55 0 -2 317 -3
317 -75 -102 -75 -101 -160 -1 -161 0 -74 100 c-41 55 -75 100 -77 100 -2 0
-3 -333 -3 -740z m450 480 l0 -30 -140 0 -140 0 0 30 0 30 140 0 140 0 0 -30z
m0 -100 l0 -30 -140 0 -140 0 0 30 0 30 140 0 140 0 0 -30z m0 -100 l0 -30
-140 0 -140 0 0 30 0 30 140 0 140 0 0 -30z m0 -100 l0 -30 -140 0 -140 0 0
30 0 30 140 0 140 0 0 -30z m0 -100 l0 -30 -140 0 -140 0 0 30 0 30 140 0 140
0 0 -30z m678 -40 l33 -61 -33 -59 -33 -60 -70 0 -70 0 -33 60 c-36 65 -36 61
15 143 23 37 24 37 91 37 l67 0 33 -60z m-680 -57 l3 -33 -140 0 -141 0 0 28
c0 16 2 31 4 33 3 2 65 4 138 4 l133 0 3 -32z m2 -98 l0 -36 -137 3 c-124 3
-138 5 -141 21 -9 44 0 47 143 47 l135 0 0 -35z m0 -100 l0 -36 -137 3 -138 3
-3 33 -3 32 140 0 141 0 0 -35z m-2 -97 l-3 -33 -67 1 c-38 1 -99 2 -138 3
l-70 1 0 30 0 30 141 0 140 0 -3 -32z m2 -98 l0 -30 -140 0 -140 0 0 30 0 30
140 0 140 0 0 -30z m665 -271 c49 -77 50 -79 14 -142 l-33 -57 -71 0 -70 0
-33 60 -33 60 27 47 c42 74 41 73 110 73 64 0 64 0 89 -41z m2152 -417 l31
-57 -31 -58 -32 -57 -74 2 -74 3 -31 56 -30 55 33 57 32 57 72 0 72 0 32 -58z
m-2135 -352 l30 -55 -33 -57 -33 -58 -72 0 -71 0 -29 52 c-16 29 -30 56 -32
60 -2 4 11 32 30 63 l33 56 73 -3 73 -3 31 -55z m-682 -150 l0 -30 -140 0
-140 0 0 30 0 30 140 0 140 0 0 -30z m0 -100 l0 -30 -140 0 -140 0 0 30 0 30
140 0 140 0 0 -30z m0 -101 l0 -29 -140 0 -140 0 0 30 0 29 133 3 c72 2 135 2
140 0 4 -2 7 -16 7 -33z m0 -94 l0 -36 -137 3 c-124 3 -138 5 -141 21 -9 44 0
47 143 47 l135 0 0 -35z m0 -100 l0 -36 -137 3 c-124 3 -138 5 -141 21 -9 44
0 47 143 47 l135 0 0 -35z m1655 -60 l34 -60 -36 -58 -35 -58 -71 3 -70 3 -31
56 -31 57 24 43 c42 77 47 80 118 77 l64 -3 34 -60z m-1655 -41 l0 -36 -137 6
c-115 4 -139 8 -141 21 -9 42 2 45 143 45 l135 0 0 -36z m0 -94 l0 -30 -140 0
-140 0 0 30 0 30 140 0 140 0 0 -30z m0 -100 l0 -30 -140 0 -140 0 0 30 0 30
140 0 140 0 0 -30z m0 -100 l0 -30 -140 0 -140 0 0 30 0 30 140 0 140 0 0 -30z
m0 -100 l0 -30 -140 0 -140 0 0 30 0 30 140 0 140 0 0 -30z m0 -100 l0 -30
-140 0 -140 0 0 30 0 30 140 0 140 0 0 -30z m0 -100 l0 -30 -140 0 -140 0 0
30 0 30 140 0 140 0 0 -30z m0 -95 l0 -35 -140 0 -140 0 0 28 c0 16 3 32 7 35
3 4 66 7 140 7 l133 0 0 -35z m0 -100 l0 -36 -137 3 c-124 3 -138 5 -141 21
-9 44 0 47 143 47 l135 0 0 -35z m-2 -97 l-3 -33 -135 2 c-116 1 -135 4 -138
18 -9 42 1 45 143 45 l136 0 -3 -32z"/>
<path d="M3162 6623 c33 -90 77 -161 142 -230 117 -126 195 -153 438 -153
l170 0 -6 23 c-3 12 -6 111 -6 220 l0 197 -380 0 -380 0 22 -57z"/>
<path d="M4624 6653 c4 -16 27 -70 52 -120 71 -147 182 -244 297 -259 115 -16
257 95 340 266 25 52 49 105 52 118 l6 22 -376 0 -377 0 6 -27z"/>
<path d="M6090 6492 c0 -103 -4 -202 -10 -220 l-9 -34 182 4 c180 3 183 3 247
34 79 38 131 79 188 147 39 47 110 179 127 235 l6 22 -365 0 -366 0 0 -188z"/>
<path d="M7610 6458 c0 -254 -10 -321 -64 -435 -113 -237 -320 -417 -562 -489
-53 -16 -134 -18 -842 -21 l-782 -4 -14 -28 c-14 -25 -12 -34 20 -115 40 -100
38 -120 -17 -195 -28 -40 -29 -44 -29 -156 l0 -115 64 0 c115 0 166 -58 166
-188 0 -134 -45 -184 -168 -191 l-72 -3 2 -557 3 -556 1325 0 1325 0 48 28
c117 69 218 273 276 557 46 225 46 233 46 1465 0 644 -3 1182 -8 1198 l-7 27
-355 0 -355 0 0 -222z m397 80 c6 -7 22 -35 38 -63 l27 -50 -33 -57 -34 -58
-70 0 -71 0 -33 58 -33 57 27 50 c42 75 41 75 110 75 38 0 66 -5 72 -12z m142
-1540 l33 -63 -33 -58 -34 -58 -69 3 -70 3 -33 58 -34 57 36 60 36 60 68 0 67
0 33 -62z m-1882 -411 l32 -57 -36 -60 -35 -60 -67 0 -67 0 -32 56 c-18 31
-32 60 -32 65 0 5 14 34 31 65 l31 55 71 -3 71 -3 33 -58z m969 -735 c6 -4 24
-32 41 -62 l32 -55 -35 -58 -36 -57 -69 0 -69 0 -30 53 c-16 28 -30 58 -30 65
0 8 15 38 32 68 l33 54 60 0 c33 0 65 -4 71 -8z"/>
<path d="M686 6534 c-19 -18 -21 -55 -4 -72 7 -7 40 -12 78 -12 71 0 90 10 90
46 0 39 -26 54 -90 54 -40 0 -64 -5 -74 -16z"/>
<path d="M686 6404 c-19 -18 -21 -55 -4 -72 7 -7 40 -12 78 -12 38 0 71 5 78
12 19 19 15 66 -7 78 -31 16 -127 13 -145 -6z"/>
<path d="M688 6279 c-25 -14 -24 -65 1 -79 11 -5 43 -10 71 -10 28 0 60 5 71
10 22 12 26 59 7 78 -15 15 -126 15 -150 1z"/>
<path d="M1070 5760 l0 -30 140 0 140 0 0 30 0 30 -140 0 -140 0 0 -30z"/>
<path d="M1070 5660 l0 -30 140 0 140 0 0 30 0 30 -140 0 -140 0 0 -30z"/>
<path d="M1070 5560 l0 -30 140 0 140 0 0 30 0 30 -140 0 -140 0 0 -30z"/>
<path d="M1074 5491 c-2 -2 -4 -17 -4 -33 l0 -28 140 0 140 0 0 29 0 30 -136
3 c-75 2 -138 1 -140 -1z"/>
<path d="M1074 5386 c-3 -8 -4 -23 -2 -33 3 -16 17 -18 141 -21 l138 -3 -3 33
-3 32 -133 3 c-109 3 -133 1 -138 -11z"/>
<path d="M1074 5286 c-3 -8 -4 -23 -2 -33 3 -16 17 -18 141 -21 l137 -3 0 36
0 35 -135 0 c-109 0 -137 -3 -141 -14z"/>
<path d="M1072 5168 l3 -33 65 2 c36 0 98 1 138 2 l72 1 0 30 0 30 -141 0
-140 0 3 -32z"/>
<path d="M1070 5070 l0 -30 140 0 140 0 0 30 0 30 -140 0 -140 0 0 -30z"/>
<path d="M1070 4970 l0 -30 140 0 140 0 0 30 0 30 -140 0 -140 0 0 -30z"/>
<path d="M1070 4870 l0 -30 140 0 140 0 0 30 0 30 -140 0 -140 0 0 -30z"/>
<path d="M4545 4861 c-59 -36 -70 -57 -73 -140 -3 -66 -1 -80 20 -111 47 -70
46 -70 494 -70 399 0 401 0 434 23 59 40 75 71 75 145 0 52 -5 75 -23 103 -42
69 -43 69 -494 69 -375 0 -405 -1 -433 -19z"/>
<path d="M4662 3558 l3 -933 35 -90 c91 -233 295 -427 537 -513 44 -15 168
-17 1626 -19 l1577 -3 0 284 0 285 -1392 4 c-1306 3 -1397 4 -1453 21 -177 53
-288 164 -341 342 -16 53 -18 128 -21 807 l-4 747 -285 0 -285 0 3 -932z"/>
<path d="M692 4224 c-51 -35 -12 -94 63 -94 22 0 51 7 63 16 28 20 30 69 3 84
-29 15 -104 12 -129 -6z"/>
<path d="M686 4094 c-19 -18 -21 -55 -4 -72 7 -7 39 -12 73 -12 34 0 66 5 73
12 19 19 15 66 -7 78 -31 16 -117 12 -135 -6z"/>
<path d="M686 3964 c-19 -18 -21 -55 -4 -72 7 -7 39 -12 73 -12 67 0 85 11 85
50 0 14 -5 31 -12 38 -18 18 -123 15 -142 -4z"/>
<path d="M2690 3323 c0 -4 18 -44 40 -88 71 -144 179 -254 316 -323 118 -60
132 -61 749 -82 314 -10 621 -21 683 -24 l112 -4 0 264 0 264 -950 0 c-522 0
-950 -3 -950 -7z"/>
<path d="M5320 3312 c0 -9 7 -74 15 -144 18 -154 48 -299 71 -336 24 -42 76
-72 167 -100 77 -24 97 -26 327 -27 135 -2 385 2 555 7 l310 9 284 85 c293 87
418 137 527 212 101 68 184 168 229 275 l15 37 -1250 0 c-1185 0 -1250 -1
-1250 -18z"/>
</g>
</svg>
